<?xml version="1.0" encoding="UTF-8"?>
<svg id="Layer_2" data-name="Layer 2" xmlns="http://www.w3.org/2000/svg" viewBox="0 0 1159.96 1159.96">
  <defs>
    <style>
      .cls-1 {
        fill: #42a4d4;
        stroke-width: 0px;
      }
    </style>
  </defs>
  <g id="Layer_1-2" data-name="Layer 1">
    <g>
      <g>
        <g id="_Radial_Repeat_" data-name="&amp;lt;Radial Repeat&amp;gt;">
          <ellipse class="cls-1" cx="386.4" cy="900.25" rx="119.02" ry="221.99"/>
        </g>
        <g id="_Radial_Repeat_-2" data-name="&amp;lt;Radial Repeat&amp;gt;">
          <ellipse class="cls-1" cx="307.18" cy="836.14" rx="221.99" ry="119.02" transform="translate(-580.84 906.34) rotate(-74.35)"/>
        </g>
        <g id="_Radial_Repeat_-3" data-name="&amp;lt;Radial Repeat&amp;gt;">
          <ellipse class="cls-1" cx="248.18" cy="753.04" rx="221.99" ry="119.02" transform="translate(-524.18 573.82) rotate(-58.7)"/>
        </g>
        <g id="_Radial_Repeat_-4" data-name="&amp;lt;Radial Repeat&amp;gt;">
          <ellipse class="cls-1" cx="213.79" cy="657.1" rx="221.99" ry="119.02" transform="translate(-390.96 322.79) rotate(-43.04)"/>
        </g>
        <g id="_Radial_Repeat_-5" data-name="&amp;lt;Radial Repeat&amp;gt;">
          <ellipse class="cls-1" cx="206.56" cy="555.45" rx="221.99" ry="119.02" transform="translate(-232.38 157.31) rotate(-27.39)"/>
        </g>
        <g id="_Radial_Repeat_-6" data-name="&amp;lt;Radial Repeat&amp;gt;">
          <ellipse class="cls-1" cx="227.03" cy="455.61" rx="221.99" ry="119.02" transform="translate(-87.95 55.72) rotate(-11.74)"/>
        </g>
        <g id="_Radial_Repeat_-7" data-name="&amp;lt;Radial Repeat&amp;gt;">
          <ellipse class="cls-1" cx="273.67" cy="365" rx="119.02" ry="221.99" transform="translate(-109.15 613.13) rotate(-86.09)"/>
        </g>
        <g id="_Radial_Repeat_-8" data-name="&amp;lt;Radial Repeat&amp;gt;">
          <ellipse class="cls-1" cx="343.03" cy="290.33" rx="119.02" ry="221.99" transform="translate(-45.41 516.33) rotate(-70.43)"/>
        </g>
        <g id="_Radial_Repeat_-9" data-name="&amp;lt;Radial Repeat&amp;gt;">
          <ellipse class="cls-1" cx="429.97" cy="237.14" rx="119.02" ry="221.99" transform="translate(-11.73 451.66) rotate(-54.78)"/>
        </g>
        <g id="_Radial_Repeat_-10" data-name="&amp;lt;Radial Repeat&amp;gt;">
          <ellipse class="cls-1" cx="528.03" cy="209.38" rx="119.02" ry="221.99" transform="translate(-13.71 380.19) rotate(-39.13)"/>
        </g>
        <g id="_Radial_Repeat_-11" data-name="&amp;lt;Radial Repeat&amp;gt;">
          <ellipse class="cls-1" cx="629.94" cy="209.11" rx="119.02" ry="221.99" transform="translate(-31.16 268.28) rotate(-23.48)"/>
        </g>
        <g id="_Radial_Repeat_-12" data-name="&amp;lt;Radial Repeat&amp;gt;">
          <ellipse class="cls-1" cx="728.15" cy="236.34" rx="119.02" ry="221.99" transform="translate(-25.4 101.35) rotate(-7.83)"/>
        </g>
        <g id="_Radial_Repeat_-13" data-name="&amp;lt;Radial Repeat&amp;gt;">
          <ellipse class="cls-1" cx="815.36" cy="289.06" rx="221.99" ry="119.02" transform="translate(417.97 1057.47) rotate(-82.17)"/>
        </g>
        <g id="_Radial_Repeat_-14" data-name="&amp;lt;Radial Repeat&amp;gt;">
          <ellipse class="cls-1" cx="885.13" cy="363.35" rx="221.99" ry="119.02" transform="translate(199.22 1030.44) rotate(-66.52)"/>
        </g>
        <g id="_Radial_Repeat_-15" data-name="&amp;lt;Radial Repeat&amp;gt;">
          <ellipse class="cls-1" cx="932.26" cy="453.71" rx="221.99" ry="119.02" transform="translate(-8.03 890.54) rotate(-50.87)"/>
        </g>
        <g id="_Radial_Repeat_-16" data-name="&amp;lt;Radial Repeat&amp;gt;">
          <ellipse class="cls-1" cx="953.26" cy="553.44" rx="221.99" ry="119.02" transform="translate(-144.68 651.02) rotate(-35.22)"/>
        </g>
        <g id="_Radial_Repeat_-17" data-name="&amp;lt;Radial Repeat&amp;gt;">
          <ellipse class="cls-1" cx="946.58" cy="655.13" rx="221.99" ry="119.02" transform="translate(-164.74 354.82) rotate(-19.57)"/>
        </g>
        <g id="_Radial_Repeat_-18" data-name="&amp;lt;Radial Repeat&amp;gt;">
          <ellipse class="cls-1" cx="912.71" cy="751.25" rx="221.99" ry="119.02" transform="translate(-49.14 64.04) rotate(-3.91)"/>
        </g>
        <g id="_Radial_Repeat_-19" data-name="&amp;lt;Radial Repeat&amp;gt;">
          <ellipse class="cls-1" cx="854.16" cy="834.67" rx="119.02" ry="221.99" transform="translate(-136.83 1501.15) rotate(-78.26)"/>
        </g>
        <g id="_Radial_Repeat_-20" data-name="&amp;lt;Radial Repeat&amp;gt;">
          <ellipse class="cls-1" cx="775.28" cy="899.2" rx="119.02" ry="221.99" transform="translate(-379.78 1173.87) rotate(-62.61)"/>
        </g>
        <g id="_Radial_Repeat_-21" data-name="&amp;lt;Radial Repeat&amp;gt;">
          <ellipse class="cls-1" cx="681.91" cy="940.05" rx="119.02" ry="221.99" transform="translate(-470.55 796.78) rotate(-46.96)"/>
        </g>
        <g id="_Radial_Repeat_-22" data-name="&amp;lt;Radial Repeat&amp;gt;">
          <ellipse class="cls-1" cx="580.99" cy="954.2" rx="119.02" ry="221.99" transform="translate(-411.21 440.79) rotate(-31.3)"/>
        </g>
        <g id="_Radial_Repeat_-23" data-name="&amp;lt;Radial Repeat&amp;gt;">
          <ellipse class="cls-1" cx="479.99" cy="940.6" rx="119.02" ry="221.99" transform="translate(-235.97 164.38) rotate(-15.65)"/>
        </g>
      </g>
      <ellipse class="cls-1" cx="587.48" cy="600.73" rx="289.5" ry="278.5"/>
    </g>
  </g>
</svg>