<?xml version="1.0" encoding="utf-8"?>
<!-- Generator: Adobe Illustrator 27.2.0, SVG Export Plug-In . SVG Version: 6.00 Build 0)  -->
<svg version="1.1" id="Layer_1" xmlns="http://www.w3.org/2000/svg" xmlns:xlink="http://www.w3.org/1999/xlink" x="0px" y="0px"
	 viewBox="0 0 231 147" style="enable-background:new 0 0 231 147;" xml:space="preserve">
<style type="text/css">
	.st0{fill:#FFFFFF;}
	.st1{fill:#FF4127;}
	.st2{fill:#EF880C;}
	.st3{fill:#FFAD65;}
	.st4{fill:#BA7545;}
	.st5{fill:#FFD394;}
	.st6{fill:#FFC280;}
	.st7{fill:#D17519;}
	.st8{fill:#933800;}
	.st9{fill:#B2510E;}
	.st10{fill:#1D92CC;}
</style>
<path class="st0" d="M28.1,4.6L29.7,35l26.6,0.8l29.5-0.4L86.4,21L85.1,1.6L29.1,1.7L28.1,4.6z"/>
<path class="st1" d="M76.6,13.1l9.4,0.3L85.1,1.6L29.1,1.7l-0.9,2.9l0.5,9.1l14.9-0.1L76.6,13.1z"/>
<path d="M29.7,35l26.6,0.8l29.5-0.4l0.5-10.5L74,25.1l-24-0.3l-20.8,0.1L29.7,35z"/>
<path class="st2" d="M58.2,17.5l-2.2-1l-1.9,1l-0.8,5.1l1.6-0.4l1.5-0.9l1.5,1.7l0.1,1h0.9l0.2-1l0.8-1.5l1.5,0.7l1.1,0.7l0.3-2.7
	l-0.6-2.2l-2.1-1.2L59,14.6l-2.3-0.2l-0.4,0.7l1.2,0.2L58.2,17.5z"/>
<path class="st3" d="M0.6,110.2l0.5,1.5l14.2-0.5l11.9-0.8l13.7,0.8l41.5,0.5l24.3-0.5H128l23,0.5l0.3-2.8l-5.3-7.6l-20.5-23.8
	l-9.1-11.1l-1.8-2l-9.4-7.8L89.9,39.1L78.5,28.2l-5.1-4.8l-1.8,0.3l-9.9,11.1L45.3,56.3L31.7,74L17,91.2L0.6,110.2z"/>
<path class="st4" d="M64.8,34.6l8.6-11.1l-1.7,0.2l-9.9,11.1L45.3,56.3L31.7,74L17,91.2l-16.4,19l0.5,1.5l2.8-0.1l12.9-18.1
	l12.6-14.4L39,66.7l15.9-20L64.8,34.6z"/>
<path class="st5" d="M97.9,53l-1-1.5l2.6-1.5l-9.7-10.9L78.5,28.2l-5.1-4.8l-1.8,0.3l-9.9,11.1L45.3,56.3l-4.7,6.1h2.2l5.3-7.6
	l4.6-5.1L60,50v2.8l-0.5,3.5l3.5,1.3v2.3l10.6,1.8l2.3,1.8l3.5-3.3l1-3l15.7,1L97.9,53z"/>
<path class="st5" d="M71.9,83.9l23-0.5l16.9,1.5l0.3,1.5l-12.6-0.8l-12.6-1l-15.7,0.5L71.9,83.9z"/>
<path class="st4" d="M96.7,89.7h18.7l4.8,0.3v1.5l-10.9-0.3l-0.3,1.8H96.9L96.7,89.7z"/>
<path class="st4" d="M26.4,101.3l12.4,0.5l3-3.8l25.8-0.3l0.3,1.3l6.3,0.5l-0.3,2L41.3,100l-2.3,4.6l-14.4,0.8L26.4,101.3z"/>
<path class="st4" d="M13.7,103.8l5.3-0.5l0.5-2.3l-6.3,0.8L13.7,103.8z"/>
<path class="st4" d="M17.8,104.3h6.3l-0.8,0.8l-6.3,0.5L17.8,104.3z"/>
<path class="st4" d="M20.3,100.3l0.3,2h4l0.3-1.5L20.3,100.3z"/>
<path class="st4" d="M43.1,103.8l-0.5,1.3h29.1v-1.3l-15.9-0.5L43.1,103.8z"/>
<path class="st4" d="M75.4,103.3v1.8l15.9,0.5l-0.2-1.3L75.4,103.3z"/>
<path class="st4" d="M61,77.5l20.7,1.5l-0.5,1.3l-21-0.3L61,77.5z"/>
<path class="st4" d="M93.9,65.2l16.2,0.8l-0.3-1.3l-16.4-1.3L93.9,65.2z"/>
<path class="st5" d="M46.4,62.1H58l0.3,1.5l12.9,1.8l2.5,2.3h5.1l-4.8-1.8l-2-1.3l-11.9-3v-1.5H47.9L46.4,62.1z"/>
<path class="st4" d="M50.9,56.6l-0.3,1.3H55l-0.3-1.5L50.9,56.6z"/>
<path class="st4" d="M29.4,83.9h12.1l10.6,1.3l1,1.3h5.3l-0.2,1.3l-31.1-1L29.4,83.9z"/>
<path class="st4" d="M62.8,86.6v0.8l6.8,0.3l-0.5-1.3L62.8,86.6z"/>
<path class="st4" d="M81.8,90.9L81,92.5l5.8,0.5l-0.5-1.5L81.8,90.9z"/>
<path class="st4" d="M115.9,97.8l0.3,1.3l21.2,1.8l3.8-1.3l-1.3-1.8H115.9z"/>
<path class="st5" d="M100.7,69.4h6.3l3.5,0.8v1.5l-10.4-1L100.7,69.4z"/>
<path class="st4" d="M96.7,69.7L96.4,71h-3.3v-1.3H96.7z"/>
<path class="st4" d="M114.6,79.3v1.3h2.5v-1L114.6,79.3z"/>
<path class="st4" d="M41.6,73.5v1.3h6.8v-1.3H41.6z"/>
<path class="st4" d="M58.7,69.2v1.3l5.8,0.5v-1L58.7,69.2z"/>
<path class="st2" d="M19.8,108.4l-1.8,5.3l0.8,4.6l38.9,1.3l18.7,0.3l10.6,6.3l7.1,4.3l4.6-0.5l3.8,4l5.6,1l30.6,0.8l4.3,8.1l56.4,3
	l8.1-13.4l-1.3-4.6l-54.1-3.3l-27.1-9.4l-19-2l-6.1-3.5H84.5l-54.1-2L19.8,108.4z"/>
<path class="st6" d="M32.5,106.9l0.3,4.6l71.3,0.5l-0.5-2l-7.8-0.8l-23.5-0.5l-28.3-1.3L32.5,106.9z"/>
<path class="st7" d="M174.3,143.5l-28.8-2l-2.5-2.3l-3.5-5.3l-30.6-2.8v-2l-7.8-1.5h-8.1L82,121l-5.6-3l-38.9-0.5l-19.1-1.6l0.4,2.4
	l38.9,1.3l18.7,0.3l10.6,6.3l7.1,4.3l4.6-0.5l3.8,4l5.6,1l30.6,0.8l4.3,8.1l56.4,3l0.4-0.7L174.3,143.5z"/>
<path class="st8" d="M98.4,115.5l2.5-9.4l10.9-0.5l7.3-0.3l5.8,0.3l10.4-4.3l7.8-3.8l3.3-4.8l1.5-5.1l-0.3-5.3l-2-2v-2l1.5-2.5l1-4
	l7.8-14.2l6.3-7.8l5.8-1l9.4-0.8l4-2l1.8,0.8l2.8,3.5l6.6,2l2.3,2.3l1.3,1.5l3,0.5l4.3,4.6l7.8,20.2l-1,2l0.5,2l-3,1.5l-1.3,1.3v5.1
	l-0.8,5.3l0.8,6.6l4.6,1l1.3,2.3l4,0.5l-0.3,2l5.1,1.8v1.8l-2.3,0.3l-0.3,2.5l4,0.5l2.3,1.8v2.3l0.3,2l3.3,0.8l2.3,1l-1,4.3
	l-3.8,2.5l-14.7,1l-27.3,0.8l-17.4-1l-6.3-1l-8.3-1.5h-3.5l-12.9-7.1l-10.4-4l-8.8-0.3l-10.6-1.3l-5.3-1L98.4,115.5z"/>
<path class="st2" d="M231,125.6l-2.3-1l-3.3-0.8l-0.3-2v-2.3l-2.3-1.8l-4-0.5l0.3-2.5l2.3-0.3v-1.8l-5.1-1.8l0.3-2l-4-0.5l-1.3-2.3
	l-4.6-1l-0.2-1.8l-6.5-0.9l-1.4-2.4l-4.5-3.5l-4-7.1l-1.3-4.7v-1.9l2.5-3l1.5-3.9l0.3-7.3l1.2-1.9l1.2-4.4l-0.2-4.2l-1.3-1.7
	l0.3-2.8l-1.5-1.5l-6.6-2l-2.8-3.5l-1.8-0.8l-4,2l-9.4,0.8l-3.6,0.6l0.1,3.2l0.5,0.7v4.2l-2.2-1l-1.7,0.7l-0.3,5.7l0.8,4.4l2,1.5
	l1.7-0.7l4.7,11.8l-0.2,2l-4.7,6.9l-11,2.7l-10.7,5.2l-0.6,0.9l-7.8,3.8l-10.4,4.3l-5.8-0.3l-7.3,0.3l-10.9,0.5l-2.5,9.4l2,1.5
	l5.3,1l10.6,1.3l8.8,0.3l10.4,4l12.9,7.1h3.5l8.3,1.5l6.3,1l17.4,1l27.3-0.8l14.7-1l3.8-2.5L231,125.6z"/>
<path class="st7" d="M207.4,133.4l-1.3-4.6l-54.1-3.3l-27.1-9.4l-19-2l-6.1-3.5h-0.2l-1.3,4.8l2,1.5l5.3,1l10.6,1.3l8.8,0.3l10.4,4
	l12.9,7.1h3.5l8.3,1.5l6.3,1l17.4,1l23.2-0.6L207.4,133.4z"/>
<path class="st9" d="M177.7,133.8l3.6,0.2l-0.1-6.7l-4.3-0.3L177.7,133.8z"/>
<path class="st9" d="M153.2,130.8l0.1-5.2l-1.2-0.1l-3.1-1.1l-0.4,6.1h3.5L153.2,130.8z"/>
<path class="st9" d="M140.6,126.3l0.4-4.6l-2.3-0.8l0.2,4.4L140.6,126.3z"/>
<path class="st9" d="M125.8,119.7l9.8,3.8l2.4,1.3l-0.2-4.2l-11.8-4.1L125.8,119.7z"/>
<path class="st9" d="M109.3,118.4l7.1,0.8l1.8,0.1l0.5-3.8l-9.8-1L109.3,118.4z"/>
<path class="st9" d="M185,85.7l4.5,1.6l-0.7-2.6v-1.9l2.5-3l1.5-3.9l0.3-7.3l1.2-1.9l1.2-4.4l-0.2-4.2l-1.3-1.7l0-0.2l-1.4-0.2H187
	l-3.4,0.3v2.4l0.7,3.9l2.9,0.5l1.3,1.5l-1.9,2.2l0.5,1.3l-1.9,1.3l-2-0.2l-4,1.3v0.8l2.2-0.3l3.5,0.3v1l-2.2-0.3l-1.9,1l3.7,0.8
	l-0.3,2l-2-0.2l-5.7,1.4l-6.3,2.7l-0.1,1.7l-0.4,0.6l7-1.3l6.1,0.2l1.5,2L185,85.7z"/>
<path class="st8" d="M189.4,62.5l-0.2,3.7l-0.8,1.9l3.5-0.7l0.3-5.2L189.4,62.5z"/>
<path class="st8" d="M185,57.4l0.8,4h1.7l-1.5-4.4L185,57.4z"/>
<path class="st8" d="M187.5,78.6l-5.6-1.5h-4l-1.4,0.3l6.1,1.3l5.2,3l1.1,0.7l0.9-1.1L187.5,78.6z"/>
<path class="st8" d="M185.9,73.9l0.2,2.5l2.9,0.8l3.2,0.4l0.7-1.7l0.2-4.8l-0.2,0.1l-4.9,1.7L185.9,73.9z"/>
<path class="st9" d="M182.3,64.3l-1.9,2.2l1.9,0.3V64.3z"/>
<path class="st9" d="M182,61.4l-0.8,1.5l-2.5-1.4l-1.5-0.7l-4.6-0.3l0.8-2.2l0.3-0.7l5.2-1.9l3.5,0.3l0.2,2l-0.3,1L182,61.4z"/>
<path class="st7" d="M168.8,73.6l3.2-1.5l5.7-1v0.5l-5.7,1l-3.2,1.4L168.8,73.6z"/>
<path class="st7" d="M167.9,67.4l4.7-1.5h4.4l1,0.2l-0.2,0.4l-4-0.2l-3,0.7l-2.9,0.8V67.4z"/>
<path class="st7" d="M166.2,57.6l4.1-1l3.2-0.5l1.5,0.1l-0.1,0.4l-3.9,0.4l-4.9,1.4L166.2,57.6z"/>
<path class="st7" d="M182.7,52.3l-0.7,1.9l1.3,0.4l0.1-2.1L182.7,52.3z"/>
<path class="st9" d="M163.9,68.7l0.3-0.1V65l1.2-5.4l-0.2-2.2l-2.2-1l-1.7,0.7l-0.3,5.7l0.8,4.4L163.9,68.7z"/>
<path class="st7" d="M181.4,54.2l1.2-7.8l-0.9-0.4l-1.2,0.6l-0.4,3.9l0.1,3.2L181.4,54.2z"/>
<path class="st9" d="M198.5,70l0.5,1.2l4.4-0.5l4,0.1l-0.8-2.2L198.5,70z"/>
<path class="st9" d="M201,81.2l3.4,0.5l6.7,0.4l0.4-0.7l-0.9-2.3l-3.8,0.1l-6.2,0.7L201,81.2z"/>
<path class="st9" d="M191.9,83.7l0.2,1.4l15.4,2.3l0.5-0.5l3-1.5l-0.4-1.5l-15.3-1.4L191.9,83.7z"/>
<path class="st9" d="M156.1,57.6l-7.8,14.2l-1,4l-1.5,2.4l10.6-0.9l1.5-7.6l1.8-16.6L156.1,57.6z"/>
<path class="st9" d="M153.3,80.2l-7.6,0.1v0l1.7,1.7l5.2-0.8l11.8-0.3l0.3-0.8l-3-0.2L153.3,80.2z"/>
<path class="st9" d="M160.7,83l-5.2-0.2l-7.7,0.7l0.1,1.7l13.3-1.1L160.7,83z"/>
<path class="st7" d="M190.1,89.3l-0.5-1.8l-0.7,0.3h-3.4l-7.9-1.3l-1.3-0.8l-8.9,0.2l-1.9,2.8l-0.6,0.2l9.6-0.2l8.9,0.2l5.4,0.5
	L190.1,89.3z"/>
<path class="st7" d="M147.8,94.7l11.2,0.3l13.2,0.5l12,1l7.9,0.2l1.9-0.4l-2.4-4.3l-5.5,0.5l-13.3-0.2l-8.4-1l-10.4,0.5L147.8,94.7z
	"/>
<path class="st6" d="M157.7,101.7l10.3-0.3l17,1l13.3,0.3l1.6-0.4l-1.3-2.3l-1.3-1l-5.7,0.1l-11-0.8l-8.9-1l-19.1-0.2l-9.5,0.2
	l-0.1,0.2l-7.8,3.8l-2.5,1.1l11.1-0.1L157.7,101.7z"/>
<path class="st7" d="M202.7,115.1l13.8,0.8l2.4,0.1l0.1-1.3l2.3-0.3v-1.8l-5.1-1.8l0.1-1.1l-7.5-0.7l-24.8-2l-25.6-0.7l-23.8,0.2
	l-7.1-0.2l-2.4-1l-0.3,0.1l-5.8-0.3l-7.3,0.3l-10.9,0.5l-0.9,3.4l22.6,2.3l16.5-1l8.9-0.7l26.1,2.7L202.7,115.1z"/>
<path class="st6" d="M163.3,121.1l34.6,0.5l27.4,0.5l0-0.3v-2.3l-1.2-0.9h-8.6l-15.2-1l-37.3-2.4h-11.8l-14,0.7l4.7,2.7l10.5,2.7
	L163.3,121.1z"/>
<path class="st7" d="M169.9,97.3l-13.3-0.1l0.5,4.5l0.6,0l10.3-0.3l1.7,0.1L169.9,97.3z"/>
<path class="st7" d="M172.1,101.6l3.9,0.2l-0.1-4.1l-4-0.5L172.1,101.6z"/>
<path class="st6" d="M179,92.4l-6.3-0.1l-8.4-1l-10.4,0.5l-6,2.9l11.2,0.3l13.2,0.5l6.8,0.6V92.4z"/>
<path class="st9" d="M182.7,96.4l1.5,0.1l1,0v-4.1l-2.5,0V96.4z"/>
<path class="st6" d="M150.5,106.5l-15.7,0.1l-7.1-0.2l-2.4-1l-0.3,0.1l-5.8-0.3l-7.3,0.3l-10.9,0.5l-0.9,3.4l22.6,2.3l16.5-1
	l8.9-0.7l2.4,0.2V106.5z"/>
<path class="st9" d="M154.2,109.1l-0.5,1.6l9.9,1v-1.1l-2.4-1.5H154.2z"/>
<path class="st9" d="M165.1,109l2.4,1l2.9-0.5l-0.6-2.7l-4.9-0.1L165.1,109z"/>
<path class="st6" d="M183.1,113.5l3.9,0.3l0.1-6.5l-3-0.2l-1.4,0L183.1,113.5z"/>
<path class="st7" d="M216.5,120.6l-24.8-1.3l-27.3-1.5h-12.1l-1.5,1.3l5.4,2.1l7-0.1l34.6,0.5l19.3,0.3L216.5,120.6z"/>
<path class="st9" d="M227.8,128l-5.4,1.2l-8.8,0.5l-0.1,3.6l12.6-0.9l3.8-2.5l1-4.2L227.8,128z"/>
<path class="st3" d="M65.8,39.6l0.1,1h4.8l0.4-1.1L65.8,39.6z"/>
<path class="st3" d="M67.2,42.3l0.3,1.4l7.3,0.4v-1.1l-0.6-0.8L67.2,42.3z"/>
<path class="st3" d="M79.5,42.9l0.9,1h2.9l0.1-1.3L79.5,42.9z"/>
<path class="st3" d="M75.2,39.6l0.1,1h1.9v-1H75.2z"/>
<path class="st3" d="M60.4,46.3l-0.1,1l7.8,0.4v-1.6l-6.7-0.4L60.4,46.3z"/>
<path class="st3" d="M82.5,48.8v1.3l9.2,0.6l0.4-2l-2.9-0.3L82.5,48.8z"/>
<path class="st3" d="M66.8,52.6V54l8.9,0.6V53l-3.5-0.9L66.8,52.6z"/>
<path class="st3" d="M74.3,33.5v1.4l5.7-0.1l-0.2-1.4L74.3,33.5z"/>
<path class="st10" d="M95.2,2.9L95.8,15l0.5,16.8l0.3,2.8l14.2-0.3V31l-10.6-1.2l0.3-8.8l4.8-0.2v-3.7l-5.2-0.6l-0.5-8.9l8.7-1V2.9
	H95.2z"/>
<path class="st10" d="M126.5,5.9L125,7.7l-4-1.6l-3.5,3.2l-1,10.3l3.9,8l4,0.1l1.6-2.5l0.1-3.8l-3,0.1l-0.8-4.4l9.9-0.1l0.1,2.5
	l-2.2,1.4l0.1,13.7l-0.4,2.5l-2.7-0.2l-0.6-6.9l-3.9,2.7l-4.4-1.3l-4.4-5.9l-1.2-15l3.6-10l5.3,0.3L126.5,5.9z"/>
<path class="st10" d="M133,1.1l-2.5,1.7l7,16.5v10.6l-0.1,5l3.4-0.2l1.4-16.5l8.5-16.1l-2.1-1.4l-8.4,13.1L133,1.1z"/>
<path class="st10" d="M162.6,16.5L157,18l-0.5-11.8h2.2l3.4,1.3l2.7,4.5L162.6,16.5z M168.3,12.6l-2.2-8.2L161,2.1l-7.2,1.3
	c0,0.3-0.5,9.1-0.5,9.1l0.5,15.9l0.5,6.5l4.3,0.1l-0.1-13.1l8.1-3.2L168.3,12.6z"/>
<path class="st10" d="M169.4,2.8c0.1,0.5,0.4,3.1,0.4,3.1l9.2,0.7l0.5,27.4l2.8,0.1l1.8-1.9l-1.4-25.7l8.4-0.9l-0.3-2.4l-17.7-0.8
	L169.4,2.8z"/>
</svg>
