<?xml version="1.0" encoding="utf-8"?>
<!-- Generator: Adobe Illustrator 27.2.0, SVG Export Plug-In . SVG Version: 6.00 Build 0)  -->
<svg version="1.1" id="Layer_1" xmlns="http://www.w3.org/2000/svg" xmlns:xlink="http://www.w3.org/1999/xlink" x="0px" y="0px"
	 viewBox="0 0 133 160" style="enable-background:new 0 0 133 160;" xml:space="preserve">
<style type="text/css">
	.st0{fill:#006DC1;}
	.st1{fill:#FFFFFF;}
	.st2{fill:#FF4127;}
	.st3{fill:#1D92CC;}
	.st4{fill:#D8AA4E;}
	.st5{fill:#BF882E;}
	.st6{fill:#9B7127;}
	.st7{fill:#F4BF62;}
	.st8{fill:#4C4C7F;}
	.st9{fill:#7472B2;}
	.st10{fill:#37375B;}
	.st11{fill:#705726;}
	.st12{fill:#EF880C;}
	.st13{fill:#FFEDCC;}
</style>
<path class="st0" d="M37.4,77l1.3,28.4l24.8,0.9l27.5-0.2l0.7-13.4l-1.1-18.1l-52.3-0.2L37.4,77z"/>
<path class="st1" d="M75.8,94.8l-17-11.4L42,74.3l-3.8,0l-0.6,1.9l14.9,8.4l11.9,7.2l12.9,8l11.3,6.3l2.3,0l0.1-2.1L75.8,94.8z"/>
<path class="st1" d="M90.6,74.5l-2.6,0l-17.4,9.4l-17,11.4l-14.9,8.8l0.1,1.3l3.7,0.1l9.5-5.2l13-8l12-7.2l13.9-7.8L90.6,74.5z"/>
<path class="st2" d="M90.6,75.9l-0.1-1.4l-0.4,0L70.8,84.9L53,96.7l-14.3,8.4l0,0.3l0.8,0l10.3-5.6l13.6-8.3L76.1,84L90.6,75.9z"/>
<path class="st2" d="M76.7,96.9L58.6,84.8L39.1,74.3l-0.8,0l-0.3,1l15.3,8.5L66,91.5l13.8,8.4l11.2,6.1H91l0-0.7L76.7,96.9z"/>
<path class="st1" d="M68.9,106.2l-0.2-10.4l-0.3-21.4l-7.5,0l-0.2,12.9l0.3,13.2l0.2,5.8l2.3,0.1L68.9,106.2z"/>
<path class="st1" d="M38.2,94.9l8.2-0.4l18.9,0.2l26.3,0.2l0.1-2.3l-0.4-6.6l-26,0.3H51.9l-14.1,0.3L38.2,94.9z"/>
<path class="st2" d="M38.1,93.2l6.7-0.2l22.8,0.2l24.1,0.1l0-0.6l-0.3-4.7l-23.8,0.2h-16l-13.7,0.2L38.1,93.2z"/>
<path class="st2" d="M67.6,106.2l-0.1-9.1l-0.3-22.7l-5.2,0l-0.1,12.5l0.3,15.6l0.1,3.7l1.2,0L67.6,106.2z"/>
<path class="st3" d="M23.1,0.4l-2.6,9.2c0,0-4.3,11.6-4.4,12c-0.1,0.3-2.3,9.1-2.3,9.1l4.8,1.6l10.3,0.6l0.4-1.9l-10.8-3.3l2.6-7.6
	l7.7,2.3l2.4-3.1l-8.8-4.1l3-9.1l9.5,3.2l1-3l-7.5-4.2L23.1,0.4z"/>
<path class="st3" d="M41.8,7l-4,10.6l-4.3,11.8l-2.6,7.5l2.6,1.5l4.4-9.7l3.8,9.2l-0.5,3.5l3,0.9l12.1-30l-2.6-1.3l-7.2,15.9
	l-2.8,6.1L40,23.7l4.5-15.6L41.8,7z"/>
<path class="st3" d="M66.8,23.6l2.5,0.9l0.7-4.7l-2.5-2.5l-4.7-0.1l-7.5,7.5l-3.5,9.1l-1,8.8l2.1,3.7l4.9,0l1.9-1.3l-1.9,6.3
	l2.3,0.7L65,39.3l2.9,1.2l0.8-2.5l-8.6-3.2l-0.5,1.6l2.3,1.9l-1.8,4L56.4,43l-1.6-3.4l2.8-8.9l4.5-9l3.1-1.3l1.4,1L66.8,23.6z"/>
<path class="st3" d="M78.8,21.2l-4,10.3l-5.1,12.5l-2.7,6.9l6.4,3.9l4.2,1.3l3-7.2l-2-1l-2.3,4.6l-4.4-2.8l10.3-27L78.8,21.2z"/>
<path class="st3" d="M88.5,47.8l7.6-11.2l-3.4,13.1L88.5,47.8z M100.1,35.1l0.8-5.4l-2.8-0.9l-8.8,11.9l-7.6,12.3l-2.4,4l1.8,0.8
	l5-6.5l5.5,3L90.9,62l2.5,0.5L100.1,35.1z"/>
<path class="st3" d="M110.1,31.2l-6.4,13.4l-6.7,18.7l3.3,0.4l3.4-7.1l4.8,9.7l2.5,0.8l11-29.5l-2.2-1l-4.9,10.1l-5,13.5l-4.3-9
	l6.9-18.6L110.1,31.2z"/>
<path class="st3" d="M124.2,65.5l-6.6,2.7l4.1-8.5l5.6-12.7l1.6,1.1l1.1,4.8l-1.8,6.9L124.2,65.5z M131.5,47l-3-5.1l-3.3-1.6
	l-6.4,16.3l-5.6,14.9l5.1,0.5l9.5-5.3l4.3-9.1L131.5,47z"/>
<path class="st4" d="M2.3,72.3L3,78.9v18.2l0.3,18.5l0.3,16l0.9,14.3l-0.1,11.9l18.5,1.6l7.6-0.7l0.8-23.7l-1.1-17l-0.5-16.9
	l-0.9-26l-5.1-3.6L2.3,72.3z"/>
<path class="st5" d="M29.6,101.2l-0.9-26L24.1,72l0.8,9.5l-0.3,16l0.8,26.6v16.7l0.1,10.7l0.2,7.7l4.5-0.4l0.8-23.7l-1.1-17
	L29.6,101.2z"/>
<path class="st5" d="M3,78.9v18.2l0.3,18.5l0.3,16l0.9,14.3l-0.1,11.9l4.4,0.4l-0.3-27.1L8,100.4L7,81l-0.3-8.8l-4.5,0.2L3,78.9z"/>
<path class="st5" d="M26,73.3l-1.4-1L26,73.3z"/>
<path class="st5" d="M25.6,151.5l-0.1-10.7v-16.7l-0.8-26.6l0.3-16L24.1,72l-0.6-0.5l-3.3,0.1L21.1,85l-0.3,21l0.9,26.6l0.5,26.8
	l0.6,0l3.1-0.3L25.6,151.5z"/>
<path class="st6" d="M27.4,145.4L26.9,121l-0.5-31.3l0.4-15.9L24.1,72l0.8,9.5l-0.3,16l0.8,26.6v16.7l0.1,10.7l0.2,7.7l1.6-0.1
	L27.4,145.4z"/>
<path class="st6" d="M31.2,135l-1.1-17l-0.5-16.9l-0.9-26l-0.4-0.3v4.5l0.1,16.6l0.3,23.3l0.9,28.2l0.2,11.4l0.6-0.1L31.2,135z"/>
<path class="st6" d="M23.8,143.6l-0.3-19.1l-0.3-11.5l-0.4-12.1l-0.1-13.1l-0.3-16.1l-0.4,0l0.2,9.7v15.6l0.5,16.5l0.3,14.7
	l0.5,21.1l0.1,10.1l0.4,0L23.8,143.6z"/>
<path class="st6" d="M6.7,158v-15.3l-0.4-18.9l-0.4-17.9L5.6,94.8L5.1,79.3v-7.1l-0.7,0l0.2,6.3l0.9,23.6l0.1,10.5l0.4,12l0.4,19
	L6.1,158L6.7,158z"/>
<path class="st5" d="M2.5,79.6H11l14.2-0.1l4.1,2.3v2.9l-4.5-2.3l-5.7-0.8L8,81.4l-5.4,0.4L2.5,79.6z"/>
<path class="st6" d="M24.6,82.3l0.3,0l4.5,2.3v-2.9l-4.1-2.3L24.6,82.3z"/>
<path class="st7" d="M11,79.6H2.5l0,1.1l9.4-0.2l8.7,0.1l4,0.5l4.6,2.4v-1.7l-4.1-2.3L11,79.6z"/>
<path class="st5" d="M24.9,81.2l4.5,2.4v-1.7l-4.1-2.3L24.9,81.2z"/>
<path class="st7" d="M2.5,95.7v1l22.2-0.8l5.4,1.7v-1.2l-5.4-1.9L2.5,95.7z"/>
<path class="st4" d="M24.2,95.8l0.5,0l5.4,1.7v-1.2l-5.4-1.9l-0.5,0V95.8z"/>
<path class="st7" d="M2.3,99.8L25,99l4.9,1.6v0.9L25,100l-22.4,0.5L2.3,99.8z"/>
<path class="st4" d="M24.5,99v1l0.5,0l4.9,1.5v-0.9L25,99L24.5,99z"/>
<path class="st7" d="M2.7,113.6l-0.2,0.6l22.3-1.4l5.7,1.2l-0.1-0.7l-5.6-1.6L2.7,113.6z"/>
<path class="st7" d="M2.7,116.2l22.1-1.4l5.4,0.7v0.8l-5.4-0.4l-22,0.9L2.7,116.2z"/>
<path class="st4" d="M24.8,111.7l-0.2,0l0.2,1.2l0.1,0l5.7,1.2l-0.1-0.7L24.8,111.7z"/>
<path class="st4" d="M24.6,114.8l0.1,1.2l0.1,0l5.4,0.4v-0.8l-5.4-0.7L24.6,114.8z"/>
<path class="st7" d="M3.2,133.1l20.2-0.4l2.2,0l5.6,0.4l0.2,0.8l-5.9-0.3l-22.2,0.4L3.2,133.1z"/>
<path class="st7" d="M3.4,136.6l-0.1,0.8l22.3,0.2l5.7,0l0.1-0.8l-5.9-0.6L3.4,136.6z"/>
<path class="st4" d="M25.7,132.7l-0.4,0l0,0.9l0.3,0l5.9,0.3l-0.2-0.8L25.7,132.7z"/>
<path class="st4" d="M25.2,136.2l0,1.4l0.3,0l5.7,0l0.1-0.8l-5.9-0.6L25.2,136.2z"/>
<path class="st6" d="M7.6,74.9l0,2.9L9,78.1l0.2-2.3l-0.4-1.1l-0.8-0.2L7.6,74.9z"/>
<path class="st6" d="M10,75.1l0.2,2.9h1.4l0.1-2.5l-0.7-1L10,75.1z"/>
<path class="st6" d="M12.9,75.3l0.1,2.5l1.5-0.1l0.2-1.8l-0.6-1.3l-0.6-0.2L12.9,75.3z"/>
<path class="st6" d="M15.6,75.2l0.2,1.9l0,0.6l1.5-0.1l0-1.8L17,74.6l-0.6-0.1L15.6,75.2z"/>
<path class="st6" d="M18.1,75.3l0.1,2.2h1.3l0-2.7l-0.8-0.6l-0.5,0.3L18.1,75.3z"/>
<path class="st6" d="M9.9,82.9l0.7,0l0.1,5.3l0.1,5.3l-0.6,0L10,88.1L9.9,82.9z"/>
<path class="st6" d="M11.7,82.8L12,93.3l0.8,0l-0.2-10.4L11.7,82.8z"/>
<path class="st6" d="M16.3,82.9l0.4,10.5l0.7-0.1l-0.2-10.6L16.3,82.9z"/>
<path class="st6" d="M18.3,82.6c0,0.1,0.2,10.6,0.2,10.6l0.5-0.1l-0.1-10.4L18.3,82.6z"/>
<path class="st6" d="M9.9,101.8l0.3,10l0.8-0.1l-0.3-10L9.9,101.8z"/>
<path class="st6" d="M12.2,101.5l0.6,10.2l1-0.1l-0.6-10.2L12.2,101.5z"/>
<path class="st6" d="M16.3,101.1l0.4,10l0.7,0l-0.4-9.9H16.3z"/>
<path class="st6" d="M18.3,101.1l0.3,9.9l0.6-0.1l-0.3-9.8L18.3,101.1z"/>
<path class="st6" d="M10.4,118.6l0.4,13.1l0.6-0.1l-0.3-13.1L10.4,118.6z"/>
<path class="st6" d="M12.3,118.4l0.4,13.3h0.6l-0.3-13.5L12.3,118.4z"/>
<path class="st6" d="M16.8,118.5l0.1,12.8l0.5,0v-12.8H16.8z"/>
<path class="st6" d="M18.5,118.3l0.4,13.3l0.8-0.2L19.3,118L18.5,118.3z"/>
<path class="st6" d="M11,139.5l-0.1,13.7l0.8,0l0.2-13.8L11,139.5z"/>
<path class="st6" d="M13,139.4l0.2,14.5h0.6l0.1-14.4L13,139.4z"/>
<path class="st6" d="M16.9,139.6l0,14.6l0.9-0.2l-0.1-14.3L16.9,139.6z"/>
<path class="st6" d="M19.3,139.3L19,154.3l1.1-0.4l-0.2-14.6L19.3,139.3z"/>
<path class="st4" d="M28.1,126.5l0.1,3.6l0.2,14.4l0.4,14.6l7.4-0.1l9.2-0.8l7.7-0.7l3.9,0.5l0.5-1l-0.9-32.4l-14.4-0.1l-10.7,0.5
	l-3.6,0.5L28.1,126.5z"/>
<path class="st5" d="M42,147.8L41.8,137l-0.1-12.6l-2.1,0.1l0.2,6.1l0.5,7.8l0.1,9.4l0.3,3.9l-0.2,5.2l0.1,1.8l1.7-0.1L42,147.8z"/>
<path class="st7" d="M57,136.3l-16,0.8l-5.1,0.1l-7.6-0.3l0,3.1l12.5-0.8l0.5,0.7l15.7-0.7L57,136.3z"/>
<path class="st6" d="M44.2,156.7l-15.4,1.2l0,1.2l7.4-0.1l9.2-0.8l7.7-0.7l3.9,0.5l0.5-1l0-0.2l-5.9-0.2L44.2,156.7z"/>
<path class="st6" d="M56.6,124.4l-14.4-0.1l-10.7,0.5l-3.6,0.5l0.1,1l0,0.1l5.6-0.5l5.1,0.1h4.8l13.1-0.1L56.6,124.4z"/>
<path class="st8" d="M27.7,116.4v9.3l3-0.2l11.5-0.4l14.8,0.1l-0.9-10.1l-8.8-0.1l-13.8,0.4l-5.5,0.3L27.7,116.4z"/>
<path class="st5" d="M46.5,118.6l-0.7,0.5l-3.1,4.7l-6.5,0.3l-8.6,0.9v0.8l3-0.2l11.5-0.4l14.8,0.1l-0.1-1.1l-6.7-0.4L46.5,118.6z"
	/>
<path class="st5" d="M39.6,124.2l2.2-0.1l0.1-6l-2.7,0.1L39.6,124.2z"/>
<path class="st5" d="M39.6,112v6.4h1.8l0.1-6.8L39.6,112z"/>
<path class="st5" d="M40.3,108.5l-0.9,3.7l2.6-0.1L40.3,108.5z"/>
<path class="st9" d="M35.4,115.3l0.4,8.1h0.6l0.1-8.2L35.4,115.3z"/>
<path class="st9" d="M32.7,115.5l1.1,8.4l1.3-0.2l-0.8-8.2l-0.8,0L32.7,115.5z"/>
<path class="st10" d="M32.1,124l0.6-0.1l-0.7-8.4l-0.9,0L32.1,124z"/>
<path class="st10" d="M44,121.3l0.7-1.5l-0.5-4.8l-1.4,0L44,121.3z"/>
<path class="st9" d="M51,123.2l1.3,0.1l-0.4-8.3l-2.7,0L51,123.2z"/>
<path class="st9" d="M53.3,123.5l1.1,0.1l-0.6-8.5l-1.4,0L53.3,123.5z"/>
<path class="st10" d="M55,123.4h0.6l-0.6-8.4l-0.7,0L55,123.4z"/>
<path class="st6" d="M32.7,128.6l0.2,7.3h0.8l0.4-7l-0.6-0.8L32.7,128.6z"/>
<path class="st6" d="M35,129.1l0.3,7l1.2-0.1l-0.2-6.7l-0.3-0.7l-0.5,0.1L35,129.1z"/>
<path class="st6" d="M37.5,129.5l0.1,6.4h1.1v-6.7l-0.7-0.7L37.5,129.5z"/>
<path class="st6" d="M44,129.6l0.3,6l0.7-0.1l0.1-6l-0.5-1l-0.4,0.1L44,129.6z"/>
<path class="st6" d="M46.7,129.8l0.3,5.3l1.3-0.3l-0.5-6.2l-0.6-0.2L46.7,129.8z"/>
<path class="st6" d="M49.7,134.7h1.5l-0.1-6.1l-1.2-0.5l-0.3,1L49.7,134.7z"/>
<path class="st6" d="M33.1,153.1l1.3-0.2v-8.2l-0.2-2.3l-1.1,0.1l-0.1,1.3L33.1,153.1z"/>
<path class="st6" d="M36,153h1.1l-0.1-8.8l-0.5-1.8l-0.9,0.3l-0.5,1.8l0.3,8.5L36,153z"/>
<path class="st6" d="M38.2,152.7l1-0.1l0.1-9.6l-0.9-1.1l-0.4,0.7L38.2,152.7z"/>
<path class="st6" d="M43.6,152.5l1.1-0.2v-5.5l0.2-4.2l-0.5-0.9l-0.7,0.2v2.6L43.6,152.5z"/>
<path class="st6" d="M46.3,152.3H48l-0.2-8.7l-0.3-1.8l-1-0.3l-0.4,1.5L46.3,152.3z"/>
<path class="st6" d="M49.4,152.3l1.3-0.4l-0.1-10.3l-0.7-0.9L49,141L49.4,152.3z"/>
<path class="st5" d="M53.2,157.4l1.2,0.1l0.1-5.3l-0.1-15.4l-0.1-10.4l-2,0.3l0.1,6.3l0.3,17.1l-0.1,7.4L53.2,157.4z"/>
<path class="st4" d="M8.1,34.4v2.2l0.3,4.9l10.9-0.1l3.6,2.6l0.4-7.5l-5-2.3L8.1,34.4z"/>
<path class="st5" d="M19.4,41.4l3.5,2.5l0.4-7.5l-4.2-1.9L19.4,41.4z"/>
<path class="st8" d="M8.5,33.1l3.7-6.8l1.6-5.9l0.4-3.9l0.9-0.2l1.3,2.1l1.9,8l2.1,6.2l3.1,3l-4.8-2.1L7.9,33.8L8.5,33.1z"/>
<path class="st10" d="M23.4,35.5l-3.1-3l-2.1-6.2l-1.9-8l-1-1.6l0.6,4.1l0.7,5.4l1.6,5.3l0.6,2L23.4,35.5z"/>
<path class="st8" d="M7.1,33.3l11.6-0.6l5.6,2.6l-1,1.9l-4-2L8,35.3H7.4L7.1,33.3z"/>
<path class="st10" d="M19,35.2l0.3,0l4,2l1-1.9l-5-2.3L19,35.2z"/>
<path class="st9" d="M24.3,35.3l-5.6-2.6L7.1,33.3l0.1,1l6.2-0.4l5.7,0.2l4.7,2.1L24.3,35.3z"/>
<path class="st8" d="M24.3,35.3l-5-2.3l-0.2,1.2l4.7,2.1L24.3,35.3z"/>
<path class="st5" d="M10.3,31.6l0.5-1.2l0.6,1.3L10.3,31.6z"/>
<path class="st5" d="M13.4,31.5l0.5-1.1l0.9,1.3L13.4,31.5z"/>
<path class="st5" d="M16.5,30.1l-0.4,1.2l1.1,0.2L16.5,30.1z"/>
<path class="st5" d="M12.6,27.9L12.2,29h0.7L12.6,27.9z"/>
<path class="st5" d="M14.9,27.4l-0.1,1.1l0.8-0.1L14.9,27.4z"/>
<path class="st5" d="M14.3,23.4l-0.6,1.4l1,0.1L14.3,23.4z"/>
<path class="st6" d="M17.6,39.9l-0.1-2.6v-1.2l-1.1-0.1L15.9,37l0.1,2l0.1,2.4l1.6,0V39.9z"/>
<path class="st6" d="M15.2,41.4l-0.1-3.6L14.9,36h-1l-0.4,1.6l-0.1,3.8L15.2,41.4z"/>
<path class="st6" d="M12.5,36.7l-0.6-0.7l-0.5,0.7v2.3l0.2,2.3l1.5,0L12.5,36.7z"/>
<path class="st6" d="M10.6,41.4l0.1-4.1L10.3,36H9.7l-0.3,1.2l-0.1,4.2L10.6,41.4z"/>
<path class="st5" d="M2.8,50.9v6.3l20,0.1l4.6,2.3l0.3-5l-4.7-5.1L4.7,50L2.8,50.9z"/>
<path class="st6" d="M22.7,57.2L22.7,57.2l4.6,2.3l0.3-5l-4.7-5L22.7,57.2z"/>
<path class="st11" d="M6,52.2l-0.1,3.5l0.8-0.3l0.2-3.2H6z"/>
<path class="st11" d="M7.8,52.1L8,55.3l0.7-0.1l-0.1-3.2H7.8z"/>
<path class="st11" d="M9.8,52l0.1,3.2l0.7-0.1l0.1-3.1L9.8,52z"/>
<path class="st11" d="M11.6,52.1l0.1,2.8h1l0.1-2.8L11.6,52.1z"/>
<path class="st11" d="M13.5,52l0.1,2.8l1.2-0.1l-0.1-2.9L13.5,52z"/>
<path class="st11" d="M16.1,51.9l-0.2,2.8h1.3l-0.1-2.8L16.1,51.9z"/>
<path class="st11" d="M18,51.8v2.8h1.1v-3L18,51.8z"/>
<path class="st9" d="M7.8,41.6l-3.1,3.2l-2.9,4.9l11.9-1l9,0.4l4.1,3.6l-3-8.5l-4.4-2.3l-2.2-0.2L7.8,41.6z"/>
<path class="st8" d="M23.9,44.2L19.7,42l3.1,7.1h0l4.1,3.6L23.9,44.2z"/>
<path class="st6" d="M1,49l7.8-0.5l7.6-0.3l5.7,0.3l0.7,0.1l4.9,4.1l0.4,2.5l-0.9-0.1l-4.3-4.3l-6.1-0.6L6.4,50.6l-3.7,0.8L1.4,51
	L1,49z"/>
<path class="st11" d="M23,48.8l-0.3,2.1l0.2,0l4.3,4.3l0.9,0.1l-0.4-2.5L23,48.8z"/>
<path class="st5" d="M27.7,52.8l-4.9-4.1l-0.7-0.1l-5.7-0.3l-7.6,0.3L1,49l0.2,1.2L7,49.7l8.5-0.5l5.5,0.3l1.7,0.3l5.3,4.9
	L27.7,52.8z"/>
<path class="st6" d="M22.8,50l5.2,4.8l-0.3-2.1l-4.8-4L22.8,50z"/>
<path class="st8" d="M7.3,40.7l0.3,1.4l12.2,0.5l4,2.2l0.1-2l-4.5-2.4L7.3,40.7z"/>
<path class="st10" d="M19.4,40.4l0.2,2.2l0.3,0l4,2.2l0.1-2L19.4,40.4L19.4,40.4z"/>
<path class="st4" d="M6.3,45.6l-0.5,2L7,47.6l-0.1-2L6.3,45.6z"/>
<path class="st4" d="M11,45.7l-0.2,1.8l1-0.1l-0.3-1.8L11,45.7z"/>
<path class="st4" d="M15,45.7l-0.3,1.6h1.5l-0.5-1.6L15,45.7z"/>
<path class="st4" d="M19.6,46.1l-0.5,1.3l1.1,0.1L20.1,46L19.6,46.1z"/>
<path class="st4" d="M8.8,42.9l-0.5,1.9h1.6l-0.5-2L8.8,42.9z"/>
<path class="st4" d="M13.2,43.2L13,44.9H14l-0.3-1.8L13.2,43.2z"/>
<path class="st4" d="M17.9,43.3L17.4,45l1.1,0.1l-0.1-1.8L17.9,43.3z"/>
<path class="st7" d="M0.5,56.6l4.9-0.1L20,56l3.5-0.4l6.2,5l-0.6,15.8l-4.9-4h-2L7.7,72.8l-6.1,0.5l-0.2-4.7l-0.9-8.4V56.6z"/>
<path class="st4" d="M23.8,59.9l0.3,12.6h0l4.9,4l0.6-15.8l-5.8-4.7V59.9z"/>
<path class="st4" d="M5.4,56.5l-1.5,0l0.2,4.3L4.8,73l2.8-0.2L21,72.5v-6.7l-0.1-9.9L20,56L5.4,56.5z"/>
<path class="st11" d="M4.8,57.2l0.4,10l0.4,5l8.6-0.4l5.5-0.1l0.6-10.4l-0.2-4.3h-5.8l-6.6,0.2L4.8,57.2z"/>
<path class="st5" d="M0.9,58.3L1.1,61l0.5-0.2v-2.6L0.9,58.3z"/>
<path class="st5" d="M2.3,58.1v2.5h0.5l0.1-2.4L2.3,58.1z"/>
<path class="st5" d="M1.6,66.1l0.3,2.2l0.7-0.1v-2.4L1.6,66.1z"/>
<path class="st5" d="M3.2,65.7v2.4h0.4l-0.1-2.4H3.2z"/>
<path class="st5" d="M21.5,58.3l0.1,2.4h0.5v-2.5L21.5,58.3z"/>
<path class="st5" d="M22.7,58.2v2.3l0.5,0.1l0.1-2.2L22.7,58.2z"/>
<path class="st5" d="M21.5,65.8l-0.1,2.7H22l0.3-2.9L21.5,65.8z"/>
<path class="st5" d="M22.8,65.5l-0.3,2.9l0.9-0.1l-0.2-2.5L22.8,65.5z"/>
<path class="st5" d="M25.1,73.3l2.9,2.4l-0.2-10.9l0.5-5.2L25,56.9l0.3,8.2L25.1,73.3z"/>
<path class="st12" d="M5.6,57.9l0.8,13.4l12.8-0.5L19.5,58L7.9,57.8L5.6,57.9z"/>
<path class="st13" d="M13.3,58.4l-3.6,0.4l-1.8,1.1l-1.2,2.3l-0.4,3l0.9,2.6l2.6,2l2.5,0.7l2.6-0.2l2.8-2.6l1-3.1V62l-1.9-2.5
	L15,58.8L13.3,58.4z"/>
<path class="st5" d="M13,59.6L10.9,60l-2.2,1.1l-0.8,2.2l0.3,2.9l1.5,2.1l2.4,0.9l2.9-0.4l1.7-1.8l0.7-2.7l-0.1-1.8l-1.1-1.8
	l-1.6-0.9L13,59.6z"/>
<path class="st13" d="M11.8,60.1l-1.2,0.4l-1.7,0.9l-0.5,1.5L8.2,64l0.3,1.8L9,66.7l1.2,1.5l1.7,0.6l1.3,0l1.7-0.4l1.3-1.3l0.6-1.5
	l0.4-1.6L17,62.5l-1.1-1.6L14.5,60l-1.5-0.2L11.8,60.1z"/>
<path class="st5" d="M13,61.3l-2.4,0.5c0,0-0.7,1.4-0.7,1.5s0.1,2.3,0.1,2.3l1.5,1.2l1.9,0.4l1.7-1l0.8-1.9l-0.4-1.6l-1.4-1.2
	L13,61.3z"/>
<path class="st13" d="M12.3,61.7L11,61.9l-0.8,0.7l-0.1,1.4l0.2,1.4l1,0.9l1.1,0.4l1.3,0l0.9-0.5l0.8-1.3l0.1-1.1L15,62.6l-1.1-0.8
	L12.3,61.7z"/>
<path class="st5" d="M12.4,58.8v1.5l0.3,0v-1.4H12.4z"/>
<path class="st5" d="M12.7,68.6l-0.1,1.5h0.3l0.1-1.5H12.7z"/>
<path class="st5" d="M16.7,64.2l1.9,0.1l-0.1,0.4l-1.8-0.1L16.7,64.2z"/>
<path class="st5" d="M6.7,64.2h1.9v0.4h-2L6.7,64.2z"/>
<path class="st5" d="M7.3,61.7l1.6,0.5l0.1-0.4l-1.5-0.5L7.3,61.7z"/>
<path class="st5" d="M9.4,59.3c0,0.1,1.1,1.7,1.1,1.7l0.4-0.2l-1-1.6L9.4,59.3z"/>
<path class="st5" d="M15.9,59.4L15,60.9l0.2,0.2l1-1.6L15.9,59.4z"/>
<path class="st5" d="M17.8,61.2l-1.5,1l0.3,0.4l1.4-1.1L17.8,61.2z"/>
<path class="st5" d="M9.1,66.3l-1.8,0.9l0.1,0.4l1.8-1.2L9.1,66.3z"/>
<path class="st5" d="M10.9,67.9l-0.7,1.6l0.3,0.1l0.7-1.7L10.9,67.9z"/>
<path class="st5" d="M14.7,68c0.1,0.1,1.2,1.2,1.2,1.2l0.2-0.3l-1.3-1L14.7,68z"/>
<path class="st5" d="M16,66.2l1.8,0.7l0.2-0.4l-1.8-0.8L16,66.2z"/>
<path class="st5" d="M12.7,63.6l-0.5,0.3l0.1,0.6l0.6,0l0.2-0.6L12.7,63.6z"/>
<path class="st5" d="M11.6,60.6l0.1,1.2l0.8,2.2l0.3-0.1L11.6,60.6z"/>
<path class="st5" d="M12.7,64.2l0,4h0.2L13,64L12.7,64.2z"/>
<path class="st6" d="M41,137.2l-0.8,0l0.1,1.1l0,1l0.6,0l0.5,0.7l0.4,0l-0.1-2.8L41,137.2z"/>
<path class="st6" d="M54.4,136.9l0-0.4l-1.9,0.1l0.1,2.9l1.9-0.1L54.4,136.9z"/>
<path class="st11" d="M42.3,158.4l-0.1-1.6l-1.7,0.1l0.1,1.6L42.3,158.4z"/>
<path class="st11" d="M54.4,156.6l-1.7-0.1l0,1l0.5-0.1l1.2,0.1L54.4,156.6z"/>
<path class="st5" d="M52,124.3l2.2-0.1l0.1-6l-2.7,0.1L52,124.3z"/>
<path class="st5" d="M52,112.1v6.4h1.8l0.1-6.8L52,112.1z"/>
<path class="st5" d="M52.7,108.6l-0.9,3.7l2.6-0.1L52.7,108.6z"/>
</svg>
