<?xml version="1.0" encoding="utf-8"?>
<!-- Generator: Adobe Illustrator 27.2.0, SVG Export Plug-In . SVG Version: 6.00 Build 0)  -->
<svg version="1.1" id="Layer_1" xmlns="http://www.w3.org/2000/svg" xmlns:xlink="http://www.w3.org/1999/xlink" x="0px" y="0px"
	 viewBox="0 0 162 155" style="enable-background:new 0 0 162 155;" xml:space="preserve">
<style type="text/css">
	.st0{fill:#7C6E6A;}
	.st1{fill:#36312E;}
	.st2{fill:#473D38;}
	.st3{fill:#C4B7B3;}
	.st4{fill:#FFFFFF;}
	.st5{fill:#006DC1;}
	.st6{fill:#FF4127;}
	.st7{fill:#1D92CC;}
</style>
<path class="st0" d="M27.7,12.6l1.8-2.2l0.6-2.2l0.1-7.8L30.7,0l0.5,8.3l0.9,1.9l2.4,2.5L27.7,12.6z"/>
<path d="M35.5,121.2l-10.6,0.1l2.3-9.2l2-9.3l1-6.3l0.6-3l2.4,0.3h2.3l2.4,12.5l4.2,15L35.5,121.2z M68.1,151.3L60.5,137l-7.4-18.9
	l-6.4-18.2l-3.4-16.5l-3.4-24.2l-2.3-23.3L37.3,19l-0.4-2.3l-11,0.4l0.1,7.4l0.1,16.9L26,47v7.2l-0.9,12.7L24,81.8l-2.4,13.3
	l-2.7,12.6l-4.3,11.9l-5.4,16.2l-7.9,14.6l-0.7,2.1l1,1l13.9,0.4l1.4-5.7l2.6-6.4l7.4-6l6.4-2.1l4.7,0.4l3.4,1.6l6,3.6l3,3.6
	l3.9,10.9l8.9,0.4l5.4-1.1L68.1,151.3z"/>
<path class="st1" d="M53.8,147.3l-3.6-7.2l-4.3-4.2l-3.9-2.4l-5.9-1.9l-6.3,0.1l-6.6,2.7l-6.4,8.3L13.8,154l1.6,0.1l1.4-5.7l2.6-6.4
	l7.4-6l6.4-2.1l4.7,0.4l3.4,1.6l6,3.6l3,3.6l3.9,10.9l1.4,0.1L53.8,147.3z"/>
<path class="st0" d="M24.9,121.4l2.3-9.2l2-9.3l1-6.3l0.6-3l0.8-9.2l0.6-13.7l0.7-12.5l-0.6-12.4l-0.7-15.6l-0.4-13.3l-5.2,0.2
	l0.1,7.4l0.1,16.9L26,47v7.2l-0.9,12.7L24,81.8l-2.4,13.3l-2.7,12.6l-4.3,11.9l-5.4,16.2l-7.9,14.6l-0.7,2.1l1,1l13.9,0.4l1.4-5.7
	l2.4-6l0.8-3.8l4.2-13.7l0.8-3.4L24.9,121.4z"/>
<path class="st0" d="M54.4,153.7l8.9,0.4l5.4-1.1l-0.6-1.7L60.5,137l-7.4-18.9l-6.4-18.2l-3.4-16.5l-3.4-24.2l-2.3-23.3L37.3,19
	l-0.4-2.3l-4.9,0.2l0.9,16.6l0.4,16.9l0.6,11.6l0.4,12.2l0.4,10.1l0.9,8.6l-0.1,1.1h0l2.4,12.5l4.2,15l-0.1,0l0.9,1.5l3.5,9.9
	l2.4,5.4l1.1,3.8l0.7,0.9L54.4,153.7z"/>
<path d="M63.4,154.1l-2.3-3.1l-2.9-5.7L53,133.9l-3.7-10.2l-3.7-9.8l-2.8-10l-2.2-9.6l-1.8-12.9l-1.3-14.8l-1.2-15.8l-0.7-13.9
	l-0.5-11v-9l-0.6,0l0.2,8.5l0.4,16.9L36.5,63l1.3,15.5l2.3,15.9l3.1,14.3l5.2,14.5l4.9,12.9c0,0,6.2,13.5,6.2,13.8
	c0,0.2,1.8,2.7,3,4.2l0.9,0L63.4,154.1z"/>
<path class="st1" d="M28.4,26.8l1.1,16.5l-0.8,19.6L28.1,76l-1.9,15.8L23.3,106l-5.8,19.1l-5.3,16.6l-5,12.1l1.2,0l1-3.1l3.8-9.5
	l3.2-9.6l3.6-12.8l3.4-10.9l1.7-9.1l1-4.2l0.6-2.7l0.7-5.4l1.1-10l0.5-8.9l0.4-10.7L30,45.5l-0.1-4.8l-0.7-10.9L28.8,17L28,17
	L28.4,26.8z"/>
<path class="st1" d="M12.4,120.5l-0.1,5l6.7,0.6l13,0.3l13-0.4l10.7-0.6v-4.6l-16.9-0.4h-8.4L12.4,120.5z"/>
<path class="st2" d="M45.3,123.5l-13.9,0.3l-19.1-0.4l-0.1,2.1l6.7,0.6l13,0.3l13-0.4l10.7-0.6v-1.7L45.3,123.5z"/>
<path class="st3" d="M22.4,121.2l15.2,0.1l18.2,0.7v-1.3l-16.9-0.4h-8.4l-18,0.1l0,0.8L22.4,121.2z"/>
<path d="M15.3,125.8l1.6,0.1l0.3-2.4l-1.7,0L15.3,125.8z"/>
<path d="M19.8,126.1l2.1,0l-0.1-2.6l-2,0L19.8,126.1z"/>
<path d="M22.8,126.2l1.2,0l0.2-2.6l-1.3,0L22.8,126.2z"/>
<path d="M27.3,126.3l1.7,0v-2.6l-1.8,0L27.3,126.3z"/>
<path d="M34,126.3l2-0.1l-0.1-2.5l-1.8,0V126.3z"/>
<path d="M36.5,126.2l1.6-0.1v-2.5l-1.6,0L36.5,126.2z"/>
<path d="M42.7,126l2-0.1l-0.1-2.4l-2.1,0L42.7,126z"/>
<path d="M50.5,125.7l0.1-2.1l-2.2,0l0.2,2.2L50.5,125.7z"/>
<path d="M53.7,125.5l0.2-1.9l-2.4,0l0.4,2L53.7,125.5z"/>
<path class="st1" d="M54.5,126.9l-8,0.6l-19.8,0.3l-14.5-1.2l-1.6,4.6l6.8-0.1l18.8-0.4l21.8-0.1l-1.2-3.1L54.5,126.9z"/>
<path class="st3" d="M56.8,127.5l-2.3-0.5l-8,0.6l-2.1,0l1.1,3.1l12.5-0.1l-0.7-1.7L56.8,127.5z"/>
<path class="st1" d="M21.9,93.1l11.6,0.1l4.9,0.4l6.8-0.4L44.6,90l-22-0.1L21.9,93.1z"/>
<path class="st3" d="M31.1,90l-8.5,0l-0.6,3.2l8.8,0.1L31.1,90z"/>
<path class="st3" d="M44.7,90.7L44.6,90l-9.3,0l0.3,2.8l0,0.5l2.9,0.2l6.8-0.4L44.7,90.7z"/>
<path class="st1" d="M22,85.6L21.7,89h6.6l17,0.3v-3.7H31.6H22z"/>
<path class="st3" d="M22,85.6l-0.1,0.6l6.2,0.5l17.2-0.1v-1H31.6H22z"/>
<path d="M45.3,89.3v-0.9l-13-0.3l-10.5-0.3L21.7,89h6.6L45.3,89.3z"/>
<path class="st0" d="M22.9,131.4l1.1-0.1l1.8,3.6l-1,0.3L22.9,131.4z"/>
<path class="st0" d="M22,133.3l-0.3,0.7l2,2l0.4-0.6L22,133.3z"/>
<path class="st0" d="M43.2,131.2l-1.4,2.7l0.4,0.3l2.3-2.9L43.2,131.2z"/>
<path class="st0" d="M45.3,132.6l-2.2,2.4l1.7,0.9l1.4-2.2L45.3,132.6z"/>
<path class="st0" d="M41.9,131.1l-1,2.3l-0.9-0.1l0.6-2.2H41.9z"/>
<path d="M8.2,139.9l7.5,0.8l1.9,0.4l-1.2,1.1l-9.4-1.1L8.2,139.9z"/>
<path d="M4.1,146.1l-0.5,1.1l10.8,1.3l0.1-1.1L8,146.9L4.1,146.1z"/>
<path d="M8,139.2l5.5-2.6l-0.3,0.9l-4.6,2.1L8,139.2z"/>
<path d="M10.9,132.5l2.4,3.3l0.4-0.8l-2.1-3.4l-0.5,0.1L10.9,132.5z"/>
<path d="M15.6,136.4L21,132l-0.2,0.8l-1.7,2l-3.3,2.1L15.6,136.4z"/>
<path d="M15.1,137.2l-0.3,0.9l2.3,2.4h0.8l0.4-0.8L15.1,137.2z"/>
<path class="st1" d="M49.7,137.6l0.3,1.2l10.1-1.1l-0.3-0.7L49.7,137.6z"/>
<path class="st1" d="M54.9,147l0.6,1.1l8.4-3l-0.9-1.1L54.9,147z"/>
<path class="st1" d="M56.1,149.9l0.4,0.9l9.5-1.8l-0.6-1.1L56.1,149.9z"/>
<path class="st1" d="M57.8,152.7l0.1,0.5l10.1-1.1l-0.4-0.7L57.8,152.7z"/>
<path d="M51.5,134.5l-2.1,2.5l0.5,1h1.1l1-2.6L51.5,134.5z"/>
<path d="M46.9,131.2l-0.4,0.4l5.4,3.7l0.2-0.6L46.9,131.2z"/>
<path d="M53.4,133.3l0.3,0.6l3.3-2.8l-1.3,0L53.4,133.3z"/>
<path d="M54.1,134.4l-0.1,0.7l5.3,1.4v-0.9L54.1,134.4z"/>
<path class="st1" d="M41.7,117.3l0.2,0.8l10.5,0.1L52,117l-3.2,0.2L41.7,117.3z"/>
<path d="M39.5,108.5l0.2,0.8L43,109l3.2-0.2l2.9,0l-0.5-1l-6,0.2L39.5,108.5z"/>
<path d="M37.3,100.2l0.1,0.7h3.1l5.6-0.1l-0.1-0.7l-5.9,0.1H37.3z"/>
<path class="st1" d="M38.9,101.4l-0.4,0.4l5.5,4.1l3.7,1.4l0.3-0.6l-4.3-2.6l-4.2-2.4L38.9,101.4z"/>
<path d="M45.5,101.5l-5.5,6l0.2,0.3l6.1-6.2L45.5,101.5z"/>
<path class="st1" d="M36.4,95l3.7,1.7l0.4-0.6l-3.8-2.2L36.4,95z"/>
<path d="M21.2,99.3v0.8l5.2,0.4l2.3,0.1l0.1-0.6L21.2,99.3z"/>
<path class="st1" d="M19.6,107.8l-0.5,1.2l3.2,0.3h4.9l0.1-0.9l-3.2-0.1L19.6,107.8z"/>
<path class="st1" d="M16.6,115.6l0,1l3.8-0.1c0,0,4.6-0.7,4.8-0.8c0.2,0,0.3-1.1,0.3-1.1L16.6,115.6z"/>
<path d="M23,105.2l-3.3,2.5l0-1l3-2.1L23,105.2z"/>
<path class="st1" d="M25,103.5l0,0.8l3.5-2.7l-0.4-0.5L25,103.5z"/>
<path class="st1" d="M24.7,104.8l-0.3,0.7l2.2,2.3l0.7,0.1l0.2-0.9L24.7,104.8z"/>
<path d="M26,97.2l-0.1,0.7l2.9,1.6l0.3-0.8L26,97.2z"/>
<path class="st1" d="M26.3,96.1l-0.2,0.5l0.9,0.2l3-2.3l0-0.7l-0.9-0.2L26.3,96.1z"/>
<path d="M22.2,94.4c0.1,0,2.3,2,2.3,2l0.3-0.6l-2.4-2.2L22.2,94.4z"/>
<path class="st1" d="M25.5,69.8l-0.1,0.8l2.7,0l3.3-0.6l-0.1-0.9L25.5,69.8z"/>
<path class="st1" d="M24.8,78.7v1.2h6.3l-0.1-1L24.8,78.7z"/>
<path class="st1" d="M24.4,82.1l0,0.8l6.2-0.1l0.1-1L24.4,82.1z"/>
<path class="st1" d="M34.7,68.3l0,1.1l5.7,0v-0.9L34.7,68.3z"/>
<path class="st1" d="M26.4,59.5l0,0.7l5.8-0.5l0-0.8L26.4,59.5z"/>
<path d="M34.5,58.7v0.9l4.8,0.1l-0.1-0.8L34.5,58.7z"/>
<path class="st1" d="M26.5,47.7l0.1,0.8l5.1-0.3l0-0.8L26.5,47.7z"/>
<path class="st1" d="M33.8,47.3v0.9l4.2,0.2v-0.7L33.8,47.3z"/>
<path class="st1" d="M26.6,38.3l4.7,2.5l-0.1-0.5l-4.4-2.9L26.6,38.3z"/>
<path class="st1" d="M31.6,49l-2.2,1.6l0.2,0.8l2.2-1.6L31.6,49z"/>
<path class="st1" d="M26.6,34.9l0.1,1l4.6-0.1l0.1-0.6L26.6,34.9z"/>
<path d="M33.3,35.1l0,0.6l3.7,0.1l-0.1-0.7L33.3,35.1z"/>
<path d="M33.3,34l0.3,0.5l3.2-2.7l-0.3-0.5L33.3,34z"/>
<path d="M33.2,30.4l0.1,0.7l3.4,0l0-0.6L33.2,30.4z"/>
<path class="st1" d="M26,24.5l0,0.7c1.2,0,4.7,0.2,4.8,0.2c0.1,0,4.9-0.5,6.5-0.6L37.3,19l-0.4-2.3l-11,0.4L26,24.5z"/>
<path d="M26.7,25.3c0.3,0,0.5,0,0.8,0l0.3-8.3l-1.1,0L26.7,25.3z"/>
<path d="M29.6,25.4c0.4,0,0.7,0,1,0l-0.3-8.5l-1.1,0L29.6,25.4z"/>
<path d="M31.8,25.3c0.2,0,0.5,0,0.8-0.1l-0.2-8.4l-0.9,0L31.8,25.3z"/>
<path d="M33.8,25.1c0.3,0,0.6-0.1,0.9-0.1l-0.3-8.3l-1.1,0L33.8,25.1z"/>
<path d="M35.9,24.9c0.3,0,0.5,0,0.8-0.1l-0.2-8.2l-0.7,0L35.9,24.9z"/>
<path class="st1" d="M25.3,12.4l0.4,3.3l7.3-0.3l4,0.2l-0.4-3.2L35.3,12l-9.2-0.1L25.3,12.4z"/>
<path class="st0" d="M28.1,15.6l0.4-3.7l-2.3,0l0.2,3.8L28.1,15.6z"/>
<path class="st0" d="M29.4,15.6l0.6,0L29.9,12l-0.6,0L29.4,15.6z"/>
<path class="st0" d="M33.4,15.4l0.8,0l0.1-3.5l-1,0L33.4,15.4z"/>
<path class="st0" d="M35.4,15.5l1.5,0.1l-0.4-3.2L35.3,12h0L35.4,15.5z"/>
<path class="st0" d="M24.9,15.4l0.2,2.1l7.5-0.2l5-0.1l0-2.1l-5.9-0.4L24.9,15.4z"/>
<path class="st3" d="M12.2,126.6l-1.6,4.6l6.8-0.1l4.9-0.1l1.1-3.5L12.2,126.6z"/>
<path d="M17.7,128.8l-0.1,0.9l3.9,1l0.5-0.9L17.7,128.8z"/>
<path d="M16.1,128.2l-0.3,0.9l-4.1,1.4l0.3-0.8L16.1,128.2z"/>
<path class="st0" d="M50.6,127.2l-0.7,0.1l1.2,3.3l0.7,0L50.6,127.2z"/>
<path class="st0" d="M15.6,131.1l1,0l1.1-4.1l-0.8-0.1L15.6,131.1z"/>
<path class="st4" d="M65.1,105.2l1.2,25.4l22.2,0.8l24.6-0.2l0.6-12l-1-16.2l-46.8-0.2L65.1,105.2z"/>
<path class="st5" d="M80.9,114.1l0.3-11.3l-15.2-0.1l-0.8,2.4l1.2,25.4l14.7,0.5L80.9,114.1z"/>
<path class="st6" d="M98.3,102.9l0.3,15.7v12.7l14.5-0.1l0.6-12l-1-16.2L98.3,102.9z"/>
<path class="st7" d="M53,56.2l0.1,14.7l0.5,16.9l0.1,4.5l3.6-0.7L57,77.8l6.9-0.4v-4.7l-7.4-0.6l0.1-11l10-0.3l-0.3-7L53,56.2z"/>
<path class="st7" d="M72.9,58.1l1.2-0.5l2.6,1l2.2,3.1l-0.7,3.8l-4.8,2.6L72.9,58.1z M76.2,71.2l5.7-3.1l0.9-7.3l-4.4-6.1l-5.6-0.6
	l-3.1,0.5l-0.3,17.3v20.7l3.6-0.1l0.3-17.9l9,13.1l2.5-1.8L76.2,71.2z"/>
<path class="st7" d="M90.7,75.1l3-13.4l1.8,12.7L90.7,75.1z M96.1,59.4l-1-5.7L92.5,54l-2.9,13l-3.2,17.9v2.5l2.5-0.1l1.6-7.8H96
	l3.4,13.8l2.1-0.9L96.1,59.4z"/>
<path class="st7" d="M103.1,53.7L103,65.6l-0.4,19l0.4,2.1l3.2-0.4l0.5-7.3l8.2,6l2.1-1.2l-0.4-29.7l-2.2-0.3l-1.3,24.5l-7.5-6.5
	V53.7H103.1z"/>
<path class="st7" d="M134.6,60.7l2.2-1.2l-1.8-5.5l-4.7-2.3l-4.4,2.5l-2.6,9.2l0.3,13.9l4.7,8.7l6.5-0.4l4.4-5.7l0.8-4.8l-2.6-0.1
	l-3.6,5.8l-3.2,1.2l-3.1-5.1l0.3-15.1l3-3.9l2.6,0.7L134.6,60.7z"/>
<path class="st7" d="M143.3,53.8l-0.5,15.6l-0.1,16.2l1.9,2.2h13l0.5-2.7l-10.5-2.3v-7l8.6-1v-1.8l-8.8-1.3l1.4-14.3l12.6-0.9
	l-0.1-2.7L143.3,53.8z"/>
</svg>
