<?xml version="1.0" encoding="utf-8"?>
<!-- Generator: Adobe Illustrator 27.2.0, SVG Export Plug-In . SVG Version: 6.00 Build 0)  -->
<svg version="1.1" id="Layer_1" xmlns="http://www.w3.org/2000/svg" xmlns:xlink="http://www.w3.org/1999/xlink" x="0px" y="0px"
	 viewBox="0 0 227 149" style="enable-background:new 0 0 227 149;" xml:space="preserve">
<style type="text/css">
	.st0{fill:#BA7545;}
	.st1{fill:#FFAD65;}
	.st2{fill:#7B402C;}
	.st3{fill:#523126;}
	.st4{fill:#FFD394;}
	.st5{fill:#1D92CC;}
	.st6{fill:#FFFFFF;}
	.st7{fill:#EF880C;}
	.st8{fill:#319E4A;}
	.st9{fill:#006DC1;}
</style>
<path class="st0" d="M73.9,75.5l0.6-4.7l3-4.9l3.9-2.9l3.5-0.8l5.1,2.2l3.4,3.4l1.9,7.3L73.9,75.5z"/>
<path class="st1" d="M86.7,71.2h-6.4l-6,1.2l-0.4,3.2l21.5-0.4L95,73.5l-3-1.4L86.7,71.2z"/>
<path class="st1" d="M74.6,76.7l0.5,11.1L93.4,88l2.1-5.5l0.1-6.1l-6.4-1l-7.6-0.1L74.6,76.7z"/>
<path class="st2" d="M96.1,74.8l-4.9-0.4l-6.9-0.3h-6.1l-6.1,2.2l1.6,1.9l3.2-1.5l7.8-0.4l8,0.4l2.8,0.4L96.1,74.8z"/>
<path class="st0" d="M95,73.8l-4.4-1.1l-6.6-0.1l-5.2-0.3L75,73.2l-0.8,0.3L74,74.4l3.9-1.2h6l6,0.3l3.3,0.4l2,0.6L95,73.8z"/>
<path class="st2" d="M77,66l3.5-0.7l3.9-0.1l3.7,0.4l2.7,0.5l1.6,0.5v-0.9l-4.4-1.1l-3.3-0.3h-3l-3.1,0.4L77,66z"/>
<path class="st2" d="M84.4,59l-0.6,1.3l-0.3,2.2l2.4,0.2l-0.5-3.1L84.4,59z"/>
<path class="st2" d="M84.4,53v6l0.7,0.6l0.3-1.1L84.4,53z"/>
<path class="st2" d="M81.5,87.8l4.9,0.1l-0.5-7.9l-1.1-1.2l-2-0.2l-1,1.4l-0.2,3.9L81.5,87.8z"/>
<path class="st2" d="M80.2,87.8l-0.3-5.5l-0.5-2.5l-1.6-0.6l-1.3,1.4l-0.1,4.1l-0.2,3L80.2,87.8z"/>
<path class="st2" d="M91.2,88l-0.1-5.1l-0.5-2.8L89.9,79L89,79.1l-0.8,2.5v3.2L87.8,88L91.2,88z"/>
<path class="st3" d="M85.9,80.1l-1.1-1.2l-2-0.2l-1,1.4l-0.2,3.9l-0.1,3.9l1.7,0l0.1-1.9l0.2-3l1.3-0.7l1.3,0.6L85.9,80.1z"/>
<path class="st3" d="M77.8,79.2l-1.3,1.4l-0.1,4.1l-0.2,3l1.3,0v-5.5l0.7-1.2l1.5,0.2l-0.3-1.4L77.8,79.2z"/>
<path class="st0" d="M57.6,77.5l0.4,4L58,91.7l1.4-0.1l-0.1-8.3l-0.2-6L57.6,77.5z"/>
<path class="st0" d="M54.2,84.3l0.4,8.6h1l-0.1-8.9L54.2,84.3z"/>
<path class="st0" d="M65.5,76.1v7.5l0.3,6.4l1.1-0.6l-0.4-6.7l-0.1-6.7L65.5,76.1z"/>
<path class="st0" d="M64.9,73.9h1.8l0.8,1.6l-2.7,0.1L64.9,73.9z"/>
<path class="st0" d="M57.6,75.1l-0.4,1.5l2.3,0.1L58.9,75L57.6,75.1z"/>
<path class="st0" d="M54,82l-0.5,1.7l2.2-0.3l-0.6-1.7L54,82z"/>
<path class="st1" d="M94.2,87.4L82.4,87l-8.1-0.1h-2.7l-13.8,3.8l-4.3,1.5l0.6,2l1.2,2L55.1,109L55,125.5l0.5,10.4l19.4,0.2
	l13.6-0.1l5.4-0.1L94.2,87.4z"/>
<path class="st0" d="M72.2,126.9l-0.1-26.8l-0.4-13.2h-0.1l-13.8,3.8l-4.3,1.5l0.6,2l1.2,2L55.1,109L55,125.5l0.5,10.4l17,0.2
	L72.2,126.9z"/>
<path class="st0" d="M74.3,86.9h-2.7l-13.8,3.8l-4.3,1.5l0.6,2l1.2,1.9l5.2-1.5L72,91.6l8.3-0.3l13.9,1.1l0-5L82.4,87L74.3,86.9z"/>
<path class="st2" d="M71.9,91.7l-0.2-4.7h-0.1l-13.8,3.8l-4.3,1.5l0.6,2l1.2,1.9l5.2-1.5L71.9,91.7z"/>
<path class="st2" d="M94.1,90l-13.9-0.8l-8.6-0.2l-1,0.4l-7.7,2.2l-8.7,3l0.5,0.8l3.2-1.6l6.3-1.9l7.6-1.9l22.3,0.9L94.1,90z"/>
<path class="st3" d="M54.7,95.4l3.2-1.6l6.3-1.9l7.6-1.9l0-0.8l-0.1,0l-1,0.4l-7.7,2.2l-8.7,3L54.7,95.4z"/>
<path class="st0" d="M73.9,93.6l-0.2,8.1l0.1,8.6l-0.2,3.1l14.8,0.6l3.1-0.3l-0.4-20L83,93.2l-5.3-0.3L73.9,93.6z"/>
<path class="st2" d="M56.8,97.9l-0.2,4.8l0.1,8.4l-0.1,4.2l13.5-1.8l0.3-6.9l-0.4-13l-7.8,2.4L56.8,97.9z"/>
<path class="st1" d="M75.2,94.9l-0.2,7.9l-0.1,9.3l15.1,0.5l0.1-17.7L85,94.3l-6.2-0.2L75.2,94.9z"/>
<path class="st0" d="M57.8,98.9l3.7-1.3l4.4-1.5l2.8-0.7l0.5,5.6l0.1,9.1l-0.4,2.3l-11.2,1.5l-0.1-5.2L57.8,98.9z"/>
<path class="st2" d="M62.6,99.4l-2,2l-1.2,2.6l-0.3,8.7l8.4-0.8l0.3-5.9l-0.8-4.3l-2.2-1.8l-1.5-0.9L62.6,99.4z"/>
<path class="st2" d="M76.1,111.5v-4.2l0.8-5l0.4-2.5l3.2-2l2.2-1.6l1.2,0.6l2.4,1.6l1.8,1.8l0.8,2.3v9.2L76.1,111.5z"/>
<path class="st3" d="M88,100.4l-1.8-1.8l-2.4-1.6l-1.2-0.6l-2.2,1.6l-3.2,2l-0.4,2.5l-0.8,5v4.2l2.2,0.1l0.2-7l2.2-3.2l4-1.2
	l3.8,1.3L88,100.4z"/>
<path class="st3" d="M81.4,105.2l-0.2,6.5l2.5,0.1l0.3-3.6l-0.2-3.1L81.4,105.2z"/>
<path class="st3" d="M61.5,106.5l0.7-4l1.1-1.2l2.4-0.8l-0.9-0.8l-1.5-0.9l-0.7,0.6l-2,2l-1.2,2.6l-0.3,8.7l2.1-0.2L61.5,106.5z"/>
<path class="st2" d="M70.9,126.1l-0.3-10l-5.9,0.1l-7.5,1.7v5.8l0.4,12.1l13.7,0.1L70.9,126.1z"/>
<path class="st0" d="M88.5,135.9l3.3-0.1l-0.7-20.6l-4.9,0.2l-10,0.1l-1.4,0.3l0.4,20.2L88.5,135.9z"/>
<path class="st0" d="M157,75.5l-0.6-4.7l-3-4.9l-3.9-2.9l-3.5-0.8l-5.1,2.2l-3.4,3.4l-1.9,7.3L157,75.5z"/>
<path class="st1" d="M144.1,71.2h6.4l6,1.2l0.4,3.2l-21.5-0.4l0.4-1.6l3-1.4L144.1,71.2z"/>
<path class="st1" d="M156.2,76.7l-0.5,11.1L137.4,88l-2.1-5.5l-0.1-6.1l6.4-1l7.6-0.1L156.2,76.7z"/>
<path class="st2" d="M134.7,74.8l4.9-0.4l6.9-0.3h6.1l6.1,2.2l-1.6,1.9l-3.2-1.5l-7.8-0.4l-8,0.4l-2.8,0.4L134.7,74.8z"/>
<path class="st0" d="M135.8,73.8l4.4-1.1l6.6-0.1l5.2-0.3l4,0.9l0.8,0.3l0.1,0.9l-3.9-1.2h-6l-6,0.3l-3.3,0.4l-2,0.6L135.8,73.8z"/>
<path class="st2" d="M153.8,66l-3.5-0.7l-3.9-0.1l-3.7,0.4l-2.7,0.5l-1.6,0.5v-0.9l4.4-1.1l3.3-0.3h3l3.1,0.4L153.8,66z"/>
<path class="st2" d="M146.5,59l0.6,1.3l0.3,2.2l-2.4,0.2l0.5-3.1L146.5,59z"/>
<path class="st2" d="M146.5,53v6l-0.7,0.6l-0.3-1.1L146.5,53z"/>
<path class="st2" d="M149.4,87.8l-4.9,0.1l0.5-7.9l1.1-1.2l2-0.2l1,1.4l0.2,3.9L149.4,87.8z"/>
<path class="st2" d="M150.6,87.8l0.3-5.5l0.5-2.5l1.6-0.6l1.3,1.4l0.1,4.1l0.2,3L150.6,87.8z"/>
<path class="st2" d="M139.6,88l0.1-5.1l0.5-2.8l0.8-1.1l0.9,0.1l0.8,2.5v3.2L143,88L139.6,88z"/>
<path class="st3" d="M144.9,80.1l1.1-1.2l2-0.2l1,1.4l0.2,3.9l0.1,3.9l-1.7,0l-0.1-1.9l-0.2-3l-1.3-0.7l-1.3,0.6L144.9,80.1z"/>
<path class="st3" d="M153,79.2l1.3,1.4l0.1,4.1l0.2,3l-1.3,0v-5.5l-0.7-1.2l-1.5,0.2l0.3-1.4L153,79.2z"/>
<path class="st0" d="M173.3,77.5l-0.4,4l-0.1,10.3l-1.4-0.1l0.1-8.3l0.2-6L173.3,77.5z"/>
<path class="st0" d="M176.6,84.3l-0.4,8.6h-1l0.1-8.9L176.6,84.3z"/>
<path class="st0" d="M165.4,76.1v7.5l-0.3,6.4l-1.1-0.6l0.4-6.7l0.1-6.7L165.4,76.1z"/>
<path class="st0" d="M165.9,73.9h-1.8l-0.8,1.6l2.7,0.1L165.9,73.9z"/>
<path class="st0" d="M173.3,75.1l0.4,1.5l-2.3,0.1l0.6-1.7L173.3,75.1z"/>
<path class="st0" d="M176.8,82l0.5,1.7l-2.2-0.3l0.6-1.7L176.8,82z"/>
<path class="st1" d="M136.7,87.4l11.8-0.4l8.1-0.1h2.7l13.8,3.8l4.3,1.5l-0.6,2l-1.2,2l0.1,12.7l0.1,16.5l-0.5,10.4L156,136
	l-13.6-0.1l-5.4-0.1L136.7,87.4z"/>
<path class="st0" d="M158.6,126.9l0.1-26.8l0.4-13.2h0.1l13.8,3.8l4.3,1.5l-0.6,2l-1.2,2l0.1,12.7l0.1,16.5l-0.5,10.4l-17,0.2
	L158.6,126.9z"/>
<path class="st0" d="M156.5,86.9h2.7l13.8,3.8l4.3,1.5l-0.6,2l-1.2,1.9l-5.2-1.5l-11.6-3.1l-8.3-0.3l-13.9,1.1l0-5l11.8-0.4
	L156.5,86.9z"/>
<path class="st2" d="M159,91.7l0.2-4.7h0.1l13.8,3.8l4.3,1.5l-0.6,2l-1.2,1.9l-5.2-1.5L159,91.7z"/>
<path class="st2" d="M136.7,90l13.9-0.8l8.6-0.2l1,0.4l7.7,2.2l8.7,3l-0.5,0.8l-3.2-1.6l-6.3-1.9l-7.6-1.9l-22.3,0.9L136.7,90z"/>
<path class="st3" d="M176.1,95.4l-3.2-1.6l-6.3-1.9l-7.6-1.9l0-0.8l0.1,0l1,0.4l7.7,2.2l8.7,3L176.1,95.4z"/>
<path class="st0" d="M156.9,93.6l0.2,8.1l-0.1,8.6l0.2,3.1l-14.8,0.6l-3.1-0.3l0.4-20l8.2-0.5l5.3-0.3L156.9,93.6z"/>
<path class="st2" d="M174,97.9l0.2,4.8l-0.1,8.4l0.1,4.2l-13.4-1.8l-0.3-6.9l0.4-13l7.8,2.4L174,97.9z"/>
<path class="st1" d="M155.7,94.9l0.2,7.9l0.1,9.3l-15.1,0.5l-0.1-17.7l5.1-0.6l6.2-0.2L155.7,94.9z"/>
<path class="st0" d="M173.1,98.9l-3.7-1.3L165,96l-2.8-0.7l-0.5,5.6l-0.1,9.1l0.4,2.3l11.2,1.5l0.1-5.2L173.1,98.9z"/>
<path class="st2" d="M168.2,99.4l2,2l1.2,2.6l0.3,8.7l-8.4-0.8l-0.3-5.9l0.8-4.3l2.2-1.8l1.5-0.9L168.2,99.4z"/>
<path class="st2" d="M154.7,111.5v-4.2l-0.8-5l-0.4-2.5l-3.2-2l-2.2-1.6l-1.2,0.6l-2.4,1.6l-1.8,1.8l-0.8,2.3v9.2L154.7,111.5z"/>
<path class="st3" d="M142.8,100.4l1.8-1.8l2.4-1.6l1.2-0.6l2.2,1.6l3.2,2l0.4,2.5l0.8,5v4.2l-2.2,0.1l-0.2-7l-2.2-3.2l-4-1.2
	l-3.8,1.3L142.8,100.4z"/>
<path class="st3" d="M149.5,105.2l0.2,6.5l-2.5,0.1l-0.3-3.6l0.2-3.1L149.5,105.2z"/>
<path class="st3" d="M169.3,106.5l-0.7-4l-1.1-1.2l-2.4-0.8l0.9-0.8l1.5-0.9l0.7,0.6l2,2l1.2,2.6l0.3,8.7l-2.1-0.2L169.3,106.5z"/>
<path class="st2" d="M159.9,126.1l0.3-10l5.9,0.1l7.5,1.7v5.8l-0.3,12.1l-13.7,0.1L159.9,126.1z"/>
<path class="st0" d="M142.3,135.9l-3.3-0.1l0.7-20.6l4.9,0.2l10,0.1l1.4,0.3l-0.4,20.2L142.3,135.9z"/>
<path class="st1" d="M94.1,72.5l-1.3-5.1l0.6-6.3l3.8-6.2l6.3-6.2l6-3.4l2-3.1l2.1-4.4l0.1-1.2l1.1,0.3l-0.1,1.8l2.1,4.1l3.8,2.5
	l4.1,2.5l5.6,2.6l3.1,4.6l2.8,7.4l0.8,5.1l-0.4,4.8l-0.8,2.7l-8.5-1l-20.1,0.1H96.9l-2.8-0.5L94.1,72.5z"/>
<path class="st4" d="M111.8,41.6l-0.3,0.7l-2,3.1l-6,3.4L97.2,55l-3.8,6.2l-0.6,6.3l1.3,5.1l0.1,1.1l2.8,0.5h0l-0.4-7.7l0.8-5.1
	l2-4.6l4.8-6.4l6.8-5.1L111.8,41.6z"/>
<path class="st4" d="M133.6,55l-3.1-4.6l-5.6-2.6l-4.1-2.5l-3.8-2.5l-1-2l0.5,2.4l3.8,3.8l6.9,3.3l4.9,6.7l2,8.2l-0.1,6l-0.6,3.4
	l2.8,0.3l0.8-2.7l0.4-4.8l-0.8-5.1L133.6,55z"/>
<path class="st0" d="M128,63.8l-6.4-0.4l-10-0.4l-10.2,0.7l-8.5,2.5l-0.1,1.3l1.3,5.1l0.1,1.1l2.8,0.5h10.4l20.1-0.1l8.5,1l0.8-2.7
	l0.4-4.8l0-0.1l-4.4-2.1L128,63.8z"/>
<path class="st1" d="M94.2,73.6l2.8,0.5h0l-0.4-7.7l0.2-1.5l-3.9,1.1l-0.1,1.3l1.3,5.1L94.2,73.6z"/>
<path class="st1" d="M133.8,71.3l-0.6,3.4l2.8,0.3l0.8-2.7l0.4-4.8l0-0.1l-3.1-1.5L133.8,71.3z"/>
<path class="st0" d="M105.5,47l2.8-1.4l3.3-0.3l3.8-0.2l4.4,0.9l2.4,0.2l2,0.7l1.3,0.9l-2.3-0.3l-4.9-0.9l-4-0.2l-3.2-0.2l-3.6,0.7
	l-2,0.6L105.5,47z"/>
<path class="st0" d="M114,40.9l1.9,0.2l-1.2-2.3l0.1-1.8l-1.1-0.3l-0.1,1.2l-1.4,2.9L114,40.9z"/>
<path class="st0" d="M114,35.1l-0.8,0.8l-0.3,0.7l0.3,0.7l0.8,0.7l1-0.1l0.5-0.5v-1l-0.4-0.7L114,35.1z"/>
<path class="st0" d="M114,31.7l-1.1,0.8l-0.1,1.6l1.3,1l1,0.1l1.3-1l0.1-1.2l-0.9-1.3H114z"/>
<path class="st2" d="M93.2,71.2l6.3-1.6l6.3-0.4l10.3,0.2l7.3-0.1l9.8,1.6l4.1,1.5l-1.1,7.3l-41.7-1l-0.8-4.3L93.2,71.2z"/>
<path class="st1" d="M123.5,69.3l-7.3,0.1l-10.3-0.2l-6.3,0.4l-6.3,1.6l0.6,3.2l0.4,2.1l5.2-0.8l9-0.1h10.6l7.5,0.5l6.7,0.7l3.3,0.9
	l0.8-5.3l-4.1-1.5L123.5,69.3z"/>
<path class="st0" d="M137.4,72.5l-4.1-1.5l-9.8-1.6l-7.3,0.1l-10.3-0.2l-6.3,0.4l-6.3,1.6l0.6,3.2l0.3,1.3l4.8-0.8h6.7h9.7l10.6,0.3
	l6.6,0.7l4.3,1.2L137.4,72.5z"/>
<path class="st2" d="M123.5,69.3l-7.3,0.1l-10.3-0.2l-6.3,0.4l-6.3,1.6l0.3,1.9l5.6-1.1l12.1-0.6l9.4,0.1l8.7,0.6l7.8,2l0.2-1.6
	l-4.1-1.5L123.5,69.3z"/>
<path class="st3" d="M101.7,74.6l0-1.3l0.4-1.1h0.8l0.4,1.3l0.1,1L101.7,74.6z"/>
<path class="st3" d="M103.8,74.5L104,73l0.3-0.8l0.7-0.1l0.7,1.4v0.9L103.8,74.5z"/>
<path class="st3" d="M106.3,74.5l0.1-1.5l0.6-1.1h0.7l0.6,1.2v1.4L106.3,74.5z"/>
<path class="st3" d="M109.3,74.5v-1.3l0.6-1l0.6-0.4l0.7,0.6l0.3,2.2L109.3,74.5z"/>
<path class="st3" d="M112.1,74.5l0.2-1.4l0.5-0.9l0.6-0.5l0.7,0.5c0,0,0.1,1,0.1,1.1c0,0.2,0,1.3,0,1.3L112.1,74.5z"/>
<path class="st3" d="M114.7,74.6v-1.2l0.2-1.2l0.7-0.5l0.8,0.2l0.1,1.2l0.1,1.4H114.7z"/>
<path class="st3" d="M97.6,74.8l0-1.3l0.5-0.9l0.8-0.1l0.3,1l0.2,1L97.6,74.8z"/>
<path class="st3" d="M118.7,74.5l0-1.1l0.7-1.3l0.6-0.4l0.6,0.3l0.2,2.6L118.7,74.5z"/>
<path class="st3" d="M121.9,74.7l0.3-1.4l0.5-0.9l0.6-0.4l0.8,0.3l0.3,1.2l0.1,1.2L121.9,74.7z"/>
<path class="st3" d="M124.8,74.7l0.2-1.1l0.3-1l0.6-0.3l0.6,0.2l0.1,1.2l0,1.2L124.8,74.7z"/>
<path class="st3" d="M129.6,75.3l0.1-1.2l0.7-0.9L131,73l0.2,0.7l0,1.7L129.6,75.3z"/>
<path class="st3" d="M131.6,75.4l0.2-1l0.5-1l0.8-0.1l0.3,0.8l-0.1,1.7L131.6,75.4z"/>
<path class="st0" d="M136.4,79.2l-5.2-1.1l-5.1,0.1l-8.7-0.5l-10.3,0l-7.7,0.1l-4.8,0.6l0.1,0.3l41.7,1L136.4,79.2z"/>
<path class="st4" d="M92.2,78.2l8.2,0.1h9.8l14.7,0.7l13.1,0.6l1,0.8l0.5,6.3l0.3,28v21l-32,0.9L93,135.9l0.1-1.2l-0.3-18L92.6,95
	L92,79.8l-0.2-1.2L92.2,78.2z"/>
<path class="st1" d="M124.8,79l-14.7-0.7h-9.8l-8.2-0.1l-0.4,0.4l0.1,0.8l3.2,0.2l6.5-0.1l16.6,0.3l8.7,0.3l7.5,0.1l4.4,0.2l-1-0.8
	L124.8,79z"/>
<path class="st0" d="M137.6,135.8l-0.3-19L137,99.1l-0.8-16.5l-9.7-0.1l-12.8-0.3l-12.4-0.3L94.4,82l-0.1,10.3l-0.1,15.1l0.3,16V136
	l3.7,0.2l-0.1-3.9L98,117.4l-0.4-20.1l0.3-11.8l8.9-0.2l9-0.1l16.7,1l0.8,15.4l0.5,18.7v15.7L137.6,135.8z"/>
<path class="st0" d="M107.7,136.6l24.6-0.7l-0.1-6.5l-0.6-16.8l-0.4-17l-0.7-7.6l-3.2-0.1l-7.3-0.6l-10.9-0.1l-9.2,0.1l-0.3,10.3v14
	l0.2,15.6v9L107.7,136.6z"/>
<path class="st2" d="M107.7,136.6l23.7-0.7l0.1-4l-0.4-11.2l-0.4-7l-0.3-5.4l-1-2.8l-2.4-2.1l-3.1-2.2l-3.8-3.3l-3.3-3.5l-0.6-2.2
	l-0.4-0.5l-0.7,0.5l-0.3,2.7l-3.1,3.2l-5.8,4.3l-3.5,2.7l-1.3,3.1l-0.6,6.3l-0.1,5.7l-0.1,8.4v7.5L107.7,136.6z"/>
<path class="st4" d="M100.8,88.3l-0.1,2.5l-0.4,3.9v13.2l1.2-3.1l2.4-2.3l3.4-2.2l4.3-3.3l2.4-2.9l0.6-2.5l0.2-1.1l1.1-0.1l1.2,0.4
	l0.5,2.5l2.4,3l2.4,2.5l3.8,2.6l3.4,2.6l1.1,1.7v-7.2l-0.6-6.5l-0.4-3.1l-5.1-0.5l-7.9-0.5l-5.5,0.2l-7.1,0.1H100.8z"/>
<path class="st0" d="M100.3,114.7l5.8,0.3h12.7l6.2,0.3l6.3-0.4v1.4l-13.6-0.2l-10.3-0.1l-7.2-0.1L100.3,114.7z"/>
<path class="st0" d="M103.8,91.4l-0.4,0.4l0.3,0.4l0.3-0.3l0-0.5L103.8,91.4z"/>
<path class="st0" d="M105.8,92.4l-0.6,0.2l0.1,0.6l0.5,0.2l0.3-0.5l0-0.3L105.8,92.4z"/>
<path class="st0" d="M107.2,90.7l-0.5,0.2v0.3l0.3,0.4l0.4-0.1l0.1-0.5L107.2,90.7z"/>
<path class="st0" d="M107.3,95.8l-0.4,0.4l0.1,0.5l0.6,0.3l0.3-0.9l-0.3-0.4L107.3,95.8z"/>
<path class="st0" d="M103.2,96l-0.7,0.2l0.1,0.9l0.5,0.1l0.6-0.6L103.2,96z"/>
<path class="st0" d="M104.3,96.5l-0.2,0.3l0.1,0.3l0.5,0.1l0.1-0.5l-0.2-0.3L104.3,96.5z"/>
<path class="st0" d="M105.9,98.8l-0.5,0.6l0.2,0.4l0.5,0.3l0.3-0.6l-0.1-0.4L105.9,98.8z"/>
<path class="st0" d="M111.1,93.2l-0.5,0.3l0.3,0.6l0.6,0.1l0.1-0.6L111.1,93.2z"/>
<path class="st0" d="M113.2,89.1l-0.4,0.3L113,90l0.6-0.1l-0.1-0.8H113.2z"/>
<path class="st0" d="M110.2,89.5l-0.3,0.3l0.3,0.6l0.7,0.1l0.3-0.7l-0.5-0.3L110.2,89.5z"/>
<path class="st0" d="M102,100.6l-0.7,0.3l0.1,0.7l0.5,0.2l0.4-0.7L102,100.6z"/>
<path class="st0" d="M123.1,90.7l-0.6,0.2l-0.1,0.7l0.4,0.4l0.9-0.4l-0.2-0.7L123.1,90.7z"/>
<path class="st0" d="M124.9,93.4l-0.4,0.4l0.3,0.4l0.4-0.4l-0.1-0.3L124.9,93.4z"/>
<path class="st0" d="M126.5,91.6L126,92l0.3,0.4l0.4-0.2v-0.4L126.5,91.6z"/>
<path class="st0" d="M127.5,93.5l-0.4,0.4l0.2,0.7h0.4l0.3-0.4l-0.1-0.4L127.5,93.5z"/>
<path class="st0" d="M129.3,90.8l-0.5,0.4l0.4,0.5l0.3-0.1l0.1-0.6L129.3,90.8z"/>
<path class="st0" d="M125.7,89.5l-0.3,0.2l0.3,0.7l0.5-0.1l0.2-0.5l-0.3-0.3L125.7,89.5z"/>
<path class="st0" d="M120.5,91.8l-0.6,0.5l0.2,0.6l0.5,0.2l0.4-0.5l-0.2-0.5L120.5,91.8z"/>
<path class="st0" d="M118.9,89.3l-0.6,0.4l0.3,0.6l0.5,0.2l0.2-0.7L118.9,89.3z"/>
<path class="st0" d="M124,96.2l-0.3,0.2l0.1,0.4l0.4-0.1l0-0.5L124,96.2z"/>
<path class="st0" d="M125.8,99l-0.5,0.3l0.3,0.8l0.5-0.1l0.3-0.7L125.8,99z"/>
<path class="st0" d="M128.4,96.9l-0.4,0.4l0.3,0.6h0.4l0.3-0.6l-0.2-0.3L128.4,96.9z"/>
<path class="st0" d="M128.6,100.7l-0.2,0.2l0.1,0.4c0,0,0.4,0.1,0.4,0c0-0.1,0.1-0.5,0.1-0.5L128.6,100.7z"/>
<path class="st3" d="M114.2,106.6l0.1-1.8l-0.1-2.3l-1.3,0.8l-0.8,3.3L114.2,106.6z"/>
<path class="st3" d="M111.9,107.3l-0.1,0.3l-0.2,6.7l2.3-0.1l0.2-6.9L111.9,107.3z"/>
<path class="st3" d="M120.3,106.8l0-0.1l-1.5-3.2l0.1,3.4L120.3,106.8z"/>
<path class="st3" d="M119,107.2l0.2,6.8l1.2,0l-0.1-6.8L119,107.2z"/>
<path class="st3" d="M114.6,107.2l-0.1,6.9l4-0.1l-0.1-6.8L114.6,107.2z"/>
<path class="st3" d="M118.4,106.7l0-4.3l-3.1-0.6l-0.7,0.4l-0.1,4.4L118.4,106.7z"/>
<path class="st3" d="M117.8,131.8L117.8,131.8l-3.3-0.1l0,4.8l3.4-0.1L117.8,131.8z"/>
<path class="st3" d="M120.8,128.3l-0.1-1.1l-2.3-0.2l0.1,2l0.2,3.9l2.4-0.1L120.8,128.3z"/>
<path class="st3" d="M117.8,131l-0.1-5.7l0-0.3l-3.3,0l0,0.4l0.1,5.5H117.8z"/>
<path class="st3" d="M114,130.9l-0.1-3.7h-2.3v2.5l0.1,3.4l2.3,0.1L114,130.9z"/>
<path class="st3" d="M118.2,123.7l0.1,2.6l2.2,0.1l-0.3-3l-1.8-2.2l-0.1,0L118.2,123.7z"/>
<path class="st3" d="M114,133.6l-2.3,0l0.1,2.9l2.2-0.1L114,133.6z"/>
<path class="st3" d="M118.5,133.6l0.1,2.7l2.5-0.1l-0.1-2.6L118.5,133.6z"/>
<path class="st3" d="M114.3,124l3.3,0l0.1-2.9l-0.7-0.2l-2.6,0.3L114.3,124z"/>
<path class="st3" d="M113.9,126.3l0-2.1v-3l-1.1,0.1l-1.2,2.7v2.4L113.9,126.3z"/>
<path class="st0" d="M217.8,42.9l2.9,1l-0.2,6.3l-1.1,0.1l-0.1-2.6l-0.1-2.2l-0.9,0l-0.2,2l0,3l-1.5,0.2l-0.1-2.2l-0.2-2.7l-0.8-0.1
	l-0.6,1.1l0.1,3.9l-1.1,0.1l0.1-1.9l-0.6-2.7l-0.5,0.6l0,2.1l0,2l-0.8,0.1l-0.2-7.7L217.8,42.9z"/>
<path class="st0" d="M220.8,42.4l-0.3-3l-2.4-2.1l-2.1-0.8l-3.4,2.1l-0.4,3.4l3,0.4L220.8,42.4z"/>
<path class="st1" d="M216,36.5l2.1,0.8l2.4,2.1l0.3,3l-3.4,0l-0.4-4.4l-1.6-1.2L216,36.5z"/>
<path class="st2" d="M222.6,42.6l-2.3-0.9l-5-0.2l-2.8-0.1l-2.2,1.1l0.4,1.6l4.5-0.6l4,0.2l2,0.8L222.6,42.6z"/>
<path class="st0" d="M216,32.4l0.2,4.6l-0.7-0.2l0-4.3L216,32.4z"/>
<path class="st0" d="M220.4,51.8l0.5,17.6l0.5,18.2l1.6,32.8l0.5,17.9l-9.9-0.9l-4.3-0.1l0.5-25.2l0.1-20.1l1.2-27.5l0.7-12.3
	l5.1-0.5L220.4,51.8z"/>
<path class="st2" d="M209.9,112.2l0.1-20.1l1.2-27.5l0.7-12.3l2.1-0.2l-0.5,10.2l-1,40.9l-0.1,34.3l-2.9,0L209.9,112.2z"/>
<path class="st2" d="M222,49.6l-0.5,2.7l-0.5,1l-2.5-0.4l-4.2,0.1l-3,0.4l-0.2-3.3l4.3-0.3l3.1-0.3L222,49.6z"/>
<path class="st2" d="M222.3,76.8l-0.5,3.1l-4.7-0.5l-3.4,0.2l-3.6,1l-0.2-2.7l5.1-1.4l4.4,0L222.3,76.8z"/>
<path class="st2" d="M223.5,108.3l-0.3,3.6l-3.9-0.2l-4.2,0.2l-3.8,0.6l-1.7,0.7l-1-3l2.9-2.4l4.8-0.7l4.9,0.3L223.5,108.3z"/>
<path class="st0" d="M218.4,49.6l3.6,0l-0.2,0.8h-4.6l-4.6,0.4l-1.5,0.4l-0.1-1.1l4.3-0.3L218.4,49.6z"/>
<path class="st3" d="M218.4,53l-4.2,0.1l-3,0.4l-0.1-0.8l3.4-0.9l4.4-0.3l2.4,1.1l-0.4,0.8L218.4,53z"/>
<path class="st1" d="M219.4,76.5l2.9,0.4l-0.1,0.7l-2.6-0.4l-3.9,0l-3.7,0.8l-2.1,0.9l-0.1-0.9l5.1-1.4L219.4,76.5z"/>
<path class="st3" d="M212.2,79.2l2.9-0.7l4.3,0.3l2.5,0.4l-0.1,0.6l-4.7-0.5l-3.4,0.2l-3.6,1l-0.1-0.6L212.2,79.2z"/>
<path class="st1" d="M216.4,107.1l4.9,0.3l2.3,0.9l-0.1,0.6l-2.7-0.8l-5.5-0.2l-3.2,0.9l-3.3,1.9l-0.2-0.5l2.9-2.4L216.4,107.1z"/>
<path class="st3" d="M211.2,111.3l3-0.8l5.8-0.6l3.4,0.5l-0.1,1.5l-3.9-0.2l-4.2,0.2l-3.8,0.6l-1.7,0.7l-0.3-0.9L211.2,111.3z"/>
<path class="st1" d="M190.8,84.5l1.8,0.7l-0.1,4l-0.7,0.1l-0.1-1.7l-0.1-1.4l-0.6,0l-0.2,1.2l0,1.9l-1,0.1l-0.1-1.4l-0.1-1.7
	l-0.5-0.1l-0.4,0.7l0.1,2.5l-0.7,0.1l0.1-1.2l-0.4-1.7l-0.3,0.4l0,1.3l0,1.2l-0.5,0l-0.2-4.9L190.8,84.5z"/>
<path class="st1" d="M192.7,84.2l-0.2-1.9l-1.5-1.4l-1.4-0.5l-2.1,1.3l-0.3,2.2l1.9,0.2L192.7,84.2z"/>
<path class="st0" d="M189.6,80.5l1.4,0.5l1.5,1.4l0.2,1.9l-2.1,0l-0.2-2.8l-1-0.8L189.6,80.5z"/>
<path class="st2" d="M193.8,84.4l-1.4-0.6l-3.2-0.1l-1.8-0.1l-1.4,0.7l0.3,1l2.9-0.4l2.6,0.1l1.3,0.5L193.8,84.4z"/>
<path class="st0" d="M189.6,77.8l0.1,2.9l-0.5-0.2l0-2.7L189.6,77.8z"/>
<path class="st1" d="M192.4,90.2l0.3,11.2L193,113l1,20.8l0.3,11.4l-6.3-0.6l-2.7,0l0.3-16l0-12.8l0.8-17.5l0.4-7.8l3.3-0.3
	L192.4,90.2z"/>
<path class="st0" d="M185.7,128.6l0-12.8l0.8-17.5l0.4-7.8l1.3-0.1l-0.3,6.5l-0.6,26l0,21.8l-1.8,0L185.7,128.6z"/>
<path class="st0" d="M193.4,88.8l-0.3,1.7l-0.3,0.7l-1.6-0.2l-2.7,0l-1.9,0.2l-0.2-2.1l2.7-0.2l2-0.2L193.4,88.8z"/>
<path class="st0" d="M193.6,106.1l-0.3,2l-3-0.3l-2.2,0.1l-2.3,0.6l-0.1-1.7l3.2-0.9l2.8,0L193.6,106.1z"/>
<path class="st0" d="M194.4,126.1l-0.2,2.3l-2.5-0.2l-2.7,0.1l-2.4,0.4l-1.1,0.5l-0.6-1.9l1.8-1.5l3-0.4l3.1,0.2L194.4,126.1z"/>
<path class="st1" d="M191.1,88.8l2.3,0l-0.1,0.5l-2.9,0l-2.9,0.2l-1,0.2l-0.1-0.7l2.7-0.2L191.1,88.8z"/>
<path class="st2" d="M191.1,91l-2.7,0l-1.9,0.2l0-0.5l2.2-0.6l2.8-0.2l1.5,0.7l-0.2,0.5L191.1,91z"/>
<path class="st4" d="M191.7,105.9l1.9,0.2l-0.1,0.5l-1.7-0.2l-2.5,0l-2.3,0.5l-1.3,0.5l-0.1-0.6l3.2-0.9L191.7,105.9z"/>
<path class="st2" d="M187.1,107.6l1.8-0.4l2.8,0.2l1.6,0.3l-0.1,0.4l-3-0.3l-2.2,0.1l-2.3,0.6l0-0.4L187.1,107.6z"/>
<path class="st4" d="M189.8,125.3l3.1,0.2l1.4,0.6l0,0.4l-1.7-0.5l-3.5-0.1l-2,0.6l-2.1,1.2l-0.1-0.3l1.8-1.5L189.8,125.3z"/>
<path class="st2" d="M186.5,128l1.9-0.5l3.7-0.4l2.1,0.3l-0.1,0.9l-2.5-0.2l-2.7,0.1l-2.4,0.4l-1.1,0.5l-0.2-0.6L186.5,128z"/>
<path class="st1" d="M155,117.1l-0.1,5.1l-0.3,12.8h-14.5l0.8-18.5l7.8,0.1L155,117.1z"/>
<path class="st2" d="M147.6,117.7l1.1,1.6l3.8,1.1l1,2.9l-0.2,10.9l-9,0.2l-2.3-0.2V127l0.4-4.3l2.4-2.4l2.2-1.4L147.6,117.7z"/>
<path class="st3" d="M143.6,121.5l1.1-1.2l2.2-1.4l0.7-1.2l1.1,1.6l3.8,1.1l1,2.9l-0.2,10.9l-1.7,0l-0.1-4.2l0.1-3.6l-2.2-4
	L143.6,121.5z"/>
<path class="st3" d="M148.7,134.3l-2,0l-0.2-6.1h2.2V134.3z"/>
<path class="st0" d="M172.5,119l-0.1,5.6l0.1,9.9l-5.6,0.5l-6.2-0.1l0.6-9.2l0.1-8.5l5.4,0.4L172.5,119z"/>
<path class="st2" d="M167,119.1l2.4,2.8l1.3,1.3l0.4,4.8l0.3,5.8l-4.7,0.3l-4.5,0.1l0.3-5.4l0.7-5.5l2-2.3L167,119.1z"/>
<path class="st3" d="M163.9,122.3l1-1.2l2-1.9l2.4,2.8l1.3,1.3l0.4,4.8l0.3,5.8l-1.7,0.1l0.1-8l-1.9-3.9L163.9,122.3z"/>
<path class="st1" d="M75.8,117.1l0.1,5.1l0.3,12.8h14.5l-0.8-18.5l-7.8,0.1L75.8,117.1z"/>
<path class="st2" d="M83.2,117.7l-1.1,1.6l-3.8,1.1l-1,2.9l0.2,10.9l9,0.2l2.3-0.2V127l-0.4-4.3l-2.4-2.4l-2.2-1.4L83.2,117.7z"/>
<path class="st3" d="M87.2,121.5l-1.2-1.2l-2.2-1.4l-0.7-1.2l-1.1,1.6l-3.8,1.1l-1,2.9l0.2,10.9l1.7,0l0.1-4.2l-0.1-3.6l2.2-4
	L87.2,121.5z"/>
<path class="st3" d="M82.1,134.3l2,0l0.2-6.1h-2.2V134.3z"/>
<path class="st0" d="M58.3,119l0.1,5.6l-0.1,9.9l5.6,0.5l6.2-0.1l-0.6-9.2l-0.1-8.5l-5.4,0.4L58.3,119z"/>
<path class="st2" d="M63.9,119.1l-2.3,2.8l-1.3,1.3l-0.4,4.8l-0.3,5.8l4.7,0.3l4.5,0.1l-0.3-5.4l-0.7-5.5l-2-2.3L63.9,119.1z"/>
<path class="st3" d="M66.9,122.3l-1-1.2l-2-1.9l-2.3,2.8l-1.3,1.3l-0.4,4.8l-0.3,5.8l1.7,0.1l-0.1-8l1.9-3.9L66.9,122.3z"/>
<path class="st0" d="M11.6,42.9l-2.9,1l0.2,6.3l1.1,0.1l0.1-2.6l0.1-2.2l0.9,0l0.3,2l0,3l1.5,0.2l0.1-2.2l0.2-2.7l0.8-0.1l0.6,1.1
	l-0.1,3.9l1.1,0.1L15.6,49l0.6-2.7l0.5,0.6l0,2.1l0,2l0.8,0.1l0.2-7.7L11.6,42.9z"/>
<path class="st0" d="M8.6,42.4l0.3-3l2.4-2.1l2.1-0.8l3.4,2.1l0.4,3.4l-3,0.4L8.6,42.4z"/>
<path class="st1" d="M13.5,36.5l-2.1,0.8l-2.4,2.1l-0.3,3l3.4,0l0.4-4.4l1.6-1.2L13.5,36.5z"/>
<path class="st2" d="M6.8,42.6l2.3-0.9l5-0.2l2.8-0.1l2.2,1.1l-0.4,1.6l-4.5-0.6l-4,0.2l-2,0.8L6.8,42.6z"/>
<path class="st0" d="M13.4,32.4L13.2,37l0.7-0.2l0-4.3L13.4,32.4z"/>
<path class="st0" d="M9.1,51.8L8.6,69.5L8,87.6l-1.6,32.8l-0.5,17.9l9.9-0.9l4.3-0.1l-0.5-25.2l-0.1-20.1l-1.2-27.5l-0.7-12.3
	l-5.1-0.5L9.1,51.8z"/>
<path class="st2" d="M19.6,112.2l-0.1-20.1l-1.2-27.5l-0.7-12.3l-2.1-0.2l0.5,10.2l1,40.9l0.1,34.3l2.9,0L19.6,112.2z"/>
<path class="st2" d="M7.5,49.6L8,52.3l0.5,1L11,53l4.2,0.1l3,0.4l0.2-3.3l-4.3-0.3l-3.1-0.3L7.5,49.6z"/>
<path class="st2" d="M7.2,76.8l0.5,3.1l4.7-0.5l3.4,0.2l3.6,1l0.2-2.7l-5.1-1.4l-4.4,0L7.2,76.8z"/>
<path class="st2" d="M5.9,108.3l0.3,3.6l3.9-0.2l4.2,0.2l3.8,0.6l1.7,0.7l1-3l-2.9-2.4l-4.8-0.7l-4.9,0.3L5.9,108.3z"/>
<path class="st0" d="M11.1,49.6l-3.6,0l0.2,0.8h4.6l4.6,0.4l1.5,0.4l0.1-1.1l-4.3-0.3L11.1,49.6z"/>
<path class="st3" d="M11,53l4.2,0.1l3,0.4l0.1-0.8l-3.4-0.9l-4.4-0.3l-2.4,1.1l0.4,0.8L11,53z"/>
<path class="st1" d="M10.1,76.5l-2.9,0.4l0.1,0.7l2.6-0.4l3.9,0l3.7,0.8l2.1,0.9l0.1-0.9l-5.1-1.4L10.1,76.5z"/>
<path class="st3" d="M17.3,79.2l-2.9-0.7L10,78.8l-2.5,0.4l0.1,0.6l4.7-0.5l3.4,0.2l3.6,1l0-0.6L17.3,79.2z"/>
<path class="st1" d="M13.1,107.1l-4.9,0.3l-2.3,0.9l0.1,0.6l2.7-0.8l5.5-0.2l3.2,0.9l3.3,1.9l0.2-0.5l-2.9-2.4L13.1,107.1z"/>
<path class="st3" d="M18.3,111.3l-3-0.8l-5.8-0.6l-3.4,0.5l0.1,1.5l3.9-0.2l4.2,0.2l3.8,0.6l1.7,0.7l0.3-0.9L18.3,111.3z"/>
<path class="st1" d="M38.7,84.5l-1.8,0.7l0.1,4l0.7,0.1l0.1-1.7l0.1-1.4l0.6,0l0.2,1.2l0,1.9l1,0.1l0.1-1.4l0.1-1.7l0.5-0.1l0.4,0.7
	l-0.1,2.5l0.7,0.1l-0.1-1.2l0.4-1.7l0.3,0.4l0,1.3l0,1.2l0.5,0l0.2-4.9L38.7,84.5z"/>
<path class="st1" d="M36.8,84.2l0.2-1.9l1.5-1.4l1.4-0.5l2.1,1.3l0.3,2.2l-1.9,0.2L36.8,84.2z"/>
<path class="st0" d="M39.9,80.5L38.5,81L37,82.3l-0.2,1.9l2.1,0l0.2-2.8l1-0.8L39.9,80.5z"/>
<path class="st2" d="M35.7,84.4l1.4-0.6l3.2-0.1l1.8-0.1l1.4,0.7l-0.3,1L40.4,85l-2.6,0.1l-1.3,0.5L35.7,84.4z"/>
<path class="st0" d="M39.8,77.8l-0.1,2.9l0.5-0.2l0-2.7L39.8,77.8z"/>
<path class="st1" d="M37.1,90.2l-0.3,11.2L36.4,113l-1,20.8L35,145.2l6.3-0.6l2.7,0l-0.3-16l0-12.8l-0.8-17.5l-0.4-7.8l-3.3-0.3
	L37.1,90.2z"/>
<path class="st0" d="M43.7,128.6l0-12.8l-0.8-17.5l-0.4-7.8l-1.3-0.1l0.3,6.5l0.6,26l0,21.8l1.8,0L43.7,128.6z"/>
<path class="st0" d="M36.1,88.8l0.3,1.7l0.3,0.7l1.6-0.2l2.7,0l1.9,0.2l0.2-2.1L40.3,89l-2-0.2L36.1,88.8z"/>
<path class="st0" d="M35.9,106.1l0.3,2l3-0.3l2.2,0.1l2.3,0.6l0.1-1.7l-3.2-0.9l-2.8,0L35.9,106.1z"/>
<path class="st0" d="M35.1,126.1l0.2,2.3l2.5-0.2l2.7,0.1l2.4,0.4l1.1,0.5l0.6-1.9l-1.8-1.5l-3-0.4l-3.1,0.2L35.1,126.1z"/>
<path class="st1" d="M38.3,88.8l-2.3,0l0.1,0.5l2.9,0l2.9,0.2l1,0.2l0-0.7L40.3,89L38.3,88.8z"/>
<path class="st2" d="M38.3,91l2.7,0l1.9,0.2l0-0.5l-2.2-0.6L38,90l-1.5,0.7l0.2,0.5L38.3,91z"/>
<path class="st4" d="M37.7,105.9l-1.9,0.2l0.1,0.5l1.7-0.2l2.5,0l2.3,0.5l1.3,0.5l0.1-0.6l-3.2-0.9L37.7,105.9z"/>
<path class="st2" d="M42.3,107.6l-1.8-0.4l-2.8,0.2l-1.6,0.3l0.1,0.4l3-0.3l2.2,0.1l2.3,0.6l0-0.4L42.3,107.6z"/>
<path class="st4" d="M39.6,125.3l-3.1,0.2l-1.4,0.6l0,0.4l1.7-0.5l3.5-0.1l2,0.6l2.1,1.2l0.1-0.3l-1.8-1.5L39.6,125.3z"/>
<path class="st2" d="M42.9,128l-1.9-0.5l-3.7-0.4l-2.1,0.3l0.1,0.9l2.5-0.2l2.7,0.1l2.4,0.4l1.1,0.5l0.2-0.6L42.9,128z"/>
<path class="st0" d="M0.5,135.4l26.3-0.3l26.6-0.5l21.8,0.3h28.8l24.3,0.3l22.3-0.3l21.8-0.3l28.4,0.5l25.3,0.3l0.2,13.4l-59.9-0.5
	l-47.9,0.5l-73.2-1.1L20.8,148L0,147.7L0.5,135.4z"/>
<path class="st2" d="M226.2,135.4l-25.3-0.3l-28.4-0.5l-21.8,0.3l-22.3,0.3l-24.3-0.3H75.3l-21.8-0.3l-26.6,0.5l-26.3,0.3l-0.1,2.2
	h24.7l33.4-0.3l50.2,0.8l41.6-0.5l24.6-1.1l18.3,1.1l14.5-0.5l18.6,0.8L226.2,135.4z"/>
<path class="st4" d="M178.7,135.5l18.3,0.4l21.4,0.3l7.8,0.6l0-1.4l-25.3-0.3l-28.4-0.5l-21.8,0.3l-22.3,0.3l-24.3-0.3H75.3
	l-21.8-0.3l-26.6,0.5l-26.3,0.3l0,0.8l5.1,0.2l22.9-0.1l15.7-0.1h19.9l10.8-0.2l32.7,0l29.2,0.4l12.5-0.1l16.3-0.7L178.7,135.5z"/>
<path class="st5" d="M132.7,1l4.4,0.4l-4.8,18.3L128.1,39l-3.4-0.2l2.9-21.2L132.7,1z"/>
<path class="st5" d="M143.1,2.9l-6,20.6l-4,16.4l3,0.5l4.2-12.5l6.1,12.9l-0.9,3.4l3.8,1.9L161.7,9l-4.4-1.1L148,35.1l-6-13.7
	L147.4,4L143.1,2.9z"/>
<path class="st5" d="M168.4,40.4l-8.4,2.7l2.1-6.2l6.5-20.9l2.4,0.9l2.4,3.9L172.5,34L168.4,40.4z M176.8,16l-4.6-4.9l-5.4-0.8
	l-5,15.2L154.8,47l3.4,1.9l11.6-3.5l8.3-13.8L176.8,16z"/>
<path class="st5" d="M184.7,15.5l5.3,1.2l-6,19.8l-5.3,17.4l-4.1-1.1l5-17.5l4.9-16L184.7,15.5z"/>
<path class="st5" d="M194.1,41.3l6.3-12.6c0,0-3.2,14-3.2,14.4C197.2,43.6,194.1,41.3,194.1,41.3z M203.6,27.6l0.7-6.8l-2.5-0.5
	c0,0-9.3,15.6-9.4,16c-0.1,0.4-9.9,17.1-9.9,17.1l3.5,1.2l5.8-9.3l5.2,2.2l-0.5,10.8l3.4-0.2L203.6,27.6z"/>
<path class="st6" d="M27.4,19.2l7.4,32.2l28.6-4.1l31.4-5.9l-2-15.5l-5-20.5L27.9,16L27.4,19.2z"/>
<path class="st7" d="M80.8,19.4l10-1.4L87.7,5.4L27.9,16l-0.5,3.2l2.2,9.6L45.5,26L80.8,19.4z"/>
<path class="st8" d="M34.8,51.4l28.6-4.1l31.4-5.9l-1.5-11.3l-13.1,2.5l-25.7,4.1l-22.2,4L34.8,51.4z"/>
<path class="st9" d="M65.3,32.1l-1.2-0.7l-1.6-1.2l0.6,0.2l2.7,0.1L65.3,32.1z M61.9,30.3l1.3,0.9l1.5,1l0.5,0.3l-1.1,1l-1.3-1.7
	L61.9,30.3z M63.3,34.2h-0.6l-0.9-3.1l-0.2-0.9l1.1,2l1.1,1.6L63.3,34.2z M59.3,34.1l0.8-1.9l0.5-0.9l-0.1,1.6l-0.2,1.3l-0.7,0
	L59.3,34.1z M57.2,32.7l1.9-1.3l1.6-1.2l-0.9,1.7l-0.9,2L57.4,33L57.2,32.7z M57,27.1l1.4,1l1.5,1l-2.7-0.4l-0.8-0.2l0.1-0.7
	L57,27.1z M58.2,25.6l0.7-0.2l1,2l0.8,1.6l0,0.1L60,28.4l-2-1.6l-0.6-0.3L58.2,25.6z M60.5,27.7L59.7,26l-0.4-0.8l0.7-0.2L60.5,27.7
	z M61.4,24.7l-0.3,2.7l-0.1,0.7l-0.2-0.8l-0.5-2.5l0.6-0.2L61.4,24.7z M65,26.5l-2.5,1.7l0.7-1.3l0.7-1.5L65,26.5z M56.2,30.3
	l0.1-1.2l3.4,0.6l-1.4,0.3L56.2,30.3z M59.9,30.2l-0.2,0.2l-1.5,1.1L57,32.2l-0.7-1.2L59.9,30.2z M61.9,24.8l1.3,0.3l-1.7,3.6
	l0.3-2.5L61.9,24.8z M61.4,32.4l0.6,1.9l-1.2,0L61,32l0.2-1.1L61.4,32.4z M66.1,30l-2.8-0.1l-1-0.3l3.8-0.9l0.1,0.9L66.1,30z
	 M66,28.1L62.3,29l2-1.4l1.1-0.8l0.6,0.6L66,28.1z M64.2,24.7L61,23.9L57.8,25l-2,2.5L55.5,31l1.4,2.5l2.6,1.4l4,0l2.3-2.1l1.1-3.2
	l-0.3-2.5L64.2,24.7z"/>
</svg>
