<?xml version="1.0" encoding="utf-8"?>
<!-- Generator: Adobe Illustrator 27.2.0, SVG Export Plug-In . SVG Version: 6.00 Build 0)  -->
<svg version="1.1" id="Layer_1" xmlns="http://www.w3.org/2000/svg" xmlns:xlink="http://www.w3.org/1999/xlink" x="0px" y="0px"
	 viewBox="0 0 210 138" style="enable-background:new 0 0 210 138;" xml:space="preserve">
<style type="text/css">
	.st0{fill:#FFAD65;}
	.st1{fill:#FFD394;}
	.st2{fill:#BA7545;}
	.st3{fill:#7B402C;}
	.st4{fill:#523126;}
	.st5{fill:#EF880C;}
	.st6{fill:#D19859;}
	.st7{fill:#B57245;}
	.st8{fill:#B2510E;}
	.st9{fill:#933800;}
	.st10{fill:#EF9D43;}
	.st11{fill:#D17519;}
	.st12{fill:#FFC280;}
	.st13{fill:#FFFFFF;}
	.st14{fill:#319E4A;}
	.st15{fill:#FF4127;}
	.st16{fill:#1D92CC;}
</style>
<path class="st0" d="M180,7.5l-0.1,2.8l-1.1,10.6l25.9,2.7l0.6-5.6l0.7-6.9l-3.6-2.2l-3.9-1.8l-6.4-1.3l-6.9,0.4L180,7.5z"/>
<path class="st1" d="M178.9,9.9l2.7-1.6l3.7-0.4l9.2,0.1l4.4,0.9l4.3,1.9l3,1.9l-0.2,0.6L206,14l-2.3-1.7l-6.6-2.2l-8.3-0.9
	l-6.2,0.5l-3.2,1.9L178.9,9.9z"/>
<path class="st2" d="M206.1,13.4L206.1,13.4l-2.2-1.6l-2.8-1.1l-3.7-1.2l-6.1-0.9l-5.8,0.1l-3.7,0.6l-2.5,1.6l0.2,0.9l3.2-1.9
	l6.2-0.5l8.3,0.9l6.6,2.2L206,14L206.1,13.4z"/>
<path class="st2" d="M198.5,7.1l-6.4-1.3l-6.9,0.4L180,7.5l0,0.9l6-1.7l5-0.2l5.6,0.9l4.4,1.6l2.9,1.6l2,1.1l0.1-0.6l-3.6-2.2
	L198.5,7.1z"/>
<path class="st2" d="M202.9,13.5l-0.8,2.3l-0.4,5.1l-0.2,2.4l1.9,0.2l0.5-4.6l0.2-3.5l-0.5-1.8L202.9,13.5z"/>
<path class="st2" d="M200.6,23.2l0.4-6.4l0.2-2.7l-0.4-1.7l-1.1-0.6l-1.2,0.2l-0.5,0.9l-0.5-0.2l0.2-1l-0.7-0.8l-1.4-0.2l-0.9,0.6
	l-0.5,1.6l-0.2,3.9l-0.5,5.6L200.6,23.2z"/>
<path class="st3" d="M192.4,22.3l0.2-4.6l0.5-4.1l-0.6-1.9l-1.1-0.9l-1.3,0.4l-0.9,1.5l-0.5,5l-0.2,4.2L192.4,22.3z"/>
<path class="st4" d="M189,22l0.6-7.4l0.4-2l1.2-0.6l1,0.6l0.8,1.6l0.1-0.5l-0.6-1.9l-1.1-0.9l-1.3,0.4l-0.9,1.5l-0.5,5l-0.2,4.2
	L189,22z"/>
<path class="st2" d="M187.1,21.8l0.6-6.2l0.2-3.4l-1.4-1.4l-1.4,0.3l-0.5,1.9l-0.5-0.2l-0.1-1.3l-0.7-0.5l-1.4,0.6l-0.9,1.8
	l-0.5,3.8l-0.5,3.9L187.1,21.8z"/>
<path class="st3" d="M185.6,21.6l0.3-4.4v-2.3l-1.4-1.4l-1.4-0.2l-1.4,3l-0.4,4.8L185.6,21.6z"/>
<path class="st4" d="M184.5,13.5l-1.4-0.2l-1.4,3l-0.4,4.8l1.5,0.2l0.2-3.2l0.2-2.7l1-0.9l1.6,0.2L184.5,13.5z"/>
<path class="st3" d="M199.8,17.7l-0.3-2.5l-1.5-0.8h-2l-1,1.4l-0.8,3.2l0.1,3.5l5.2,0.5L199.8,17.7z"/>
<path class="st4" d="M198.4,23l1,0.1l0.3-5.3l-0.3-2.5l-1.5-0.8h-2l-1,1.4l-0.2,0.6l1.6-0.8l2.3,0.9v2.1L198.4,23z"/>
<path class="st2" d="M173.8,21.5l3.7-1.1l5.8-0.2l12.8,1.1l6.3,0.9l4.7,1.4l1.6,1.3l-0.4,7.8l-0.5,9.1l-1.1,15.8L205.5,76L204,99.6
	l-1.4,18.5l-35.9-3.7l3.6-40.4l1.3-17.2l1.1-17l1.2-14.9V21.5z"/>
<path class="st4" d="M202.5,22.2l-6.3-0.9l-12.8-1.1l-5.8,0.2l-3.7,1.1v3.4l-0.5,6.3l5.1-3l8.9-0.9l7.7,0.2l7.4,2.7l4.7,1.9l1.4,1.3
	l0-0.7l0.4-7.8l-1.6-1.3L202.5,22.2z"/>
<path class="st0" d="M207.2,23.6l-4.7-1.4l-6.3-0.9l-12.8-1.1l-5.8,0.2l-3.7,1.1v3.4L173,35.4h0.7l0.5-7.6l0.9,0v-1l-0.5-0.1L175,25
	l1.5-1.1l0.9,0.4l0.4,2l-0.7,0.4v0.4l0.5,0.1l-0.2,7.7l1-0.1l0.3-7.8l0.7-0.1l0.1-0.6l-0.6-0.2l0.4-1.9l1.1-0.7l1.2,0.2l0.4,1.5
	l-0.4,0.5v0.4l0.4,0.1l-0.2,8.5l0.9-0.1l0.2-8.6h0.6v-1l-0.5-0.1l0.6-1.9l1.3-0.5l1.3,0.3l0.8,0.9l0.1,1.3l-0.8,0.1v0.6l0.5,0.2v8.8
	l0.9-0.1l0.2-8.5h0.6l-0.1-0.8l-0.5-0.2l0.4-1.8l1.5-0.9l1.3,0.2l1.2,1.1l0.2,1.8h-0.6l-0.1,0.7l0.5,0.1l-0.2,8.4l1.1,0.1l0.5-8.1
	l0.6-0.1l0.2-1.1l-0.5-0.2l0.9-1.8l1.5-0.4l1.3,0.1l1.2,1.1l0.2,2l-0.5-0.1l-0.1,1l0.3,0.1l-0.4,8.2l0.8,0.1l0.5-8.2l0.6,0.1
	l0.2-0.9l-0.5-0.3l0.9-1.8l1.6-0.2l1.6,0.7l0.8,1.1l0.3,1.3l-1.2,0.1l-0.1,0.8l0.9,0.3l-0.6,8.2l0.9,0.2l0.6-8.1h0.8l-0.1-0.9
	l-0.5-0.5l0.7-0.9l1.1-0.1l0.4,1.6h-0.6V29l0.6,0.2l-0.6,8.5l0.6,0.2l0.3-5.1l0.4-7.8L207.2,23.6z"/>
<path class="st4" d="M207.3,52.1l0.7-10.3l-9.6-3.6l-12-1.3l-8,0.1l-4.8,0.5l-0.8,0.4l-0.1,1.8l-0.4,6.5l3.2-1.4l4.8-1l7.3,0.3
	l6.9,0.9l5.5,1.3l3.7,2L207.3,52.1z"/>
<path class="st0" d="M207.1,54.7l0.9-12.8l0.1-1.5l-5.1-2.6l-13.6-2L175,35.6l-2.1,1.2l-0.2,3l-0.8,12.4h0.8l0.5-7.6l0.9,0v-1
	l-0.5-0.1l0.5-1.7l1.5-1.1l0.9,0.4l0.4,2l-0.7,0.4v0.4l0.5,0.1l-0.2,7.7l1-0.1l0.3-7.8l0.7-0.1l0.1-0.6l-0.6-0.2l0.4-1.9l1.1-0.7
	l1.2,0.2l0.4,1.5l-0.4,0.5v0.4l0.4,0.1l-0.2,8.5l0.9-0.1l0.2-8.6h0.6v-1l-0.5-0.1l0.6-1.9l1.3-0.5l1.3,0.3l0.8,0.9l0.1,1.3l-0.8,0.1
	v0.6l0.5,0.2v8.8l0.9-0.1l0.2-8.5h0.6l-0.1-0.8l-0.5-0.2l0.4-1.8l1.5-0.9l1.3,0.2l1.2,1.1l0.2,1.8h-0.6l-0.1,0.7l0.5,0.1l-0.2,8.4
	l1.1,0.1l0.5-8.1l0.6-0.1l0.2-1.1l-0.5-0.2l0.9-1.8l1.5-0.4l1.3,0.1l1.2,1.1l0.2,2l-0.5-0.1l-0.1,1l0.3,0.1l-0.4,8.2l0.8,0.1
	l0.5-8.2l0.6,0.1l0.2-0.9l-0.5-0.3l0.9-1.8l1.6-0.2l1.6,0.7l0.8,1.1l0.3,1.3l-1.2,0.1l-0.1,0.8l0.9,0.3l-0.6,8.2l0.9,0.2l0.6-8.1
	h0.8l-0.1-0.9l-0.5-0.5l0.7-0.9l1.1-0.1l0.4,1.6h-0.6v0.7l0.6,0.2l-0.6,8.5L207.1,54.7z"/>
<path class="st4" d="M206.2,67.2l0.7-9.1l-9.6-3.6l-11.3-1l-9.9,0.4l-4.4,1.3l-0.1,1.6l-0.5,6.6l3.8-1.8l7.2-0.9l7.6-0.1l6.6,1.2
	l5.4,1.7l2.4,1.6L206.2,67.2z"/>
<path class="st0" d="M207,56.6l-5-2.5l-13.6-2L174,51.8l-2.1,1.2l-0.2,3.7l-0.9,11.7h0.9l0.5-7.6l0.9,0v-1l-0.5-0.1L173,58l1.5-1.1
	l0.9,0.3l0.4,2l-0.7,0.4v0.4l0.5,0.1l-0.2,7.7l1-0.1l0.3-7.8l0.7-0.1l0.1-0.6l-0.6-0.2l0.4-1.9l1.1-0.7l1.2,0.2l0.4,1.5l-0.4,0.5
	v0.4l0.4,0.1l-0.2,8.5l0.9-0.1l0.2-8.6h0.6v-1l-0.5-0.1l0.6-1.9l1.3-0.5l1.3,0.3l0.8,0.9l0.1,1.3l-0.8,0.1v0.6l0.5,0.2v8.8l0.9-0.1
	l0.2-8.5h0.6l-0.1-0.8l-0.5-0.2l0.4-1.8l1.5-0.9l1.3,0.2l1.2,1.1l0.2,1.8h-0.6l-0.1,0.7l0.5,0.1l-0.2,8.4l1.1,0.1l0.5-8.1l0.6-0.1
	l0.2-1.1l-0.5-0.2l0.9-1.8l1.5-0.4l1.3,0.1l1.2,1.1l0.2,2l-0.5-0.1l-0.1,1l0.3,0.1l-0.4,8.2l0.8,0.1l0.5-8.2l0.6,0.1l0.2-0.9
	l-0.5-0.3l0.9-1.8l1.6-0.2l1.6,0.7l0.8,1.1l0.3,1.3l-1.2,0.1l-0.1,0.8l0.9,0.3L202,70l0.9,0.2l0.6-8.1h0.8l-0.1-0.9l-0.5-0.5
	l0.7-0.9l1.1-0.1l0.4,1.6h-0.6v0.7l0.6,0.2l-0.6,8.5l0.4,0.1l1-13.2L207,56.6z"/>
<path class="st4" d="M193.8,69.9l-12.2-1.2l-8,0.5l-3,1l-0.3,3.6l-0.4,4.5l7.2-1.9l9.7,0.9l9.8,0.5l5.1,1.8l3.3,2.6l0.4-6.4l0.2-2.3
	L193.8,69.9z"/>
<path class="st0" d="M200.9,69.8l-13.6-2l-14.4-0.2l-2.2,1.3l-0.4,5l-0.9,10.3h1.2l0.5-7.6l0.9,0v-1l-0.5-0.1l0.5-1.7l1.5-1.1
	l0.9,0.4l0.4,2l-0.7,0.4V76l0.5,0.1l-0.2,7.7l1-0.1l0.3-7.8l0.7-0.1l0.1-0.6l-0.6-0.2l0.4-1.9l1.1-0.7l1.2,0.2l0.4,1.5l-0.4,0.5v0.4
	l0.4,0.1l-0.2,8.5l0.9-0.1l0.2-8.6h0.6v-1l-0.5-0.1l0.6-1.9l1.3-0.5l1.3,0.3l0.8,0.9l0.1,1.3l-0.8,0.1v0.6l0.5,0.2v8.8l0.9-0.1
	l0.2-8.5h0.6l-0.1-0.8l-0.5-0.2l0.4-1.8l1.5-0.9l1.3,0.2l1.2,1.1l0.2,1.8h-0.6l-0.1,0.7l0.5,0.1l-0.2,8.4l1.1,0.1l0.5-8.1l0.6-0.1
	l0.2-1.1l-0.5-0.2l0.9-1.8l1.5-0.4l1.3,0.1l1.2,1.1l0.2,2l-0.5-0.1l-0.1,1l0.3,0.1l-0.4,8.2l0.8,0.1l0.5-8.2l0.6,0.1l0.2-0.9
	l-0.5-0.3l0.9-1.8l1.6-0.2l1.6,0.7l0.8,1.1l0.3,1.3l-1.2,0.1l-0.1,0.8l0.9,0.3l-0.6,8.2l0.9,0.2l0.6-8.1h0.8l-0.1-0.9l-0.5-0.5
	l0.7-0.9l1.1-0.1l0.4,1.6h-0.6v0.7l0.6,0.2l-0.6,8.5l0.4,0.1l0.7-10.6l0.3-3.7L200.9,69.8z"/>
<path class="st4" d="M204.6,89.9l-8.8-3.4l-13.2-2.2l-7.4,0.7l-5.9,1.2l-0.2,0.1l-0.7,8.1l3.8-1.6l6.9-0.4l10.1,0.5l6.9,1.6l4.7,1.6
	l3,2.6L204.6,89.9z"/>
<path class="st0" d="M199.5,85.3l-13.6-2l-14.4-0.2l-2.1,1.2L168,99.7h1.2l0.5-7.6l0.9,0v-1L170,91l0.5-1.7l1.5-1.1l0.9,0.4l0.4,2
	l-0.7,0.4v0.4l0.5,0.1l-0.2,7.7l1-0.1l0.3-7.8l0.7-0.1l0.1-0.6l-0.6-0.2l0.4-1.9l1.1-0.7l1.2,0.2l0.4,1.5l-0.4,0.5v0.4l0.4,0.1
	l-0.2,8.5l0.9-0.1l0.2-8.6h0.6v-1l-0.5-0.1l0.6-1.9l1.3-0.5l1.3,0.3l0.8,0.9l0.1,1.3l-0.8,0.1v0.6l0.5,0.2v8.8l0.9-0.1l0.2-8.5h0.6
	l-0.1-0.8l-0.5-0.2l0.4-1.8l1.5-0.9l1.3,0.2l1.2,1.1l0.2,1.8h-0.6l-0.1,0.7l0.5,0.1l-0.2,8.4l1.1,0.1l0.5-8.1l0.6-0.1l0.2-1.1
	l-0.5-0.2l0.9-1.8l1.5-0.4l1.3,0.1l1.2,1.1l0.2,2l-0.5-0.1l-0.1,1l0.3,0.1l-0.4,8.2l0.8,0.1l0.5-8.2l0.6,0.1l0.2-0.9l-0.5-0.3
	l0.9-1.8l1.6-0.2l1.6,0.7l0.8,1.1l0.3,1.3l-1.2,0.1l-0.1,0.8l0.9,0.3l-0.6,8.2l0.9,0.2l0.6-8.1h0.8l-0.1-0.9l-0.5-0.5l0.7-0.9
	l1.1-0.1l0.4,1.6H203v0.7l0.6,0.2l-0.6,8.5l0.7,0.2l0.2-2.7l0.8-11.6L199.5,85.3z"/>
<path class="st4" d="M203.6,105.4l-6.9-2.9l-9.4-1.6l-7.3-0.7l-7.2,0.6l-5,1.9l-0.7,8l4.7-1.9c0,0,7-0.5,7.3-0.5
	c0.2-0.1,9,0.2,9,0.2l7.2,1.9l5.3,1.3l2.5,1.6L203.6,105.4z"/>
<path class="st0" d="M202.6,118l1.1-14l-5.4-2.8l-13.6-2l-14.4-0.2l-2.3,1.3l-1.2,13.9l1.3,0.1l0.4-6.4l0.9,0v-1l-0.5-0.1l0.5-1.7
	l1.5-1.1l0.9,0.4l0.4,2l-0.7,0.4v0.4l0.5,0.1l-0.2,7.2l1,0.1l0.3-7.5l0.7-0.1l0.1-0.6l-0.6-0.2l0.4-1.9l1.1-0.7l1.2,0.2l0.4,1.5
	l-0.4,0.5v0.4l0.4,0.1l-0.2,8.5l0.9-0.1l0.2-8.6h0.6v-1l-0.5-0.1l0.6-1.9l1.3-0.5l1.3,0.3l0.8,0.9l0.1,1.3l-0.8,0.1v0.6l0.5,0.2v8.8
	l0.9-0.1l0.2-8.5h0.6l-0.1-0.8l-0.5-0.2l0.4-1.8l1.5-0.9l1.3,0.2l1.2,1.1l0.2,1.8h-0.6l-0.1,0.7l0.5,0.1l-0.2,8.4l1.1,0.1l0.5-8.1
	l0.6-0.1l0.2-1.1l-0.5-0.2l0.9-1.8l1.5-0.4l1.3,0.1l1.2,1.1l0.2,2l-0.5-0.1l-0.1,1l0.3,0.1l-0.4,8.2l0.8,0.1l0.5-8.2l0.6,0.1
	l0.2-0.9l-0.5-0.3l0.9-1.8l1.6-0.2l1.6,0.7l0.8,1.1l0.3,1.3l-1.2,0.1l-0.1,0.8l0.9,0.3l-0.6,8.2l0.9,0.2l0.6-8.1h0.8l-0.1-0.9
	l-0.5-0.5l0.7-0.9l1.1-0.1l0.4,1.6h-0.6v0.7l0.6,0.2l-0.6,8.4L202.6,118z"/>
<path class="st1" d="M173.5,23l2-0.7l5.9-0.6l6.1,0.4l7.2,0.6l6.5,0.5l4.3,1.1l2.3,1.2l1.2,0.6l0.1-1.6l-2.1-1.3l-3.2-1.1l-5.6-0.9
	l-8.9-0.9l-6.5-0.6l-4,0.3l-3.3,0.6l-2,0.7L173.5,23z"/>
<path class="st2" d="M207.2,24.4l-1.7-0.9l-3.7-1l-7-0.8l-8.7-0.9l-8.8,0.2l-3.9,1.2l0,0.9l2-0.7l5.9-0.6l6.1,0.4l7.2,0.6l6.5,0.5
	l4.3,1.1l2.3,1.2l1.2,0.6l0-0.5L207.2,24.4z"/>
<path class="st1" d="M172.4,35.3l2.5-0.7l4.7-0.5l6-0.2l6.6,0.5l4.7,0.5l5.6,1.1l2.5,0.5l3.6,1.5l-0.1,0.7l-0.1,0.6l-2.1-1.1
	l-4.2-1.2l-8.7-1.4l-7.5-0.3l-7.7-0.1l-5.8,1.2L172.4,35.3z"/>
<path class="st2" d="M208,38l-2.5-0.7l-4.7-1.1l-6-0.9l-7.1-0.6l-8.5,0.1l-6.7,0.9l0.1,0.6l5.8-1.2l7.7,0.1l7.5,0.3l8.7,1.4l4.2,1.2
	l2.1,1.1l0.1-0.6l0-0.1L208,38z"/>
<path class="st1" d="M171.1,51.3l3.6-0.6l7.1-0.3l6.8,0.2l6.1,0.4l5,0.9l4.7,1.2l3,1.6l-0.2,1.6l-3.1-1l-4.9-1.2l-9.5-1.6l-9.2-0.2
	l-5.7,0.5l-3.7,0.6L171.1,51.3z"/>
<path class="st2" d="M204.3,53.8l-3.4-0.9l-6.5-0.8l-6.6-0.6l-9,0.1l-7.5,0.9l0.1,0.7l3.7-0.6l5.7-0.5l9.2,0.2l9.5,1.6l4.9,1.2
	l3.1,1l0.1-0.8L204.3,53.8z"/>
<path class="st1" d="M170.3,67.8l3.2-1.2l7.2-0.2l6.8,0.2l6,0.7l5.3,0.9l3.2,0.6l4.4,1.5l-0.2,1.7l-6.2-2l-10.2-1.4l-8.7-0.4
	l-6.5,0.2l-4.4,1.2L170.3,67.8z"/>
<path class="st2" d="M204.9,70.4l-4-1.2l-7-1.2l-5-0.6h-6.2l-6.2,0.1l-6.2,1l-0.1,1l4.4-1.2l6.5-0.2l8.7,0.4l10.2,1.4l6.2,2l0.1-1
	L204.9,70.4z"/>
<path class="st1" d="M168.9,83.4l3.2-0.9l7-0.2l7.7,0.2l4.6,0.2l5.9,0.6l4.7,1.5l3.3,1.6l-0.1,2l-3.6-1.6l-6.3-1.8l-8.8-0.9
	l-7.6-0.1l-6.6,0.6l-3.4,0.9L168.9,83.4z"/>
<path class="st2" d="M200.7,85.4l-3.8-1.3l-6.4-0.8l-8.7-0.2l-8.2,0.2l-4.8,1.1l0,1l3.4-0.9l6.6-0.6l7.6,0.1l8.8,0.9l6.3,1.8
	l3.6,1.6l0.1-1L200.7,85.4z"/>
<path class="st1" d="M167.3,99.3l3-1.1l8.2-0.6l7.6,0.2l7.5,1.2l5.5,1.3l5,1.8l-0.1,1.6l-6.1-2l-11.1-2l-9.2-0.5l-8,0.8l-2,0.8
	L167.3,99.3z"/>
<path class="st2" d="M199,101.1l-5.8-1.3l-6.7-1.2l-7-0.3l-7.3,0.8l-4.7,0.9l0.1,0.8l2-0.8l8-0.8l9.2,0.5l11.1,2l6.1,2l0.1-0.8
	L199,101.1z"/>
<path class="st1" d="M165.5,114.3l6.4,1l20.5,2l11.2,1.3l-1.6,19.3l-39-0.1l0.8-11L165.5,114.3z"/>
<path class="st0" d="M201.1,137.9l1,0l1.6-19.3l-11.2-1.3l-20.5-2l-6.4-1l-1.7,12.5l-0.8,11l1.6,0l0.5-5.7l0.6-7l0.4-3.6l0.8-2.5
	l1.3-1.5l1.9-0.4l1.6,0.6l1.4,1.7l0.3,2.4l-0.8,7.5l-0.3,5.6l-0.1,3l1.8,0l0.5-9.4l0.4-6.1l1.5-3.4l1.9-0.9l1.5,0.4l1.1,1.4
	l-0.1,3.3l-0.5,14.7l2.1,0l0.5-13.2c0,0,0.6-3.2,0.6-3.3s1.5-2.5,1.5-2.5l1.6-0.7l2.1,0.6l0.8,1.2l0.3,2.6l-0.2,11.1l-0.5,4.1l1.9,0
	l0.4-10.1l0.4-5.6l0.7-2.1l1.4-1l1.2,0.1l1.2,1.2l0.5,1.5v6.3l-0.4,9.7l1.9,0l0.2-10.7l0.5-4.8l0.8-2.3l1.8-0.1l0.9,1.3l-0.6,7
	L201.1,137.9z"/>
<path class="st3" d="M172.5,116.8l-1.7-0.9l-2.2,0.2l-1.6,1.2l-1,3.1l0.1,1.1l0.8-2.5l1.3-1.5l1.9-0.4l1.6,0.6l1.4,1.7l0.2,1.8
	l0.2-1.1l-0.5-1.8L172.5,116.8z"/>
<path class="st3" d="M178.3,116.6l-1.9,0.9l-1.2,2l-0.5,1.9l0.1,0.9l1.5-3.4l1.9-0.9l1.5,0.4l1.1,1.4l-0.1,1.6l0.3-2.7l-1.1-1.5
	L178.3,116.6z"/>
<path class="st3" d="M187.3,117.4l-1.9,0.1l-1.5,1.5l-0.9,2.6l0,1.9c0.2-0.9,0.4-2,0.4-2.1c0-0.2,1.5-2.5,1.5-2.5l1.6-0.7l2.1,0.6
	l0.8,1.2l0.1,1.2l0.1-1.6l-0.5-1.3L187.3,117.4z"/>
<path class="st3" d="M194.6,118l-1.5,0.1l-1.2,1.2l-0.4,2.3l0.1,1.6l0.1-1l0.7-2.1l1.4-1l1.2,0.1l1.2,1.2l0.5,1.3l0.2-1.6l-0.7-1.3
	L194.6,118z"/>
<path class="st3" d="M202.8,120.8l-0.7-1.5l-1.5-0.4l-1.3,0.7l-0.5,2.3l0.1,1.5l0.1-1l0.8-2.3l1.8-0.1l0.9,1.3l-0.2,1.9L202.8,120.8
	z"/>
<path class="st2" d="M164.5,119l2.7,0.5l-0.6,2.1l-2.3-0.5L164.5,119z"/>
<path class="st2" d="M172.5,119.9l3.3,0.8l-0.8,1.9l-2.2-0.7L172.5,119.9z"/>
<path class="st2" d="M180.4,120.3l0.1,2l2.9,0.1l0.5-1.7L180.4,120.3z"/>
<path class="st2" d="M189.2,120.6l0.1,2l2.5-0.1l0.5-1.7L189.2,120.6z"/>
<path class="st2" d="M196.2,121.3l0.2,1.7l2.7,0.1l0.3-1.6L196.2,121.3z"/>
<path class="st2" d="M202.1,121.7l-0.1,1.6l1.6,0.1l0.1-1.7H202.1z"/>
<path class="st1" d="M202,122.3l1.6,0.2l0.1-0.8h-1.6L202,122.3z"/>
<path class="st1" d="M196.3,122.1l2.9,0.2l0.1-0.8l-3.2-0.2L196.3,122.1z"/>
<path class="st1" d="M189.3,121.5l2.8,0.2l0.3-0.8l-3.2-0.3L189.3,121.5z"/>
<path class="st1" d="M180.4,121.3l3.2,0.3l0.3-0.8l-3.5-0.4L180.4,121.3z"/>
<path class="st1" d="M172.7,120.9l2.8,0.5l0.3-0.7l-3.3-0.8L172.7,120.9z"/>
<path class="st1" d="M164.4,119.7l2.5,0.5l0.2-0.8l-2.7-0.5L164.4,119.7z"/>
<path class="st0" d="M170.1,117.9l0.4,0.1l1.3,2.1l-0.1,0.5l-1.9,2.2l-0.4-0.1l-1.8-2.2l0.1-0.7L170.1,117.9z"/>
<path class="st0" d="M178,118.9h0.6l1.2,2.3v0.4l-1.9,1.7l-0.4-0.1l-1.6-1.6l0.1-0.5L178,118.9z"/>
<path class="st0" d="M186.4,119.2h0.3l1.6,2.3v0.5l-1.5,2.4l-0.5-0.1l-2.1-2.3l0.1-0.5L186.4,119.2z"/>
<path class="st0" d="M194.2,119.8l0.4,0.1l1.3,2.1l-0.1,0.4l-1.5,2.3l-0.4-0.1l-1.6-2.5v-0.5L194.2,119.8z"/>
<path class="st0" d="M200.7,120.6l0.4,0.1l0.8,1.7l-1.1,2.5l-1.2-2.3L200.7,120.6z"/>
<path class="st3" d="M170.2,118.8l-1.7,1.5l1.3,1.7l1.3-1.6L170.2,118.8z"/>
<path class="st3" d="M178.2,119.9l-1.3,1.6l0.8,1.1l1.3-1.1L178.2,119.9z"/>
<path class="st3" d="M186.4,120.3l-1.3,1.4l1.5,1.6l1-1.6L186.4,120.3z"/>
<path class="st3" d="M194.4,120.7l-1.2,1.2l0.9,1.6l1-1.5L194.4,120.7z"/>
<path class="st3" d="M200.9,121.4l-0.5,0.8l0.4,1.1l0.4-1L200.9,121.4z"/>
<path class="st0" d="M171.3,137.8l0.7-10.1l-0.6-2.2l-1.5-0.7l-1.8,0.4l-1.2,1.5l-0.3,4.5l-0.5,6.6L171.3,137.8z"/>
<path class="st2" d="M167.8,130.6l0.4-2.9l1.9-1.1l1.2,0.9v3.2L167.8,130.6z"/>
<path class="st3" d="M166.2,130.5l3-0.2l2.9,0.2l-0.1,0.7l-5.7-0.1L166.2,130.5z"/>
<path class="st2" d="M165.1,113.7h3.2l8.4,0.8l7.4,0.4l4.2,0.2l6.1,0.8l5.5,0.6l3.9,1l0.2,1.6l-1.9-0.2l-9.2-1.3l-9.2-0.8l-6.4-0.6
	l-6.3-0.7l-5.1,0.1l-0.6-0.2L165.1,113.7z"/>
<path class="st1" d="M170.9,114.5l10.5,1l11.1,0.8l7.2,1.1l4.1,0.9l-0.1-0.9l-3.9-1l-5.5-0.6l-6.1-0.8l-4.2-0.2l-7.4-0.4l-8.4-0.8
	h-3.2l0,0.9L170.9,114.5z"/>
<path class="st5" d="M73.1,76.1l0.6,5.4l6.8,0l-0.2-5.8l-4.4,0L73.1,76.1z"/>
<path class="st6" d="M128.5,88.6l-2-0.2l0-2.9l2.1,0.5L128.5,88.6z M114.7,93.3l-0.3-1.4l0.2-3.2l0.6-0.6l1.8,0.3l1,1.9l0.1,2.5
	l0,0.8L114.7,93.3z M110.8,86.5l-2.8-0.4l0.1-4.2l2.7,0.3L110.8,86.5z M154.3,118.5l-0.8-10.2l0.1-8.5l-0.8-8l-3.1-3.1l-9.4-3.8
	l-20.2-5.9L105,77.2l-19.8-1.9l-0.9,6.2l7.2,2.5l1.2,21.6l20.2,3.9l2.5,25.8l5.9,0.5l20.2,0.8l13,0.5l0.5-5.4L154.3,118.5z"/>
<path class="st7" d="M132.4,101.8l-0.5,34.4l9.5,0.4l13,0.5l0.5-5.4l-0.6-13.1l-0.8-10.2l0.1-8.5l-0.8-8l-3.1-3.1l-9.4-3.8l-8.4-2.5
	L132.4,101.8z"/>
<path class="st8" d="M154.9,131.6l-0.6-13.1l-0.8-10.2l0.1-8.5l-0.8-8l-3.1-3.1l-3.7-1.5l0.7,21.1l0.3,28.4l7.4,0.3L154.9,131.6z"/>
<path class="st9" d="M152.1,105.8l0.1,31.1l2.2,0.1l0.5-5.4l-0.6-13.1l-0.8-10.2l0.1-8.5l-0.8-8l-1.2-1.1L152.1,105.8z"/>
<path class="st8" d="M153,92.7l-0.1-0.9l-3.1-3.1l-9.4-3.8l-20.2-5.9L105,77.2l-19.8-1.9L85,76.5l4,0.2l8.4,1.1l15.6,1.7l8.8,1.2
	l8.6,2.5l9.6,3.2l6.6,2L153,92.7z"/>
<path class="st9" d="M140.8,87.8l0,4.2l1.8,0.3l0.3-3.8L140.8,87.8z"/>
<path class="st9" d="M148.1,91l0.3,4.4l1.4,0.2l0.3-3.6L148.1,91z"/>
<path class="st0" d="M112.2,111.5l7.3,0.3l13.9,1.7l7.8,1.3l7.7,2.4l4.5,1.4l1.5,0.7l0.9-1.5l-1.1-1.7l-6.2-1.5l-7.2-1.6l-9.6-1.7
	l-7.9-0.6l-6.1-0.6l-6.5,0.3L112.2,111.5z"/>
<path class="st9" d="M151.9,116.7l-6.5-1.7l-7.6-1.9l-10.2-1.4l-10.4-1l-5.4,0.3l0.4,0.5l7.3,0.3l13.9,1.7l7.8,1.3l7.7,2.4l4.5,1.4
	l1.5,0.7l0.4-0.7L151.9,116.7z"/>
<path class="st9" d="M93.8,92.9l3.6,0.3l1.4,1.4l0.6,3.4l-0.3,7.8l-5.8-0.6L93.8,92.9z"/>
<path class="st9" d="M104.1,94l-1.7,1.4l-0.8,3.2l-0.2,7.4l6.4,0.8l0.2-7.5l-0.6-4l-2-1.1L104.1,94z"/>
<path class="st9" d="M114.1,94.6l-2.8,0.7l-0.8,3.3l-0.3,8.4l4.1,0.6l2.8,0.1l0.2-9.9l-0.8-2.4L114.1,94.6z"/>
<path class="st9" d="M123.2,95.4l-2.7,0.4l-1.1,1.8l-0.8,10.2l6.3,0.5l0.5-6.3l-0.9-5.2L123.2,95.4z"/>
<path class="st8" d="M131.1,96.1l-1.6,0.9l-0.6,2.5l-0.5,6.6l0.2,2.4l6.4,1l-0.1-7.9l-0.5-3.9l-1.3-1L131.1,96.1z"/>
<path class="st9" d="M142.6,98l-2.8,0.2l-1.3,2.5l-0.6,9.1l5.2,1.2l0.7-6.8l-0.1-4.4L142.6,98z"/>
<path class="st9" d="M147.6,98.6l-1.9,0.8l-0.6,5.7l-0.3,6.2l4.1,0.6l0-7.9l-0.6-4.2L147.6,98.6z"/>
<path class="st9" d="M152.5,99.9l-1.5-0.2l-0.4,3.5l-0.5,9.4l2.8,0.6l0.2-6.7l-0.2-5.4L152.5,99.9z"/>
<path class="st8" d="M97.4,93.3l-3.6-0.3l0,0.7l2.8,1l0.8,2.4l0,3.3l-0.8,5.3l2.4,0.2l0.3-7.8l-0.6-3.4L97.4,93.3z"/>
<path class="st7" d="M105.3,94.1l-1.2-0.1l-0.8,0.6l1.8,0.8l0.6,2.1l-0.2,5.6l-0.2,3.3l2.3,0.3l0.2-7.5l-0.6-4L105.3,94.1z"/>
<path class="st7" d="M114.1,94.6l-2.8,0.7l-0.3,1.4l2.4-0.2l1.8,1.4l0.3,3.1l-0.5,6.6l2.1,0.1l0.2-9.9l-0.8-2.4L114.1,94.6z"/>
<path class="st8" d="M125,108.2l0.5-6.3l-0.9-5.2l-1.5-1.4l-2.7,0.4l-0.8,1.3l2.1-0.1l1.5,1.2l0.1,3.5l-0.4,6.4L125,108.2z"/>
<path class="st9" d="M134.9,101.7l-0.5-3.9l-1.3-1l-2-0.6l-1.6,0.9l-0.4,1.5l1.4-0.3l1.6,0.4l0.7,1.9l0.3,5.7l0.2,3l1.6,0.2
	L134.9,101.7z"/>
<path class="st6" d="M141.4,110.7l1.7,0.4l0.7-6.8l-0.1-4.4l-1.1-1.9l-2.8,0.2l-0.8,1.6l1.2-0.1l1.8,1.3l0.3,1.8l-0.3,3.5
	L141.4,110.7z"/>
<path class="st7" d="M147.6,98.6l-1.9,0.8l-0.2,2.2l0.8,1.2c0,0,0.2,3.2,0.2,3.4c0,0.2-0.2,3.8-0.3,5.3l2.7,0.4l0-7.9l-0.6-4.2
	L147.6,98.6z"/>
<path class="st9" d="M125.7,135.9l0.2-9.1l0.2-3.9l-1.8-3.4l-1.7-0.3l-2.5,2.6l-0.8,5.1l0.4,8.8l1.4,0.1L125.7,135.9z"/>
<path class="st9" d="M133.6,134.5l0.5-10.7l-0.6-2.4l-2-1.2l-1.4,0.9l-1.2,3.3l-0.4,5.3l-0.5,6.4l5.5,0.2L133.6,134.5z"/>
<path class="st9" d="M140.6,126.7l-0.1-4.1l-2-1.8l-2,0.1l-0.4,2.2l-0.4,5.6l-0.7,7.6l5.7,0.2L140.6,126.7z"/>
<path class="st8" d="M147.6,136.8l-0.1-3.7l0-7.5l-1.2-3l-1.5-1.3l-1.4,0.8l-0.8,2.6l-0.3,3.8l0,8L147.6,136.8z"/>
<path class="st9" d="M153.4,137l-0.1-10.7l-0.6-3l-2.1-0.4l-1.1,2.4l-0.2,4.4l-0.1,7.1L153.4,137z"/>
<path class="st7" d="M122.7,119.2l-1.5,1.6l1.7,0.8l0.7,2.4l-0.1,11.8l2.2,0.1l0.2-9.1l0.2-3.9l-1.8-3.4L122.7,119.2z"/>
<path class="st8" d="M131.5,120.2l-1.4,0.9l-0.4,1l1.3,0.8l0.5,2.7c0,0-0.4,8-0.4,10.5l2.4,0.1l0-1.7l0.5-10.7l-0.6-2.4L131.5,120.2
	z"/>
<path class="st8" d="M138.5,120.8l-2,0.1l-0.3,1.9l2,0.1l1.2,2.2l-0.2,3l-0.1,8.4l1.6,0.1l0-9.9l-0.1-4.1L138.5,120.8z"/>
<path class="st9" d="M147.6,136.8l-0.1-3.7l0-7.5l-1.2-3l-1.5-1.3l-1.4,0.8l-0.4,1.4l1.1,0.1l1.2,1.3l0.6,2.1l0.1,4.5l0,5.3
	L147.6,136.8z"/>
<path class="st7" d="M153.4,137l-0.1-10.7l-0.6-3l-2.1-0.4l-0.6,1.4l1.7,0.3l0.2,4l0,8.3L153.4,137z"/>
<path class="st0" d="M126.3,91.9l-0.1,3.9l0.2,6.7l-0.5,6.8l1.2,0.1l1.2-12.7l0-4.9L126.3,91.9z"/>
<path class="st0" d="M135.8,95.8l0,5.8l-0.2,7.2l-0.2,2.1l1.7,0.2l0.7-9l0.6-6.2l-0.3-2.6l-2.2-0.4L135.8,95.8z"/>
<path class="st0" d="M108.7,90l-0.2,6.6l-0.4,10.6l1.3,0.2l1.1-15.1l0-2.7l-1.7-0.6L108.7,90z"/>
<path class="st0" d="M119,122.2l0.2-9.2l-2.4-0.5l0.3,22.9l1.5,0.1L119,122.2z"/>
<path class="st0" d="M127.5,136l0.7-16l0.2-6.2l-1.4-0.2l-0.1,6.5l-0.4,7.4l-0.1,8.4L127.5,136z"/>
<path class="st0" d="M100,87.7l-0.1,4.4l0,6l-0.2,7.6l0.9,0.1l0.7-9.9l0.9-8.5L100,87.7z"/>
<path class="st10" d="M88.6,105l-6.2-0.3l0.2-6.3l0.1-0.8l0.1-0.7l2.3-1.5l2.3,0.2l1.6,1.1l1.2,8.4L88.6,105z M73.7,104.8l-2.2-0.1
	l-0.9-6l2.2-3.8l2.9,0.8l1.3,0.8l0.8,1l0.6,7.3L73.7,104.8z M117.3,123.8l-1.9-16.8l-3.7-0.5l-9.8-1.5l-6.9-0.5l-0.7-20.3l-1.1-2.5
	l-4-0.6l-12.4-0.6l-10.3,0l-1.7,0.9l0.3,23.5l11.5,2.9l13.9,27l8.2,0.9l19.1,0.4L117.3,123.8z"/>
<path class="st8" d="M93.9,105l1.2-0.7l-0.7-20.1l-1.1-2.5l-3.1-0.5l2.3,2.4L93,95.3l0.8,8.7L93.9,105z"/>
<path class="st11" d="M115.9,136.1l2.1,0l-0.7-12.3l-1.9-16.8l-1.2-0.1L115.9,136.1z"/>
<path class="st11" d="M65.9,84l13.2-0.1L89.5,84l2.4,0.2l-0.4,0.9l-25.8-0.4L65.9,84z"/>
<path class="st11" d="M65.8,85.4l0.4,1.4l15.4,0.4l5,0l4.5-0.1l0-1L65.8,85.4z"/>
<path class="st11" d="M93.3,81.7l-4-0.6l-12.4-0.6l-10.3,0l-1.7,0.9l0,0.6l5.5,0.1l7.5-0.2l6.8,0.2l9,0.5L93.3,81.7z"/>
<path class="st8" d="M99.3,124.1l-0.5-5.9l-3.6-2.3l-2.2-0.1l-2.6,2.9l-0.8,5.1l0.3,9.7l0.7,1.3l8.2,0.9l0.8,0L99.3,124.1z"/>
<path class="st8" d="M113.5,124.7l-1.2-4.5l-2.5-1.8l-2.9-0.5l-2.2,2.2l-0.9,6.4l0.6,9.3l8.8,0.2L113.5,124.7z"/>
<path class="st11" d="M99.7,135.7l-0.4-11.6l-0.5-5.9l-3.6-2.3l-2.2-0.1l-2.6,2.9l-0.3,1.9l2.9-0.9l2.7,1.8l1.1,3.4l0.5,10.6
	l1.5,0.2L99.7,135.7z"/>
<path class="st11" d="M113.1,136l0.4-11.4l-1.2-4.5l-2.5-1.8l-2.9-0.5l-2.2,2.2l-0.2,1.6l3.4-1l2.3,3l0.4,3.6l-0.4,8.6L113.1,136z"
	/>
<path class="st11" d="M90,93.8l-2-2.4l-2.4-0.1l-2.6,1.8l-0.3,3.8l2.3-1.5l2.3,0.2l1.6,1.1l1.2,8.4l1.1,0.1L90,93.8z"/>
<path class="st11" d="M77.6,93.6l-1.8-2.4l-2.9-0.6L70,92.3l-0.8,4.4l0.2,8l2.2,0.1l-0.9-6l2.2-3.8l2.9,0.8l1.3,0.8l0.8,1L77.6,93.6
	z"/>
<path class="st12" d="M76.6,106.7l8.6,0.1l10,0.2l8.8,0.8l9.2,1.3l-0.4,2.5l-9.8-1.8l-14.6-0.7l-9.8-0.2l-1.2-1.1L76.6,106.7z"/>
<path class="st12" d="M79.1,110.2l9,0l11,0.6l8.7,0.9l5.3,1.3l0,0.6l-13.6-1.6l-10.3-0.6l-9.9-0.3L79.1,110.2z"/>
<path class="st0" d="M57.4,69.6l0,5.7l-4.8-0.1l-0.2-9l0.8-2.3l2.2-1.7l1.8,0.8L57.4,69.6z M46.3,76.2l-3.7,0.3l0-4l-0.3-3.6l1-2.7
	l1.8-0.9l1.1,1.2L46.3,76.2z M34.3,77.5l-0.4-8.2l0.2-2.7l1.7-0.7l0.6,0.3l0.1,1.8l0.2,9L34.3,77.5z M29.8,78.6l-1.5,0.3l0.1-8.8
	l0.4-1.1l0.8,0.2l0.2,2.1L29.8,78.6z M91.5,129l-7.9-15.6l-1.9-9.1l-5.1-0.8l-2.7-5.4l-1.5-8.9L71.5,82L71,77l-4.3-3l-0.3-3.1
	L65.7,57l-5.2-3.7l-6,0.6l-17.8,2.3L22,60.8l-10.9,5.3l-9.3,6.8l0,16.9l0.5,5.6L4,120.9l0.9,13.9l30.1-0.3l24.3,0.3l21.5,0.3
	l13.2,0.5L91.5,129z"/>
<path class="st2" d="M2.6,54.6l0.2,4L2.1,70.9L16,62l19.8-6.8l23.8-2.6l-7.2-15.8L47,30.1l-2-0.7l-6.2,2.4L30,35.4l-14.1,7.1l-9,6.8
	L2.6,54.6z"/>
<path class="st3" d="M52.4,36.8L47,30.1l-2-0.7l3.1,3.6l2.8,8.2L55.6,53l4-0.4L52.4,36.8z"/>
<path class="st3" d="M1.1,57.7l5.5-5.1l8.8-7.5l7.7-4.2L33.3,36l9-3.5l4.2-1.3l2.6,0.4l0-2.4l-3.9-0.7l-5.9,1.1l-22.1,9.7L7.1,47.1
	l-6.9,7.7L0,57L1.1,57.7z"/>
<path class="st4" d="M0.1,57l1,0.7l5.5-5.1l8.8-7.5l7.7-4.2L33.3,36l9-3.5l4.2-1.3l2.6,0.4l0-1.3l-6.8,0.6l-7.5,2.6l-11.3,5.1
	l-15,10.1L0.1,57z"/>
<path class="st0" d="M34.8,36.1l1.3-0.2l0.8,6.4l-1.5,0.2L34.8,36.1z"/>
<path class="st0" d="M39.6,34.6l0.3,6.9l1-0.1l-0.2-7.5L39.6,34.6z"/>
<path class="st0" d="M44.3,32.9l0.4,7.7l1.3-0.5l-0.4-7.6L44.3,32.9z"/>
<path class="st0" d="M26.3,40l0.5,5l1.8-0.6l-0.3-5.2L26.3,40z"/>
<path class="st0" d="M2.1,60.9l5.4-5l11.3-8l5.7-2.7l7.3-2.7l7.4-1.7l4.2-0.7l4.9-0.3l-0.1,1l-0.1,0.7l-10.4,1.7l-9.3,2.7l-7.3,3.2
	l-6,3.7l-6.9,5.6l-6.1,5.2L2.1,60.9z"/>
<path class="st3" d="M45.9,40.9l-5.3,1l-9.8,2.2l-8.4,3.2l-6.7,3.9l-8.4,6.6l-5.2,4.6l0,1.3l6.1-5.2l6.9-5.6l6-3.7l7.3-3.2l9.3-2.7
	l10.4-1.7l0.1-0.6L45.9,40.9z"/>
<path class="st3" d="M1.9,65.9l0,1l4.6-3.2l8.8-4.4l14.3-6.5l8.7-1.7l7.8-1.7l6.1-0.8l0.1-1.2L46.9,48l-10.4,2l-9.4,2.5l-7.6,4
	l-7.1,3.2l-6.3,3.2L1.9,65.9z"/>
<path class="st0" d="M27.1,47.2l1.7-0.4l0.3,4.5l-1.8,0.4L27.1,47.2z"/>
<path class="st0" d="M35.6,44.3l1.3-0.4l0,5.4l-1.2,0.2L35.6,44.3z"/>
<path class="st0" d="M40,43.2l1,0l0.3,5.3l-1.5,0.2L40,43.2z"/>
<path class="st0" d="M44.8,42.4l1.5-0.2l0,5.4l-1.2,0L44.8,42.4z"/>
<path class="st4" d="M31.5,45.8l0.4,3l2.2-0.3l-0.4-3.1L31.5,45.8z"/>
<path class="st4" d="M18.6,51l0.1,2.7l-1.8,0.7l-0.1-2.2L18.6,51z"/>
<path class="st2" d="M91.5,129l-7.9-15.6l-1.9-9.1l-5.1-0.8l-2.7-5.4l-1.5-8.9L71.5,82L71,77l-4.3-3l-0.3-3.1L65.7,57l-4.8-3.5
	l0.7,1.9l1.4,8.8l1.1,9.6l2.8,3.3L70,91.5l2.4,11.7l3.6,2.4L80,111l7.4,17.5l3.6,7l3,0.1L91.5,129z"/>
<path class="st2" d="M1.4,79.3l4.4-5.9l7.1-5.1l9.9-4.6l11.4-3.1l16.2-2.7l9.4-0.8l2.1,0.4l3.9,3.2l0.8-1.3l0-3.6l-1.4-2.1l-4.4-1.7
	l-2.7-0.3l-14.9,1.6l-7.6,1L27.6,57l-12.3,4.4l-6.6,4.4l-5.4,2.9l-1.8,2.4l-0.8,3.5l-0.1,3.6L1.4,79.3z"/>
<path class="st3" d="M60.9,51.9l-0.6-0.1l0.1,2.5l0.8,2.9l0.7,0.1l3.9,3.2l0.8-1.3l0-3.6l-1.4-2.1L60.9,51.9z"/>
<path class="st0" d="M60.9,51.9l-2.7-0.3l-14.9,1.6l-7.6,1L27.6,57l-12.3,4.4l-6.6,4.4l-5.4,2.9l-1.8,2.4l-0.7,3l5-3.5l10.9-6.9
	L27,59.6l10.4-3l11.1-1.9l9.5,0l3.3-0.3l5.3,2.9l0-1.8l-1.4-2.1L60.9,51.9z"/>
<path class="st2" d="M60.9,51.9l-0.6-0.1l0.1,2.5l0.1,0.2l0.9-0.1l5.3,2.9l0-1.8l-1.4-2.1L60.9,51.9z"/>
<path class="st3" d="M53.8,57.5l-2.1-0.2l-7,0.5l-8.3,1.2l-9.6,2.2L19.4,64l-8.8,4.5l-5.9,4.4l-4,5.6l0.8,0.8l4.4-5.9l7.1-5.1
	l9.9-4.6l11.4-3.1l16.2-2.7L53.8,57.5z"/>
<path class="st4" d="M22.2,80.3l0.1-9.2l-1-2.9l-1.6-0.4l-0.9,0.6l-0.5,1.9l0.1,4.5l0,7.4L22.2,80.3z"/>
<path class="st3" d="M16,81.7l0.1-8.5l-1.1-3l-2.1,0.1l-0.5,3.1l0.5,10L16,81.7z"/>
<path class="st3" d="M9.9,84.2l-0.6-7.7l-1-2.7l-1.7,0.5l-0.4,2.9l0,9.4L9.9,84.2z"/>
<path class="st3" d="M22.3,71.1l-0.2-0.7l-1,0.7l-0.7,4.6l0.4,5.4l1.4-0.8L22.3,71.1z"/>
<path class="st3" d="M62.3,103.7L62,92.3l0-5.1l-1.8-1.9l-4.7-0.8l-3,1.5l-1.3,3.5l0.1,14.8L62.3,103.7z"/>
<path class="st3" d="M46.5,103.5L46.3,92l0-5.7l-2.3-1.2l-2.6,1L40,89.8l0.1,14.2L46.5,103.5z"/>
<path class="st3" d="M36.6,104.3l-0.2-10.6l-0.3-6l-1.4-1.7L33,86.5l-1.1,2.8l-0.1,5.8l-0.1,9.4L36.6,104.3z"/>
<path class="st3" d="M29.6,104.5l0.1-9.7l0.1-5.6L29,87.2l-2,0l-1.6,0.7L25,90l-0.2,3.9l-0.1,6.2l-0.2,5.2L29.6,104.5z"/>
<path class="st4" d="M56.8,95.6l-0.1-4.7l1.1-4.4l2.9-0.7l-0.5-0.5l-4.7-0.8l-3,1.5l-1.3,3.5l0.1,14.8l5.7-0.3L56.8,95.6z"/>
<path class="st4" d="M43.9,85.2l-2.6,1L40,89.8l0.1,14.2l2.6-0.2l-0.2-10.6l0.5-2.4l1.2-1.1l2.1,0.6l0-3.9L43.9,85.2z"/>
<path class="st4" d="M34.9,85.9L33,86.5l-1.1,2.8l-0.1,5.8l-0.1,9.4l2.2-0.1l-0.2-6.1l0-6.2l0.8-2.1l1.8,0.4l-0.1-3L34.9,85.9z"/>
<path class="st3" d="M22.6,105l-0.3-10.3l-0.5-4.1l-2-0.8l-1.2,1l-0.4,2.8l-0.4,12.6L22.6,105z"/>
<path class="st3" d="M15.7,106l0.1-7.5l0.3-4.6L15,91.7l-1.7,0.1l-0.5,2.4l0,3.8l0.3,8.7L15.7,106z"/>
<path class="st3" d="M10.4,107.1l0.1-9.3l-0.1-3.1l-1.1-1.2L8,94.1l-1.1,1.9l-0.3,5.8l0.3,7.1L10.4,107.1z"/>
<path class="st4" d="M27,87.2l-1.6,0.7L25,90l-0.2,3.9l-0.1,6.2l-0.2,5.2l2.2-0.3l-0.3-12.2l1-2.5l2.4,0l0-1L29,87.2L27,87.2z"/>
<path class="st4" d="M19.8,89.7l-1.2,1l-0.4,2.8l-0.4,12.6l1.8-0.4l0-8.7l0-3.5l1-1.6l1.4-0.1l-0.2-1.3L19.8,89.7z"/>
<path class="st4" d="M76.8,115.1l-2.9-0.2l-2.2,0.3l-2.1,1.5l-0.7,3.2l-0.3,5.5l0,9.5l10.3,0.1l-0.3-9.5l0.1-6.3L76.8,115.1z"/>
<path class="st4" d="M62.2,134.9l0.4-7.3l-0.3-7.5l-1.6-4.6l-2.6-1.6l-3.4,0.5l-1.8,3.2l0,5.9l-0.2,11.4l6.6,0.1L62.2,134.9z"/>
<path class="st4" d="M47.1,134.7l0-9.6l-0.2-7.7l-1.4-2.2l-3.7-0.6l-1.2,1.1l-1.2,3.8l-0.2,7.9l-0.3,7.3L47.1,134.7z"/>
<path class="st4" d="M35,134.6l1.9,0l0.2-9.5l-0.4-7.1l-1.1-2.5l-1.2,0l-1.2,1.7l-1.1,2.7l0.4,7.7l-0.2,7L35,134.6z"/>
<path class="st4" d="M29.1,134.6l0.7-12.4l-0.3-5.6l-1.1-1.3l-2.6,0.6l-1.3,1.3l-0.1,6.1l-0.2,11.3L29.1,134.6z"/>
<path class="st4" d="M21.7,134.7l0.9-10.7l-0.4-5.2l-1.6-1.1l-2.2,0.6l-0.5,3.1l-0.1,13.3L21.7,134.7z"/>
<path class="st4" d="M15.5,134.7l0-10.4l-0.3-4.5l-1.5-1.4l-1.7,1.7l0.3,3.3l0.1,11.3L15.5,134.7z"/>
<path class="st4" d="M9.2,126.3l0.5-5.6l-1.6-1.1l-1.5,2.4L6.5,125l0.3,9.8l2.7,0L9.2,126.3z"/>
<path class="st3" d="M74,122.9l0.2-4.5l1.2-1.7l2.1,0.1l-0.7-1.6l-2.9-0.2l-2.2,0.3l-2.1,1.5l-0.7,3.2l-0.3,5.5l0,9.5l5.3,0.1
	L74,122.9z"/>
<path class="st3" d="M61.4,117.5l-0.7-2.1l-2.6-1.6l-3.4,0.5l-1.8,3.2l0,5.9l-0.2,11.4l4.4,0L57,121.2l0.5-3l2-1.2L61.4,117.5z"/>
<path class="st3" d="M46.9,117.3l-1.4-2.2l-3.7-0.6l-1.2,1.1l-1.2,3.8l-0.2,7.9l-0.3,7.3l2.2,0L41,122.2l1.1-3.5l2.3-1l2.5,1.3
	L46.9,117.3z"/>
<path class="st3" d="M34.3,134.6l-0.2-13.4l0.8-1.9l1.7,0l-0.1-1.2l-1.1-2.5l-1.2,0l-1.2,1.7l-1.1,2.7l0.4,7.7l-0.2,7L34.3,134.6z"
	/>
<path class="st3" d="M29.7,118.3l-0.1-1.7l-1.1-1.3l-2.6,0.6l-1.3,1.3l-0.1,6.1l-0.2,11.3l2,0l-0.2-9.5l-0.1-4.8l1.3-2.1L29.7,118.3
	z"/>
<path class="st8" d="M108.2,81.9l2.7,0.3l-0.1,4.3l1.2,0.2l0.2-6l-3.9-0.2L108.2,81.9z"/>
<path class="st8" d="M130.2,84.3l-3.6-0.6l-0.1,4.6l0-2.9l2.1,0.5l-0.1,2.6l-2-0.2l3.5,0.4L130.2,84.3z"/>
<path class="st9" d="M119.8,93.7l0.4-3.5l-1.2-2.5l-2.8-0.4l-0.9,0.9l1.8,0.3l1,1.9l0.1,2.5l0,0.8l-3.5-0.2L119.8,93.7z"/>
<path class="st3" d="M52.2,60.4l-1.8,2.1l-0.6,5.8l0.3,6.9l7.3,0.1l-4.8-0.1l-0.2-9l0.8-2.3l2.2-1.7l1.8,0.8l0-0.2L56,60.7
	L52.2,60.4z"/>
<path class="st3" d="M42.6,72.5l-0.3-3.6l1-2.7l1.8-0.9l1.1,1.2l0-1l-1.4-3l-2.8-0.7l-1.7,1.9L40,69.3l0,7.4l2.6-0.2L42.6,72.5z"/>
<path class="st3" d="M34.6,63.3l-1.8,0.5l-0.7,1.5l-0.5,3l0,5l0.4,4.8l2.3-0.5l-0.4-8.2l0.2-2.7l1.7-0.7l0.6,0.3l0.1,1.8l-0.3-3.8
	L34.6,63.3z"/>
<path class="st3" d="M28.4,78.9l0.1-8.8l0.4-1.1l0.8,0.2l0.2,2.1l-0.4-4.4l-0.7-1.3l-2.4-0.1l-1.6,1.3l0.1,12.9l5.1-1.2L28.4,78.9z"
	/>
<path class="st2" d="M64.5,73.4l-7.8,0l-11.9,0.7l-17.5,3.2l-15.7,5.3l-8.4,4.6L1,89.6l0.4,2.8l0.7,1.9l1.9-2.5l7.3-3.5L34,81
	l16.9-1.2l11.7-0.2l4.8,0.1l4,0.6l1.2-1.5l-0.9-4.5L64.5,73.4z"/>
<path class="st3" d="M71.4,80.3l1.2-1.5l-0.9-4.5l-7.2-0.9l-1,0l0.5,1.5l2.2,4.8l1.1,0L71.4,80.3z"/>
<path class="st12" d="M72,75.9l-0.3-1.6l-7.2-0.9l-7.8,0l-11.9,0.7l-17.5,3.2l-15.7,5.3l-8.4,4.6L1,89.6l0.2,1.1l5.1-4.1l9.5-4.4
	l13.4-3.9L41.5,76l10-0.7l8.2-0.5l3.8,0.1L72,75.9z"/>
<path class="st5" d="M71.7,74.4l-7.2-0.9l-1,0l0.5,1.5l0,0.1l8,1L71.7,74.4z"/>
<path class="st3" d="M72.5,79l-3.9-0.5l-7.8-0.1l-17.1,0.8l-10.1,0.7l-14.7,4.5l-12,4.4l-5.3,3.9l0.6,1.6l1.9-2.5l7.3-3.5L34,81
	l16.9-1.2l11.7-0.2l4.8,0.1l4,0.6L72.5,79z"/>
<path class="st4" d="M72.5,79l-3.9-0.5l-2.9,0l0.6,1.2l1.1,0l4,0.6L72.5,79z"/>
<path class="st2" d="M1.9,109.4l10.7-3.6l18.7-2.4l22.1-0.5l8.2,0l11,0.4l3.3,1l4.6,6l-10.2-0.3l-25.2,0l-19.7,0.3l-11.1,2.1
	l-7.3,2.3L3,116.1L1.9,109.4z"/>
<path class="st12" d="M76,104.4l-3.3-1l-11-0.4l-8.2,0l-22.1,0.5l-18.7,2.4l-10.7,3.6l0.5,3l9.2-3.5l10.9-2.2l13.2-0.8l14.9-0.1
	l16-0.2l11.2,1.1L76,104.4z"/>
<path class="st3" d="M50.2,108l-11.5,0.2l-13.8,1l-12.6,2l-9.6,3.6l0.2,1.3l4.2-1.2l7.3-2.3l11.1-2.1l19.7-0.3l25.2,0l10.2,0.3
	l-1-1.4c-2.8-0.3-6.6-0.8-7.2-0.8C71.4,108.3,50.2,108,50.2,108z"/>
<path class="st13" d="M71.5,12.1l6.1,22.2l19.8-3.7l21.7-5.1l-1.9-10.7l-4.1-14.1L71.7,9.8L71.5,12.1z"/>
<path class="st14" d="M87.2,16.9l-2-10l-13.5,3l-0.2,2.3l6.1,22.2l13.1-2.5L87.2,16.9z"/>
<path class="st15" d="M100.4,3.5l3.4,13.8l2.5,11.2l12.8-3l-1.9-10.7l-4.1-14.1L100.4,3.5z"/>
<path class="st16" d="M86.7,35.8l-0.3,13.5l-1.9,17.3l3.2,0.3l2.2-21.8l1.2-9.2L86.7,35.8z"/>
<path class="st16" d="M93.9,37.1l-0.2,3.4l6.3,1l-3.1,24.4L96.8,68l3.4,0.5l3.7-26.6l7.3,1.5l0.6-2.5l-11-3.2L93.9,37.1z"/>
<path class="st16" d="M115.1,58.8l3.6-11.4l1.8,12L115.1,58.8z M124.2,60.5C124.2,60.2,121,40,121,40l-2.8-0.3l-1.8,4.1l-9,25.2
	l3.1,1.5l3.5-8l7.1,1.1l2,8.8l2.4-0.5C125.5,71.8,124.1,60.8,124.2,60.5z"/>
<path class="st16" d="M132.2,40.3c-0.1,0.6-3.1,19.6-3.1,19.6l-0.4,12.9l13.8,1.8l1-2.2l-0.6-8.6l-2.2,0l-1.6,6.1l-6-1.3l2.3-25.1
	l0-3L132.2,40.3z"/>
<path class="st16" d="M145.2,42.3c-0.1,0.3,3.9,16,3.9,16l-2,16.7l4.3,0.7l1.6-16.2l9-14.6l-2.6-1.1l-7.9,12.7l-2.9-14.7L145.2,42.3
	z"/>
</svg>
