<?xml version="1.0" encoding="utf-8"?>
<!-- Generator: Adobe Illustrator 27.2.0, SVG Export Plug-In . SVG Version: 6.00 Build 0)  -->
<svg version="1.1" id="Layer_1" xmlns="http://www.w3.org/2000/svg" xmlns:xlink="http://www.w3.org/1999/xlink" x="0px" y="0px"
	 viewBox="0 0 139 146" style="enable-background:new 0 0 139 146;" xml:space="preserve">
<style type="text/css">
	.st0{fill:#FFAA39;}
	.st1{fill:#D68525;}
	.st2{fill:#7472B2;}
	.st3{fill:#37375B;}
	.st4{fill:#4C4C7F;}
	.st5{fill:#075A62;}
	.st6{fill:#EF880C;}
	.st7{fill:#38AD97;}
	.st8{fill:#FF4127;}
	.st9{fill:#E03500;}
	.st10{fill:#9B7127;}
	.st11{fill:#BF882E;}
	.st12{fill:#D8AA4E;}
	.st13{fill:#62CCBA;}
	.st14{fill:#FFFFFF;}
	.st15{fill:#1D92CC;}
</style>
<path class="st0" d="M48.5,108.7h3.6l2.3-2.1l0.3-2h2.9l2.9-1l1.5-2.9l-13.7-0.5L48.5,108.7z"/>
<path class="st1" d="M60.6,103.7l0.2-0.4l-3.8,0.1h-2.6l-1.5,1.1l-1.6,2.3l-2.8,0.2l0,1.7h3.6l2.3-2.1l0.3-2h2.9L60.6,103.7z"/>
<path class="st0" d="M99.8,108.7h-3.6l-2.3-2.1l-0.3-2h-2.9l-2.9-1l-1.5-2.9l13.7-0.5L99.8,108.7z"/>
<path class="st1" d="M87.7,103.7l-0.2-0.4l3.8,0.1h2.6l1.5,1.1l1.6,2.3l2.8,0.2l0,1.7h-3.6l-2.3-2.1l-0.3-2h-2.9L87.7,103.7z"/>
<path class="st2" d="M21.1,101.2h22.5l-0.2,4.6l-21.2,0.7L21.1,101.2z"/>
<path class="st2" d="M105,101.5l18.3,1.1l0.2,4.7l-18.5-0.7V101.5z"/>
<path class="st3" d="M15.1,78.3v5.4l1.3,7.5l42.1-1.5l19.6,0.8l32-0.8l18.1,1l1.6-7.5l-0.8-5.9l-43.4,0.5l-16,0.3l-15.2-0.7L37.7,78
	l-14.2,0.2L15.1,78.3z"/>
<path class="st4" d="M85.6,77.9l-16,0.3l-15.2-0.7L37.7,78l-14.2,0.2l-8.5,0.2v5.4l0.2,0.9l18.6-0.8l32-0.5l17,0.2l11.6-0.7
	l18.3,0.7l10.1-0.2h7l0-0.2l-0.8-5.9L85.6,77.9z"/>
<path class="st5" d="M113,88l-30.2,0.7L54.2,88l-26.9,1.1l-11.2,0.6l0.3,1.6l42.1-1.5l19.6,0.8l32-0.8l18.1,1l0.5-2.2L113,88z"/>
<path class="st1" d="M25.8,84.2l1.8-0.1l0.3-6l-2.1,0V84.2z"/>
<path class="st1" d="M29.1,84.1L31,84l-0.3-5.9l-2.1,0L29.1,84.1z"/>
<path class="st1" d="M33.8,83.9l0.1-5.8l-1.9,0l0.1,5.9L33.8,83.9z"/>
<path class="st0" d="M35,83.9l1.7,0l0.1-5.8l-1.9,0L35,83.9z"/>
<path class="st0" d="M52.1,83.6l1.3,0l-0.4-6l-1,0L52.1,83.6z"/>
<path class="st0" d="M56.1,83.6l0.4-5.9l-2-0.1l0.3,6L56.1,83.6z"/>
<path class="st0" d="M57.7,83.5l1.8,0l-0.1-5.8l-1.5-0.1L57.7,83.5z"/>
<path class="st0" d="M63.4,83.4v-5.5l-2.3-0.1l0.1,5.7L63.4,83.4z"/>
<path class="st6" d="M80.7,83.6l1.6,0v-5.6l-1.5,0L80.7,83.6z"/>
<path class="st6" d="M84.4,83.5l1.7-0.1l0.1-5.5l-0.6,0l-1.4,0L84.4,83.5z"/>
<path class="st6" d="M89,83.2l0.1-5.4l-1.6,0l0.2,5.5L89,83.2z"/>
<path class="st6" d="M90.3,83.2l1.9-0.1L92,77.8l-2,0L90.3,83.2z"/>
<path class="st0" d="M109.6,83.5l2,0.1l-0.4-6l-1.6,0V83.5z"/>
<path class="st0" d="M114,83.6l0.1-6l-1.8,0l0.5,6L114,83.6z"/>
<path class="st0" d="M115.5,83.5l1.9,0l-0.1-6l-1.8,0V83.5z"/>
<path class="st4" d="M21.6,91.9l0.5,9.8h21.1l0.2-10.4L21.6,91.9z"/>
<path class="st4" d="M48.5,91.1l-0.2,10.1l51.3,1.1l-0.5-11.1H86.1L66,91.1H48.5z"/>
<path class="st4" d="M106.2,91.1l-0.2,11.3l16.7,0.7l0.8-11.4L106.2,91.1z"/>
<path class="st6" d="M71.4,94.2l27.9,0.5l-0.2-3.4H86.1L66,91.1H48.5l0,2.9L71.4,94.2z"/>
<path class="st7" d="M69.1,96h-3.4l-2.4,1.3l-0.5,1.3l4.1,0.8l4.4,1.1l6.4-0.3l2.9-1.3l2-0.5l0.2-1.5L80,96.5L76.1,96H69.1z"/>
<path class="st3" d="M72.5,95l-2.8,0.2l-0.8,2.1l0.7,2.4l2.8,1.1l2.8-0.3l1.5-2.1l-0.8-2.9L72.5,95z"/>
<path class="st7" d="M72.4,96l-1.5,1.6l1.3,1l2.3-0.2l-0.3-1.8L72.4,96z"/>
<path class="st7" d="M24,96.8l3.9-1.5l2.4-2.1l3.6,0.3l1.5,2.1l4.6,1.6v1.1l-4.6-0.5l-2,2.6l-3.3-0.2l-2.6-1.5l-2.1-1L24,96.8z"/>
<path class="st7" d="M107.8,96.8l2.8-1.3l2-1.6l3.3-0.5l2.3,1.3l1.3,1.6l2.3,0.8v1.3l-2-0.2l-0.7,1.6l-2.8,1.5l-2.6,0.3l-2.1-2.3
	l-1.6-1l-2.6-1L107.8,96.8z"/>
<path class="st8" d="M16.7,92.4l0.2,6.5v24.3L16,142.5l8.8-0.2L24,120.5L23.4,103l-0.5-11.4L16.7,92.4z"/>
<path class="st8" d="M42.6,90.9l-0.2,11.4l0.2,39.5l7.8,0.5l-1.1-33.8l-0.2-17.8L42.6,90.9z"/>
<path class="st8" d="M99.1,91.2L99,101.5l0.2,25.6l0.2,15.5l8.5,0.2l-0.8-33.1l0.2-18.6L99.1,91.2z"/>
<path class="st8" d="M122,91.6v25.3l0.2,26l8.5-0.2l-1.8-32.8l-1-18L122,91.6z"/>
<path class="st0" d="M15.1,90.8l4.6-0.3l25-1l24,0.2l18.8,0.2l15.8-0.5h7.8l17.8,1.1v2.3l-33.3-0.7l-42.5-0.5l-14.4,0.3l-23.2,1
	L15.1,90.8z"/>
<path class="st9" d="M123.6,113l0.3-5.6l1.8-1.1l2.3,0.5l0.7,1l-0.9-15.9l-5.9-0.3v9.6v15.7l0.2,26l2.3,0L123.6,113z"/>
<path class="st9" d="M99,101.5l0.2,25.6l0.2,15.5l1.8,0l-0.3-17l0.5-19.1l1.5-1.6l2.9,0.3l1.3,1.8l0.1-16l-8,0.2L99,101.5z"/>
<path class="st9" d="M43.6,109.7l0.3-6.9l3.4,0.3l1.9,2l-0.1-14.4l-6.5,0.2l-0.2,11.4l0.2,39.5l1.6,0.1L43.6,109.7z"/>
<path class="st9" d="M22.9,91.6l-6.2,0.8l0.2,6.5v24.3L16,142.5l0.9,0l1.2-21l0.3-11.4l1.6-4.9l2.1-1.6l1.3,2.7l-0.1-3.1L22.9,91.6z
	"/>
<path class="st9" d="M19.8,127.3l-0.3,5.9l2.1,0.5l-0.5-6L19.8,127.3z"/>
<path class="st9" d="M45.9,128l0.3,4.9l1.6-0.2l-0.2-5.1L45.9,128z"/>
<path class="st9" d="M102.7,128.6v4.7h2.3l-0.5-4.9L102.7,128.6z"/>
<path class="st9" d="M126.2,129l0.3,4.6l1.3-0.3l-0.5-4.6L126.2,129z"/>
<path class="st6" d="M18,91.4l-0.2,3.3l0.5,3.3l1.3,0.7l1.5-1.3l0.8-6.4L18,91.4z"/>
<path class="st6" d="M44,90.8l0.3,4.1l1.1,2.4l2-0.2l0.7-6.9L44,90.8z"/>
<path class="st6" d="M100.8,89.8l-0.2,5.1l0.8,3.1h2.5l0.8-3.9l0.3-4.9L100.8,89.8z"/>
<path class="st6" d="M123.1,89.6l0.5,4.2l0.5,3.4l2.3,0.5l0.8-2.9l-0.3-4.9L123.1,89.6z"/>
<path class="st8" d="M73.9,80.9l-0.1-1.3l1.6,0.6l2,0.9L77,81.9h-0.9l-1.5-0.4L73.9,80.9z M69.6,81.9L68.2,82L67,81.5l-0.3-0.9
	l2.4-0.7l1.5-0.7l0.2,1.6L69.6,81.9z M82.8,83.8l-0.4-1.5l-1.9,0.5l-0.6,2l-1.5,1.5l-2.4,0.4l-0.9-0.7l0.5-1l2.1-0.3l1.6-1.8v-1.7
	l1.8-0.3l1.4-1.2l0.4-2.1l-10.4,0.2l-0.5,0.1l-0.3-0.1l-10.4-0.2l0.4,2.1l1.4,1.2l1.8,0.3v1.7l1.6,1.8l2.1,0.3l0.5,1l-0.9,0.7
	l-2.4-0.4l-1.5-1.5l-0.6-2L62,82.3l-0.4,1.5L61.3,85l1.8,1.1l1.3,2.4l3.9,2.9l3.6,0.4v0.1l0.3,0l0.3,0v-0.1l3.6-0.4l3.9-2.9l1.3-2.4
	l1.8-1.1L82.8,83.8z"/>
<path class="st8" d="M104.7,80.9l-0.1-1.3l1.6,0.6l1.9,0.9l-0.4,0.9h-0.9l-1.4-0.4L104.7,80.9z M100.6,81.9L99.3,82l-1.2-0.5
	l-0.3-0.9l2.3-0.7l1.4-0.7l0.2,1.6L100.6,81.9z M113.2,83.8l-0.4-1.5l-1.8,0.5l-0.6,2l-1.4,1.5l-2.3,0.4l-0.9-0.7l0.5-1l2-0.3
	l1.6-1.8v-1.7l1.7-0.3l1.3-1.2l0.4-2.1l-9.9,0.2l-0.4,0.1l-0.3-0.1l-9.9-0.2l0.4,2.1l1.3,1.2l1.7,0.3v1.7l1.6,1.8l2,0.3l0.5,1
	l-0.9,0.7l-2.3-0.4l-1.4-1.5l-0.6-2l-1.8-0.5l-0.4,1.5L92.7,85l1.7,1.1l1.3,2.4l3.7,2.9l3.4,0.4v0.1l0.3,0l0.3,0v-0.1l3.4-0.4
	l3.7-2.9l1.3-2.4l1.7-1.1L113.2,83.8z"/>
<path class="st8" d="M127.2,81.4l-0.1-1.4l1.4,0.6l1.8,1l-0.4,1h-0.8l-1.3-0.4L127.2,81.4z M123.4,82.5l-1.2,0.1l-1.1-0.5l-0.3-1
	l2.1-0.7l1.3-0.8l0.2,1.8L123.4,82.5z M135.1,84.6l-0.3-1.7l-1.7,0.5l-0.6,2.1l-1.3,1.6l-2.1,0.4l-0.8-0.7l0.5-1.1l1.9-0.4l1.4-1.9
	v-1.8l1.6-0.4l1.2-1.3l0.3-2.3L126,78l-0.4,0.1l-0.3-0.1l-9.2-0.3l0.3,2.3l1.2,1.3l1.6,0.4v1.8l1.4,1.9l1.9,0.4l0.5,1.1l-0.8,0.7
	l-2.1-0.4l-1.3-1.6l-0.6-2.1l-1.7-0.5l-0.3,1.7l-0.2,1.3l1.6,1.1l1.2,2.6l3.4,3.1l3.2,0.4v0.1l0.3,0l0.3,0v-0.1l3.2-0.4l3.4-3.1
	l1.2-2.6l1.6-1.1L135.1,84.6z"/>
<path class="st8" d="M47.2,80.9l-0.1-1.3l1.6,0.6l1.9,0.9l-0.4,0.9h-0.9l-1.4-0.4L47.2,80.9z M43.1,81.9L41.8,82l-1.2-0.5l-0.3-0.9
	l2.3-0.7l1.4-0.7l0.2,1.6L43.1,81.9z M55.7,83.8l-0.4-1.5l-1.8,0.5l-0.6,2l-1.4,1.5l-2.3,0.4l-0.9-0.7l0.5-1l2-0.3l1.6-1.8v-1.7
	l1.7-0.3l1.3-1.2l0.4-2.1L46,77.7l-0.4,0.1l-0.3-0.1l-9.9-0.2l0.4,2.1l1.3,1.2l1.7,0.3v1.7l1.6,1.8l2,0.3l0.5,1l-0.9,0.7l-2.3-0.4
	l-1.4-1.5l-0.6-2l-1.8-0.5l-0.4,1.5L35.2,85l1.7,1.1l1.3,2.4l3.7,2.9l3.4,0.4v0.1l0.3,0l0.3,0v-0.1l3.4-0.4l3.7-2.9l1.3-2.4L56,85
	L55.7,83.8z"/>
<path class="st8" d="M20.6,81.5l-0.1-1.4l1.4,0.6l1.8,1l-0.4,1h-0.8l-1.3-0.4L20.6,81.5z M16.8,82.7l-1.2,0.1l-1.1-0.5l-0.3-1
	l2.1-0.7l1.3-0.8l0.2,1.8L16.8,82.7z M28.5,84.7L28.2,83l-1.7,0.5L26,85.7l-1.3,1.6l-2.1,0.4L21.7,87l0.5-1.1l1.9-0.3l1.4-1.9v-1.8
	l1.6-0.4l1.2-1.3l0.3-2.3l-9.2,0.3L19,78.2l-0.3-0.1l-9.2-0.3l0.3,2.3l1.2,1.3l1.6,0.4v1.8l1.4,1.9l1.9,0.3l0.5,1.1l-0.8,0.7
	l-2.1-0.4l-1.3-1.6l-0.5-2.1L10,83l-0.3,1.7L9.5,86l1.6,1.1l1.2,2.6l3.4,3.1l3.2,0.4v0.1l0.3,0l0.3,0v-0.1l3.2-0.4l3.4-3.1l1.2-2.6
	l1.6-1.1L28.5,84.7z"/>
<path class="st10" d="M8.2,73.3L9,77.9l3.8,0.3l11.4,0.5l13.9-0.2l21.2-0.2l17.8,0.3l19.4-0.2l16.3-0.3h14.7l9.6-0.2l1.1-5.2
	l-10.5,0.3l-25.1,0.3H75.5L46.6,73l-19.8,0.5l-12.9-0.2H8.2z"/>
<path class="st3" d="M102.7,73.4H75.5L46.6,73l-19.8,0.5l-12.9-0.2H8.2l0.1,0.5l10.8,0.5L52,74.4l30.7,0.7l37.4-1l18.2-0.8l0.1-0.5
	l-10.5,0.3L102.7,73.4z"/>
<path class="st11" d="M38.1,78.5l21.2-0.2l17.8,0.3l19.4-0.2l16.3-0.3h14.7l9.6-0.2l0.4-1.8l-23.9-0.3l-26.8,0.7l-31.5-0.2H28.4
	L8.7,76.1L9,77.9l3.8,0.3l11.4,0.5L38.1,78.5z"/>
<path class="st7" d="M7.9,71.5l0.3,1.8l2.9,0.3l12.1,0.3l16.4-0.1l12.8-0.2l21.2,0.7L98,74.1l20.4-0.3l20.6-0.3v-2.3L128,67.7
	l-15.2-12.6l-10-13.9l-23.4,0.3l-45.2,0.7L32,48.5l-4.4,8.2l-6,7.2L7.9,71.5z"/>
<path class="st12" d="M15.2,141.5h10l1.6,3.3l-0.3,0.8H14.1l-0.3-1L15.2,141.5z"/>
<path class="st12" d="M41.3,141.2l9.8,0.2l2.1,4.1l-0.7,0.5l-12.7-0.2v-1.3L41.3,141.2z"/>
<path class="st12" d="M98.3,141.9l10,0.2l1.3,2.6l-0.2,1l-12.1-0.2l-0.2-1.3L98.3,141.9z"/>
<path class="st12" d="M121.3,141.9h9.6l1.3,2.3v1.3l-12.1,0.2v-1.3L121.3,141.9z"/>
<path class="st11" d="M13.7,144.6l0.3,1h12.4l0.3-0.8l-0.1-0.2l-12.9-0.1L13.7,144.6z"/>
<path class="st11" d="M39.9,145.8l12.7,0.2l0.7-0.5l-0.2-0.4l-13.2-0.4V145.8z"/>
<path class="st11" d="M97.2,144.1l0.2,1.3l12.1,0.2l0.2-1l-0.1-0.2L97.2,144L97.2,144.1z"/>
<path class="st11" d="M120.2,144.3v1.3l12.1-0.2v-1.3l0,0l-11.9-0.1L120.2,144.3z"/>
<path class="st13" d="M34.3,42.3L32,48.5l-4.4,8.2L24.8,60l-2.4,4.8l-2.8,4.7l-3.1,4.2l2.9,0.1l3.1-3.7l5.7-10.9l3.6-7.3l2.7-9.6
	L34.3,42.3z"/>
<path class="st13" d="M36.7,42.2l-1.2,5.4l-2.3,6.7l-3.8,10.8l-4.7,8.8l3.3,0l2.6-6.5l4.1-11.9L37.4,45l0.4-2.8L36.7,42.2z"/>
<path class="st13" d="M42,42.2l-2.5,0l-0.3,2.4l-2,10.9l-2.6,11.4l-3,7l3.1,0L37.9,63L41,49.3L42,42.2z"/>
<path class="st13" d="M44.1,42.1L42.3,56l-3.3,10.5l-2.1,7.4l2.7,0l0.5,0l1.1-5.8l3.3-13.4l1.5-12.6L44.1,42.1z"/>
<path class="st13" d="M48.4,42.1l-0.8,10.5l-2.1,9.8L42,73.8l0.2,0l2.3,0l2.7-10.9l2.6-12.6l0.1-8.2L48.4,42.1z"/>
<path class="st13" d="M54.2,42l-1.9,0l-0.2,3.2l-1,9.8l-2.4,10l-2.1,8.8l2.8-0.1l1.9-9.9l2.6-15.7L54.2,42z"/>
<path class="st13" d="M56.6,41.9l-0.8,8.3l-1.8,12.6l-2.6,10.6l0.6,0.2l0.5,0l1.4,0l1.5-5.6l1.1-7.2l1.6-13.7l0.1-5.2L56.6,41.9z"/>
<path class="st13" d="M60.3,53.9l-1,10.8l-1.8,9.1l2.8,0.1l0.8-4.5l1-10.9l0.7-11.9l-0.1-4.7l-1.6,0L60.3,53.9z"/>
<path class="st13" d="M65,49l-0.8,15l-0.7,10l0.1,0l3.1,0.1l-0.2-8.3L67,48.6l-0.4-6.8l-1.7,0L65,49z"/>
<path class="st13" d="M69.6,41.8l-1.7,0l0.5,18l0.6,14.4l2.3,0.1L69.6,41.8z"/>
<path class="st13" d="M77.1,74.2l-0.9-4.4L74.2,54l-1.5-12.3l-1.4,0l0.3,7.4l2,16.5l0.8,8.7L77.1,74.2z"/>
<path class="st13" d="M80.2,63.5l-2.6-14.2l-0.4-7.6l-2.1,0L76,51.9L78.1,64l1.7,10.2l2.7,0L80.2,63.5z"/>
<path class="st13" d="M80.5,54.8l2.9,10.4l2.5,8.9l3.6,0l-4-11.5l-3.8-14.5l-0.7-6.6l-1.6,0v6.7L80.5,54.8z"/>
<path class="st13" d="M84,47.2l2.8,10.3L90,67.9l2.5,6.2l3.4,0l-0.9-2.3l-5.1-11.3l-4.1-12.9l-0.6-6.1l-1.2,0V47.2z"/>
<path class="st13" d="M102.5,74l-7.6-14l-3.8-13.6l-0.7-5.1l-2.1,0l0.8,6.5l1.6,6.5l5.1,13.1l2.8,6.5L102.5,74z"/>
<path class="st13" d="M104.7,68.2l-5.9-10.6l-3.9-9.8l-1.1-6.4l-1.3,0l1.6,9.3l3.9,8.5l3.6,8.7l2.6,3.7l1.7,2.4l3,0L104.7,68.2z"/>
<path class="st13" d="M112.2,68.2l-5.9-10.1L100.8,46l-1.2-4.7l-1.8,0l0.9,4.3l1.8,5.2l3.3,8.2l5.4,9.5l4,5.3l3.8-0.1L112.2,68.2z"
	/>
<path class="st13" d="M127.5,73.6l-3.9-3.3l-5.9-7.2l-8.3-10.6l-2.1-5.1l-4.4-6.2l-0.5,0l1.9,6l4.1,7.2L112,61l5.9,7.3l5,5.3
	L127.5,73.6z"/>
<path class="st5" d="M25.6,72.6l2.9-0.1l-0.4-1.4L26.8,71L25.6,72.6z"/>
<path class="st5" d="M32.1,72.8l3-0.1l-0.3-1.4L33,71.2L32.1,72.8z"/>
<path class="st5" d="M37.4,72.4l3-0.1L40,71l-0.8-0.2L37.4,72.4z"/>
<path class="st5" d="M42.4,72.1l2.4,0.2l-0.1-1.6l-1.5-0.2L42.4,72.1z"/>
<path class="st5" d="M47.1,72.1h2.7l-0.3-1.1l-1-0.4L47.1,72.1z"/>
<path class="st5" d="M51.5,72.1l2.9-0.2L54,70.8l-1.1-0.6l-1.1,0.7L51.5,72.1z"/>
<path class="st5" d="M57.8,72.2l3,0.1L60,70.8L59,70.6l-1.1,0.5L57.8,72.2z"/>
<path class="st5" d="M63.7,72.1l3.2,0.1l-0.5-1.5l-1.1-0.2h-0.8L63.7,72.1z"/>
<path class="st5" d="M68.9,72.4h2.3L71.1,71L70,70.6L69.2,71L68.9,72.4z"/>
<path class="st5" d="M74.2,72.5h2.8l-0.7-1.1L75,71l-1.3,0.7l-0.1,0.7H74.2z"/>
<path class="st5" d="M79.5,72.6h2.9L82,71.2l-1.1-0.2L80,71.2L79.5,72.6z"/>
<path class="st5" d="M85.5,72.6l4,0.1l-0.8-1.4l-1.1-0.6l-1.1,0.4L85.5,72.6z"/>
<path class="st5" d="M92,72.4l3.4-0.3l-1.1-1.1l-1.8-0.1L92,72.4z"/>
<path class="st5" d="M107.7,71.7l-1.4-1.4l-1.7-0.2l-0.4,1.8L107.7,71.7z"/>
<path class="st4" d="M32,40.4l-1.2,3.5l0.8,2.7l31.6-0.3l29.5-0.7l16,0.3l-1-6.2l-3.2-1.1l-18-0.2l-41.7,1.1L32,40.4z"/>
<path class="st2" d="M86.6,38.5l-41.7,1.1L32,40.4l-0.6,1.8L48.3,41l20.5-0.7l36.1-0.2l2.9,0.1l-0.1-0.5l-3.2-1.1L86.6,38.5z"/>
<path class="st3" d="M76,43.6l-27.2,0.8l-17.6,0.7l0.4,1.6l31.6-0.3l29.5-0.7l16,0.3l-0.4-2.4h-5.1H76z"/>
<path class="st5" d="M101,42.4l2.6-0.3l7.7,10.2l3.3,3.6l7.5,5.6l2.4,5.1l-6.9,0.5l-3.8-0.5l-3.2-4.1l-6-10.4l-2.8-5.8L101,42.4z"/>
<path class="st13" d="M123.3,63.9l-1.2-2.5l-7.5-5.6l-3.3-3.6L103.7,42l-0.9,0.1l2.9,6.4l4.9,7.9l3.9,4.9l2.5,2c0,0,5.2,0.7,5.7,0.7
	C122.7,64,123,64,123.3,63.9z"/>
<path class="st7" d="M113.8,66.5L113.8,66.5l3.9,0.6l6.9-0.5l-0.5-1.2l-1.7-2.3l-2.1-1.7l-4.6,0.1l-1.6,2.3L113.8,66.5z"/>
<path class="st5" d="M33.6,42.8l-2.2,5.6L27.8,55l-3.7,4.7l-2.5,2.8l-1.2,5H32l2.3-8.8l2.4-11.3l0.2-4.4L33.6,42.8z"/>
<path class="st13" d="M34.4,48.5L36,43l-2.4-0.2l-2.2,5.6L27.8,55l-3.7,4.7l-2.5,2.8l-0.1,0.4l7.9-0.5l1.2-1.3l1.9-5.4L34.4,48.5z"
	/>
<path class="st7" d="M23.7,62.4l-3.2,5.1H32l0-0.1l-1.1-3.7L29.4,62l-3-0.3L23.7,62.4z"/>
<path class="st14" d="M1.4,37.4l12.9,16.1l14.9-10l16-11.8l-5.3-8.2l-8.4-10.1L0.8,35.5L1.4,37.4z"/>
<path class="st8" d="M22.2,25.7l-5.4,2.6L13.3,33l1.1,4.8l4.5,4.4l4.4-0.1l5.5-3l1.9-4.4c0,0-1-4.5-1.4-5c-0.4-0.5-2.6-3.3-3.1-3.5
	C25.7,26.1,22.2,25.7,22.2,25.7z"/>
<path class="st15" d="M53.2,2.3l-1.8,1.2l3.9,5.9l3.6,0.7l3.4-0.6l0.3,14.3L61,29.1l-4.7,2.3l-3.2,0.1l0.3,2.3l7.8-1.2l3.9-4.3
	l1.5-9.2l-1-16.9l-3,2.5l-4.8,0.3L53.2,2.3z"/>
<path class="st15" d="M72,19.3l1.9-12l3.2,12.8L72,19.3z M79.1,13.3L75.2,1.2L71.8,2l-3,17.3l-1.1,13.8l3-0.2l1-9.5l7.1,0.7l2.8,9.1
	l2.4-1.1L79.1,13.3z"/>
<path class="st15" d="M92.4,19l-3.3,1L89,16.8L88.5,5.9l2.4-0.2l3.3,2.1c0,0,0.7,5.6,0.7,6S92.4,19,92.4,19z M96.7,6.1l-5.7-4.4
	l-5.7-1.1l0.1,15.5L86.5,33l2.9-0.4V23l5.7-1.9l3.6-7.4L96.7,6.1z"/>
<path class="st15" d="M104.1,19.4L106.3,7l2.9,13.1L104.1,19.4z M109.9,9.8l-2.5-9.6L105,0.6l-3,13.5l-2.7,15.2l-0.4,2.6l2.9,0.5
	l2.2-9l5.6,0.6l2.4,8.4l2.1-0.8L109.9,9.8z"/>
<path class="st15" d="M116.4,0.6l0.1,12.9l0.7,19h3.2l-0.1-10.1l7.1,6.2l0.1,3.9l3.5,0.4l0.9-20.3l-0.6-12.2l-3.6,0.3l-0.3,21
	l-7.3-5.2L119.2,0L116.4,0.6z"/>
</svg>
