<?xml version="1.0" encoding="utf-8"?>
<!-- Generator: Adobe Illustrator 27.2.0, SVG Export Plug-In . SVG Version: 6.00 Build 0)  -->
<svg version="1.1" id="Layer_1" xmlns="http://www.w3.org/2000/svg" xmlns:xlink="http://www.w3.org/1999/xlink" x="0px" y="0px"
	 viewBox="0 0 169 146" style="enable-background:new 0 0 169 146;" xml:space="preserve">
<style type="text/css">
	.st0{fill:#C8EDEA;}
	.st1{fill:#41BFB5;}
	.st2{fill:#A5CECA;}
	.st3{fill:#429B94;}
	.st4{fill:#FFAA39;}
	.st5{fill:#FF4127;}
	.st6{fill:#FFA0A1;}
	.st7{fill:#FF7B61;}
	.st8{fill:#BABA56;}
	.st9{fill:#A3A048;}
	.st10{fill:#F74931;}
	.st11{fill:#E03500;}
	.st12{fill:#D68525;}
	.st13{fill:#67C190;}
	.st14{fill:#319E4A;}
	.st15{fill:#D84035;}
	.st16{fill:#BC2824;}
	.st17{fill:#3E8C5D;}
	.st18{fill:#5D6B22;}
	.st19{fill:#778E3F;}
	.st20{fill:#1D92CC;}
	.st21{fill:#006DC1;}
	.st22{fill:#FFFFFF;}
</style>
<path class="st0" d="M63.4,59.7h-1.1l-0.7,2.6l-2.4,1.8l-4.5,3.7l-1.8,3.5l0.7,4.6l1.7,2.9l1.5,0.8l13.3-0.2l1.2-1l1.9-2.9l-0.6-3.9
	l-2.4-4.4L67.3,65l-2.6-2.5l-1.1-1.1L63.4,59.7z"/>
<path class="st1" d="M64.2,62l-0.6-0.6l-0.2-1.7h-1.1L61.7,62H64.2z"/>
<path class="st1" d="M63.6,74.7l-0.3-5.2l-0.5-4.1l-0.1-2.1l-0.1-3.1l-0.5,2.3l-0.7,3.3l0.2,6.2c0,0,0.2,4.1,0.2,4.3
	c0,0.1,0.4,2.1,0.5,3.1l1.3,0L63.6,74.7z"/>
<path class="st1" d="M70.5,70.3L69.4,67L69,66.2l-1.5-1.1l0.2,0.2l1.2,2.8l0.6,3l-0.2,2.6l-0.6,2.6L68,78.4l-0.7,0.9l1.4,0l1.3-2.3
	l0.7-3.4L70.5,70.3z"/>
<path class="st1" d="M70.1,79.2l1.2-1l1.9-2.9l-0.6-3.9l-0.5-0.8l0.3,1.9l-0.3,3L70.9,78l-1.1,1.3L70.1,79.2z"/>
<path class="st1" d="M60.6,76.8l-0.6-2L59.6,71l0.5-3.9l0.1-1.9l1.1-2l1.1-2.5l-0.4-0.1l-0.4,1.6l-1,0.7l-0.3,0.6l-1,1.2l-1,3
	l0.1,5.4l0.5,4.3l1.4,2l0.9,0L60.6,76.8z"/>
<path class="st1" d="M59.1,79.4l-1.4-2l-0.5-1.9L56.8,72l0.3-4.4l1.2-2.7l0.6-0.6l-2,1.7l-0.4,0.7l-0.7,1.9l-0.3,5.1l0.8,3.8l2,1.9
	L59.1,79.4z"/>
<path class="st1" d="M55,77.1L54,74v-3.9l1.4-2.8l-0.6,0.5l-1.8,3.5l0.7,4.6l1.7,2.9l1.5,0.8l0.2,0L55,77.1z"/>
<path class="st1" d="M66.5,66.8L65.3,64L64,62.5l-0.7-1l-0.2-0.9l-0.4,0.1l0.1,0.9l0.8,1.8l1.1,3.5l0.5,3.5l0.4,3.9l-0.4,3l-0.3,2
	l1.3,0l1.2-4.6l-0.1-4.2L66.5,66.8z"/>
<path class="st2" d="M72.9,73.2L72,73.8l-3.7,0.8l-5.4,0.1L56,74.3l-2.8-1.1l0.4,2.6l1.7,2.9l1.5,0.8l13.3-0.2l1.2-1l1.9-2.9
	L72.9,73.2z"/>
<path class="st3" d="M53.2,73.2l0.4,2.6l1.7,2.9l1.5,0.8l0.2,0l-2-2.4L54,74v-0.5L53.2,73.2z"/>
<path class="st3" d="M55.5,74.1l0.7,3.5l2,1.9l0.8,0l-1.4-2l-0.5-1.9L57,74.3l-1-0.1L55.5,74.1z"/>
<path class="st3" d="M58.9,77.5l1.4,2l0.9,0l-0.7-2.6l-0.6-2l0-0.3l-1.4-0.1L58.9,77.5z"/>
<path class="st3" d="M61.8,74.6c0,0.8,0.1,1.6,0.1,1.6c0,0.1,0.4,2.1,0.5,3.1l1.3,0l-0.1-4.6l-0.7,0L61.8,74.6z"/>
<path class="st3" d="M67.4,74.7L67.4,74.7l-1.8-0.1l-0.4,2.7l-0.3,2l1.3,0L67.4,74.7z"/>
<path class="st3" d="M70.1,77l0.6-2.9l-1.5,0.3l-0.4,1.9L68,78.4l-0.7,0.9l1.4,0L70.1,77z"/>
<path class="st3" d="M72.9,73.2l-0.5,0.4l-0.2,2L70.9,78l-1.1,1.3l0.3,0l1.2-1l1.9-2.9L72.9,73.2z"/>
<path class="st4" d="M62.7,58.1l-0.8,0.7l0.8,0.7l0.7-0.3L63,58.4L62.7,58.1z"/>
<path class="st4" d="M62.4,52.7l0.3,6.3l0.1-6.3H62.4z"/>
<path class="st4" d="M61.4,53.9l2.2-0.1l-0.1,0.6l-2.1-0.1V53.9z"/>
<path class="st4" d="M61.7,56.1l1.7,0.6l0.1,0.5l-1.8-0.7V56.1z"/>
<path class="st5" d="M91.7,88.5l13-3v12.4l-0.8,11.3l-3.5-0.1l-10-15.2L91.7,88.5z"/>
<path class="st6" d="M140.4,82.5l-0.1,23.7l-6.3-1l-0.4-22L140.4,82.5z"/>
<path class="st6" d="M132.7,60.1l-0.7,2.5l-2.7,2.9l-3.6,3.2l-1.7,3.6v9.8l5.7,2.2l5.8,0.7l5.4-0.5l3.4-2.1l1-8.6l-4-5.6l-4.6-3.4
	l-2.3-2.8l-0.9-2.1L132.7,60.1z"/>
<path class="st7" d="M141.8,77.5c-0.3,0.1-5.2,0.5-5.2,0.5l-7.1-0.2l-5.6-1.8v6l5.7,2.2l5.8,0.7l5.4-0.5l3.4-2.1l0.7-5.8
	C143.7,76.9,142,77.4,141.8,77.5z"/>
<path class="st8" d="M129.5,70.5l-2,2.9l-2.9,2.5l-1.7,2.9l-0.6,4.2l2.1,3.6l4.2,1.4l2-0.6h4.6l1.4,0.2l2.3-2.1l0.5-3.5l-1.4-4.2
	l-2.5-2.7l-3.2-1.8l-1.8-2.4l-0.2-1l-0.6-0.1L129.5,70.5z"/>
<path class="st9" d="M135.2,87.5l1.4,0.2l2.3-2.1l0.5-3.5l-0.2-0.7l-1.1,0.8l-5.5,1.5l-7.5-0.6l-2.5-1.6l-0.2,1.6l2.1,3.6l4.2,1.4
	l2-0.6H135.2z"/>
<path class="st7" d="M126.3,87.9l3.2-0.6l4.3-0.5l3,0.6l0.1,11.9l1.5,1.4l1.3,0.4l-0.2,4.1l2,0.6l0.9,1.3l0.2,2.9l-0.3,2.1l-0.3,3.4
	l-12.9-0.2L126.3,87.9z"/>
<path class="st7" d="M151.9,118h5.2l1.1,0.1l0.8,0.5l0.7,5.9l4.2,0.7l4,0.1l0.7,14.2l-9.5,2.6l-6.9,0.4L151.9,118z"/>
<path class="st5" d="M155.4,138l-3.2,0.2l0.1,4.4l6.9-0.4l9.5-2.6l-0.1-1.9l-4.4,0.4L155.4,138z"/>
<path class="st6" d="M159.8,124.6l-0.1,17.5l9-2.5l-0.7-14.2l-4-0.1L159.8,124.6z"/>
<path class="st7" d="M159.7,138l0,4l9-2.5l-0.1-1.9l-4.4,0.4L159.7,138z"/>
<path class="st5" d="M141.2,112.3l4.6-0.6l4.3,0.6l0.7,0.6l-0.4,2l-9.6,0.6L141.2,112.3z"/>
<path class="st7" d="M140.5,113.9l5.6,0.1l3.7,0.1l2.7,0.7l0.7,2l0.2,26.8l-6.1,0.2l-5.7,0.2L140.5,113.9z"/>
<path class="st5" d="M58.8,120.9l-0.2,23.2l2.2,0.3l2.9-0.1l6.1,0.4l5.4,0.9l6.5-1l10.9,0.2l8.6-0.7l7.4,1.4l18.7,0.2l15.2-0.6
	l0.6-0.7l0.7-26.2l0.1-3.9l-14.3-0.7l-14-0.4l-9.8-0.7l-18.7-1l-8.7,5.7l-10.6,0.5L58.8,120.9z"/>
<path class="st10" d="M101.4,25.7L95.9,40l-2.4,6.9l18.9,0.1L108,31.4l-2-6.4L101.4,25.7z"/>
<path class="st11" d="M98.6,35.8l3.6-10.2l-0.8,0.1L95.9,40l-2.4,6.9l1.5,0L98.6,35.8z"/>
<path class="st11" d="M97.9,46.9l1.4,0l3.8-21.5l-1.1,0.2L97.9,46.9z"/>
<path class="st11" d="M102.2,46.9l2.2,0V25.2l-1.6,0.2L102.2,46.9z"/>
<path class="st11" d="M105.5,25.1l5.8,21.9l1.1,0L108,31.4l-2-6.4L105.5,25.1z"/>
<path class="st5" d="M100.3,16.7l0.8,7.6l5.2,0.1l-0.2-7.3l-3.4-1.3L100.3,16.7z"/>
<path class="st7" d="M105.1,24.3l1.2,0l-0.2-7.3l-0.9-0.3L105.1,24.3z"/>
<path class="st7" d="M101.1,24.2l0.5,0l-0.6-7.8l-0.7,0.3L101.1,24.2z"/>
<path class="st7" d="M100.2,24.9l0.5-0.9l0.8-0.4l2.9,0.2l2.2,0.2l0.2,0.9l-0.1,1.7l-1.1-0.7l-2.6,0.1l-2.2,1l-0.5-1.1L100.2,24.9z"
	/>
<path class="st6" d="M100.6,24l-0.4,0.7l1.5-0.5l2.6,0.1l2.4,0.5l-0.2-0.9l-2.2-0.2l-2.9-0.2L100.6,24z"/>
<path class="st5" d="M105.5,25.3h-2.9l-2,1.1l0.3,0.6l2.2-1l2.6-0.1l1.1,0.7l0-0.8L105.5,25.3z"/>
<path class="st4" d="M102.7,8.9l-1.8,2.1l-2,2l-0.5,3.1l1.1,1.5l1.3-0.2l1.6-0.6l2.6,0.5l1.7,0.4l0.8-1.5l-0.4-2.6l-2-2.4l-1.9-1.9
	L102.7,8.9z"/>
<path class="st4" d="M102.7,7.6L102,8.1l0.7,0.6l0.5-0.2L103,7.8L102.7,7.6z"/>
<path class="st4" d="M102.4,3.4l0.2,4.3l0.1-4.3H102.4z"/>
<path class="st4" d="M101.8,4.3l1.5-0.1l-0.1,0.4l-1.4-0.1V4.3z"/>
<path class="st4" d="M101.9,5.8l1.2,0.4l0.1,0.4l-1.2-0.5V5.8z"/>
<path class="st12" d="M106.9,15.9l-2.3-0.8c0,0-3.1-0.2-3.3-0.2c-0.2,0-1.8,0.5-1.8,0.5l-0.6,1.3l0.7,0.9l1.3-0.2l1.6-0.6l2.6,0.5
	l1.7,0.4l0.6-1.1L106.9,15.9z"/>
<path class="st7" d="M90.3,48.2l3.8-3.6l6.3,1.5l2.9-3.9l4.4,3.6l6.6,0.4l-1,1.4l0.1,9.1l-20.2-0.7v-3.7L90.3,48.2z"/>
<path class="st6" d="M113.4,47.7l1-1.4l-6.6-0.4l-4.4-3.6l-2.9,3.9l-6.3-1.5l-3.8,3.6l1.8,2.5l2.7-3.1l5.9,1l2.9-2.6l3,2.5l6.8-0.1
	L113.4,47.7z"/>
<path class="st7" d="M107.9,45.9l-4.4-3.6l-2.9,3.9l-6.3-1.5l-3.8,3.6l0.9,1.3l3-3.4l6,1.3l3.2-3.7l3.9,3.3l6.5,0.3l0.6-0.8
	L107.9,45.9z"/>
<path class="st6" d="M94.8,47.3l0.2,3.2l0.2,6.2l0.6,0.2l0.2-9.5H94.8z"/>
<path class="st6" d="M100.8,47.6l0.1,3.9l0.3,5.4l0.8-0.1l-0.2-9.5L100.8,47.6z"/>
<path class="st6" d="M106.1,47.1L106,57l1-0.1v-5.2l0.2-4.3L106.1,47.1z"/>
<path class="st7" d="M92.2,55.6l1.7-1.3l1.7,0.6l2.5-2.1l2.1-0.2l1.8,0.6l1.5,2l2.5-2.4h2l2.4,1.3l0.6,1.5l1.8-1.3l1.7,0.6l-0.2,3.6
	l-0.6,10.6l-0.1,1.9l-13.7-3.8l-7,0.8l0.6-3.9l-0.4-5.5L92.2,55.6z"/>
<path class="st6" d="M96.3,55.3l1.6-1.7l1.6-0.5l2.2,0.6l1.3,1.8l-0.3,0.2l-1.9-1.4h-2.1l-1.4,0.8l-1,0.8V55.3z"/>
<path class="st6" d="M103.9,55.6l1.8-1.4l1.3-0.4l1.5,0.5l1,0.7l0.7,1v1.5l-0.5-0.1l-0.6-1.5l-1.3-0.8l-1.2,0.2l-2.2,1L103.9,55.6z"
	/>
<path class="st6" d="M96,58.6l0.8-1.5l1.5-0.9l2.5,0.1l1.7,1.1l0.6,2l-0.2,0.4h-0.4l-1.1-1.6l-0.9-0.5l-1.5,0l-1.1,0.4l-1.2,0.8
	L96,59.4l-0.3-0.3L96,58.6z"/>
<path class="st6" d="M103.3,59.5l0,0.4l1.1-0.1l1.2-1.9l1.6-0.2l0.9,0.8l0.8,1.7l0,0.8h0.3l0-1.9l-0.8-1.9l-1.3-0.5l-1.9,0l-1,1
	L103.3,59.5z"/>
<path class="st6" d="M95.5,63l1.3-1.9l2.7-0.2l2.1,0.8l0.5,0.8l0.1,1.4l0,1l-0.7-0.1l-0.3-1l-1.8-1.2l-1.4,0l-1.1,0.6l-0.5,1.1H96
	L95.5,63z"/>
<path class="st6" d="M102.8,64.6l1.3-1.9l2.1-0.9l2.3,0.6l0.3,1.5l-0.5,1l-1.8-1l-1.9,0.2l-1,0.9L102.8,64.6z"/>
<path class="st6" d="M102.1,61l0.3,0.7l0.2,1.1L103,63l0.8-1l0.5-0.9l-0.7-0.6l-1-0.3L102.1,61z"/>
<path class="st6" d="M102.5,56.6l0.5,0.8l0.2,0.9l0.3-0.2l0.4-1l0-0.7l-0.8-0.3L102.5,56.6z"/>
<path class="st5" d="M95.7,67.9l-0.1-3.4L95.6,61l0-4.1l0-2l0,0l-1.7-0.6l-1.7,1.3l0.9,3.2l0.4,5.5l-0.6,3.9L95.7,67.9z"/>
<path class="st7" d="M92.4,56.2l0.3,1.1l0.2-0.4l1.3-0.6l1.3,0.1l-0.1-0.6l-1.2-0.5L93,55.6L92.4,56.2z"/>
<path class="st7" d="M92.9,57.9l0.2,0.8l1,0l0.8,1.3l0.6-0.3l-0.1-0.5l-0.4-1l-1.1-0.8L92.9,57.9z"/>
<path class="st7" d="M93.4,63.5l0.6,0.3l0.6,1l0.8-0.1l-0.2-0.8l-1-1.9l-0.9-0.1L93.4,63.5z"/>
<path class="st10" d="M94,55.8l-1.1,0.5l-0.4,0.5l0.2,0.5l0.2-0.4l1.3-0.6l1.3,0.1l-0.1-0.4l-0.3-0.1L94,55.8z"/>
<path class="st10" d="M95.1,59.8l-0.4-1.1l-0.5-0.5l-0.8,0L93,58.3l0.1,0.4l1,0l0.8,1.3L95.1,59.8z"/>
<path class="st10" d="M94.5,63.6l-0.6-0.8l-0.6-0.2l0.1,0.9l0.6,0.3l0.6,1l0.3,0L94.5,63.6z"/>
<path class="st5" d="M101.8,58.1l-1.2-0.9L98.8,57l-1.6,0.8l-1.3,1.4l0.2,0.2l0.6-0.5l1.2-0.8l1.1-0.4l1.5,0l0.9,0.5l1.1,1.6h0.3
	L101.8,58.1z"/>
<path class="st5" d="M101.5,63.6l-0.6-1l-1.6-0.5h-1.6l-1.2,0.7l-0.7,0.9l0.2,0.5h0.5l0.5-1.1l1.1-0.6l1.4,0l1.8,1.2l0.3,1l0.3,0
	L101.5,63.6z"/>
<path class="st5" d="M108.9,59.3l-0.4-1l-1-1c0,0-1.1-0.1-1.3-0.1c-0.2,0-1.2,0.3-1.2,0.3l-0.9,1.5l-0.3,0.9l0.6-0.1l1.2-1.9
	l1.6-0.2l0.9,0.8l0.8,1.7l0,0.8h0.1L108.9,59.3z"/>
<path class="st5" d="M108.8,64l-1.2-1l-1.2-0.3l-1.8,0.7l-1.5,1.2l0.5,0.3l1-0.9l1.9-0.2l1.8,1L108.8,64z"/>
<path class="st5" d="M90.6,68.7l4.1-1.9l1.3-0.7l2.3-0.1l4,0.7l7.4,2.2l1.3,0.4l-0.1,10.3l-6.2,6.8l-5.5,2.3l-5.3,1L92.2,89
	l-0.1-10.3L90.6,68.7z"/>
<path class="st10" d="M104.7,86.4l6.2-6.8l0.1-10.3l-1.3-0.4l-7.4-2.2l-3.7-0.6l0.1,6.5l0.6,7.7l-0.2,8.4L104.7,86.4z"/>
<path class="st10" d="M102.4,66.7l-4-0.7l-2.3,0.1l-1.3,0.7l-4.1,1.9l0.3,1.9l2.9-1.9l3.6-0.8l1.4-0.2l2.7,0.8l4.9,1.3L111,71l0-1.7
	l-1.3-0.4L102.4,66.7z"/>
<path class="st11" d="M102.4,66.7l-3.7-0.6l0,1.6l0,0l2.7,0.8l4.9,1.3L111,71l0-1.7l-1.3-0.4L102.4,66.7z"/>
<path class="st7" d="M81.3,81.5v2.9l0.2,3.7v1.1l5.6-0.4l4,0.1l2.4,0.2l0.1-7.2l-5.8,0.2l-5.1-0.3L81.3,81.5z"/>
<path class="st6" d="M85.5,85.4l-0.3-0.9l-0.5-0.4l-0.7,0.2l-0.1,1.4l0.1,3.3l1.6-0.1L85.5,85.4z"/>
<path class="st6" d="M87.7,84.1L87,84.8l-0.1,4.1l0.3,0l1.3,0l0.2-2.6l-0.4-1.7L87.7,84.1z"/>
<path class="st6" d="M91.5,84.2l-0.5,0.5L90.7,89l0.4,0l1.1,0.1v-1.7l-0.1-2.6L91.5,84.2z"/>
<path class="st13" d="M74.7,105.2l3.1-10.6l3.5-6.1l4.9-0.4l6,0.2l1.9,0.2l4.4,8.6l3.5,7.9l0.2,7l-27.5-0.6V105.2z"/>
<path class="st14" d="M97,94.5l-2.1-4.1l-6.5-0.4l-6.3,0.2l-1.8,0.1l-2.4,4.2l8-0.4l8.6,0.3L97,94.5z"/>
<path class="st14" d="M99.4,99.2l-1-2.1l-1-2l-6.8,0l-6,0.1l-6.9,0.3l-1.1,4l6.5-0.1c0,0,8,0.1,8.6,0.1c0.6,0,6.4,0,6.4,0L99.4,99.2
	z"/>
<path class="st14" d="M101.9,105.1l-2.2-5l-7.4,0.4l-6.7-0.1l-6.4-0.1l-2.9-0.1l-1.5,5.1v0.7l9-0.1l9.8-0.2l5.6-0.2l2.7-0.1
	L101.9,105.1z"/>
<path class="st5" d="M101.9,106.2l-3.5,0.1l-6.4,0.1l-9,0.2l-8.2,0.1v4.8l27.5,0.6L101.9,106.2z"/>
<path class="st7" d="M79.2,93.9l2.5-0.2l2.9-0.2l2.3-0.1l-1.1-2.4l-2.7-0.7l-1.8,0.7l-1.5,1.8L79.2,93.9z"/>
<path class="st7" d="M87.4,93.5l0.5-2l1.8-1.2l2.1,0.2l1.4,1.5l0.2,1.7L87.4,93.5z"/>
<path class="st7" d="M83.4,98.8l1.1-2.5l1.5-1h2.7l1.7,1.1l0.8,2.7L83.4,98.8z"/>
<path class="st7" d="M77.9,104.9l0.7-2.3l2.2-1.7l2.3-0.2l1.8,0.5l1.4,2.3l0.5,1.5L77.9,104.9z"/>
<path class="st7" d="M87.5,105l0.7-2.7l1.7-1.3l3-0.1l1.7,1.3l0.8,2.7L87.5,105z"/>
<path class="st7" d="M96.7,93.9l-1.4-2.8l-1.1,0.5l-0.4,2L96.7,93.9z"/>
<path class="st7" d="M92,99l1.5,0.1l4.1-0.1l1.5-0.2l-0.7-1.6l-0.8-1.6l-1.1,0l-1.7,0.2l-1.7,1.1L92,99z"/>
<path class="st7" d="M77.3,96.3l-0.7,2.5H83l-0.2-1.1l-1.5-1.3L79.1,96L77.3,96.3z"/>
<path class="st7" d="M99.4,100.5l-1.2,0.6l-1.5,1.4l-0.6,2.4l3.6-0.2l2-0.1l-1.8-4.1H99.4z"/>
<path class="st7" d="M77.3,104.9l-0.1-1l-0.7-2.6l-0.5-0.5l-1.2,4.1L77.3,104.9z"/>
<path class="st5" d="M98.6,101.7l-1.2,1.4l-0.4,1.6l2.7-0.1l2-0.1l-1.5-3.4L98.6,101.7z"/>
<path class="st5" d="M88,105l6.8-0.1l-0.4-1.4l-0.9-1l-1.5-0.7l-2,0.2l-1.6,1.5L88,105z"/>
<path class="st5" d="M95.3,96.5l-1.5,1L92.6,99l0.9,0l4.1-0.1l1.5-0.2l-0.7-1.6L98,96.4l-0.7-0.3L95.3,96.5z"/>
<path class="st5" d="M84,98.8l6.7,0.3l-0.2-0.8L90,97l-1.5-0.9l-2,0.1l-1.5,1L84,98.8z"/>
<path class="st5" d="M82,98l-0.7-0.8l-1.7-0.4l-2.5,0.3l-0.5,1.8h5.7L82,98z"/>
<path class="st5" d="M85.8,105.1l-0.8-2.5l-2.3-0.8l-2.4,0.3l-1.3,1.4l-0.4,1.3L85.8,105.1z"/>
<path class="st5" d="M85.6,92.2l-1.1-0.7l-1.8-0.1l-1.5,0.8l-1.3,1.8l1.9-0.1l2.9-0.2l1.5,0L85.6,92.2z"/>
<path class="st5" d="M92.8,93.7l-0.1-0.9L92,91.7l-1.2-0.6L89,91.4l-1,1.2l-0.1,0.9L92.8,93.7z"/>
<path class="st5" d="M57.5,80.4v3.7l0.4,5.2l0.2,1.7l3.8,0.7l5.5-0.1l1.7-0.9L69,84.7l0.1-4.3l-3.8-1.1L61,79.5L57.5,80.4z"/>
<path class="st7" d="M61,79.5l0.1,12.1l0.8,0.1l4.6,0l-0.3-12.1l-1-0.3L61,79.5z"/>
<path class="st10" d="M68.5,80.3l0.1,10.8l0.5-0.3L69,84.7l0.1-4.3L68.5,80.3z"/>
<path class="st10" d="M58.4,84l-0.2-3.8l-0.7,0.2v3.7l0.4,5.2l0.2,1.7l0.6,0.1L58.4,84z"/>
<path class="st7" d="M59.4,87l-0.2-3.7l0.1-0.9l0.7-0.3l0.1,1l-0.1,4L59.4,87z"/>
<path class="st6" d="M63.4,86.7l0.1-3l0.2-1.6l0.5-0.1l0.4,0.7l-0.1,3.9L63.4,86.7z"/>
<path class="st7" d="M67.1,86.8L67,84l0.1-1.6l0.5-0.4l0.4,0.5l-0.1,4.5L67.1,86.8z"/>
<path class="st5" d="M57.4,81.5l3.6-1.4l2.6,0.1l2.7,0.1l2.7,0.7l1.5-1.5v-0.9l-2.9-2l-6.3,0.1l-4.5,2l-0.5,0.9L57.4,81.5z"/>
<path class="st10" d="M56.8,78.6L56.8,78.6l1.4,2.6l2.8-1.1h0l0.3-3.5L56.8,78.6z"/>
<path class="st10" d="M70.5,78.9v-0.4l-2.9-2l-0.3,0l-1.1,3.7l2.4,0.6L70.5,78.9z"/>
<path class="st10" d="M70.5,78.5l-2.9-2l-6.3,0.1l-4.5,2l-0.5,0.9l0.3,0.6l0.6-0.9l4-1.8h5.9l3,2l0.2,0.4l0.3-0.3V78.5z"/>
<path class="st11" d="M56.8,78.6L56.8,78.6l0.3,0.6l0-0.1l4-1.8h0l0.1-0.7L56.8,78.6z"/>
<path class="st11" d="M70.5,78.5l-2.9-2l-0.3,0l-0.2,0.8l3,2l0,0l0.4-0.4V78.5z"/>
<path class="st15" d="M110.6,68.9l-1.5-0.1l-2-1.8l-0.8-2.8l0.5-4l3.4-4.2l3.3-2.9l2-2l1-2l0.6,0.1l1,2.2l4.2,4.3l5.1,5.1l0.5,3.6
	l-0.4,2.8l-2.1,2.3l-1-0.2l-3.1-1.1l-3.6-0.7L113,68L110.6,68.9z"/>
<path class="st5" d="M110.1,68.8l0.1,4.3l0.1,5.7l6.6,0.4l7.6,0.1l0.4-10.5l-7-2l-6.3,1.1L110.1,68.8z"/>
<path class="st10" d="M123.3,79.2l1.2,0l0.4-10.5l-1.2-0.3L123.3,79.2z"/>
<path class="st7" d="M111.6,67.9l-1.5,0.9l0.1,4.3l0.1,5.7l2.2,0.1l0.1-6.4l0.3-4.8L111.6,67.9z"/>
<path class="st7" d="M53,93.8l0.2-2.8l0.9-2.3l1.1,0.1l0.7-1.2l1.1-0.7l1.6,1l1.4,3.4l1.1-2.2l1.8-1.2l2.9,0.2l1.2,1.8l1-1.7
	l1.6-0.1l1.3,1.3l1.3,1.9l-0.1,3.3l-16.7-1L53.6,94L53,93.8z"/>
<path class="st13" d="M69.7,88l-1.6,0.1l-1,1.7l-1.2-1.8L63,87.8l-1.8,1.2l-1.1,2.2l-0.9-2l0.2,1.6l0.2,1.1l0.8,0.1l1.4-2.4l2-0.9
	l1.4,0.3l1.3,1.2l0.4,1.4l1.1-2l1.5-0.8l1,0.5l2,2.3l0-0.3L71,89.3L69.7,88z"/>
<path class="st13" d="M55.7,89.1l0.6-1.3l1.6-0.5L57,86.9L56,87.6l-0.7,1.2l-1.1-0.1l-0.2,0.6l0.8,0l0.5,2V92L55.7,89.1z"/>
<path class="st5" d="M56.6,89.4L56,91.3v2.3l3.2,0.2v-1.6L58.7,90l-0.8-1.2L56.6,89.4z"/>
<path class="st5" d="M66.2,94.2l-0.2-1.5l-0.6-2.1L64,90l-1.7,0.6l-0.8,1.8l-0.2,1.5L66.2,94.2z"/>
<path class="st5" d="M69.7,90.4l-1.5,0.4l-0.7,2.1l0.1,1.4l4.1,0.2v-1.6L70.8,91L69.7,90.4z"/>
<path class="st5" d="M54.3,91.5l-0.5-1.1l-0.3,0L53.2,91L53,93.8l0.6,0.2l0.7-0.2L54.3,91.5z"/>
<path class="st7" d="M52.7,93.6l3.2-1l3.7-0.3l7.7,0.4H69l4.2,1.4l-0.6,1.3l0.2,10.5l-0.4,9.5l-6,2.8l-7.5,1l-4.5-2.9l-0.2-6.2
	l-0.1-6.1l-0.3-7.2l-0.2-1.4L52.7,93.6z"/>
<path class="st10" d="M72.6,95.5L72.6,95.5l0.6-1.4L69,92.7h-1.7l-7.7-0.4l-3.7,0.3l-3.2,1l1,1.8l0,0.1l2-0.7l3.6-0.5h3.7l5.3,0.7
	L72.6,95.5z"/>
<path class="st11" d="M69,92.7h-0.1L68.2,95l0,0l4.4,0.5v-0.1l0.6-1.3L69,92.7z"/>
<path class="st11" d="M59.8,94.3h3.1l4.4,0.5l0.4-2.2h-0.4L60,92.4L59.8,94.3z"/>
<path class="st11" d="M55.9,92.6L55,92.9l0.6,1.9l0,0l3.6-0.5h0.1l0.2-2L55.9,92.6z"/>
<path class="st6" d="M65.1,95.1L59,94.8l-2.8,0.7l-2.5,0.4l0.2,0.9l0.3,7.2l0.1,6.1l0.2,6.2l4.5,2.9l7.5-1l6-2.8l0.4-9.5l-0.2-9.6
	l-5.5-0.9L65.1,95.1z"/>
<path class="st5" d="M67.8,95.6v4.2l0.1,10.6l4.7,0.6l0.2-5.1l-0.2-9.6L67.8,95.6z"/>
<path class="st5" d="M65.1,95.1l-5.3-0.3l0.2,5.5l0.3,10l7.1,0.1l-0.1-15l-0.1,0L65.1,95.1z"/>
<path class="st5" d="M59.2,100.2l-0.1-5.4l-0.1,0l-2.8,0.7l-2.5,0.4l0.2,0.9l0.3,7.2l0.1,6.1l0,1.1l5.4-0.8L59.2,100.2z"/>
<path class="st5" d="M68,111.4l-8.2-0.2l-5.5,0.8l0.1,4.4l4.5,2.9l7.5-1l6-2.8l0.1-3.3L68,111.4z"/>
<path class="st7" d="M67.9,110.4l4.7,0.6l0.2-4l-0.4-3.6l-1.5-7l-0.6,0.1l-1.4,6.8l-1,4L67.9,110.4z"/>
<path class="st7" d="M64.3,96.7l-0.1-1.1h-0.7l-1.2,5.1l-1.4,6.2l-0.8,2l0,1.5l7.1,0.1l0-1.7l-1.4-5.3L64.3,96.7z"/>
<path class="st7" d="M59.6,108.6l-0.4-0.8l-1.7-8.7L56.7,96h-0.5l-1.9,12.2l0,1.9l0,1.1l5.4-0.8L59.6,108.6z"/>
<path class="st6" d="M55.8,103.6l1.2-0.1l0.2,6.5h-1.3L55.8,103.6z"/>
<path class="st6" d="M63.4,102.8l0.1,6.7l1.7,0.3l-0.6-7.2L63.4,102.8z"/>
<path class="st6" d="M69.9,103.2l-0.4,6.7h1.2l-0.1-6.9L69.9,103.2z"/>
<path class="st14" d="M117.9,51l-0.9-1.9l-0.6-0.1l-1,2H117.9z"/>
<path class="st14" d="M127.4,67.4l0.2-3.3l-2.1-4.3l-3.4-2.9l-2.2-2.4l-1.8-2.4l-0.1-0.7l0,0l-1-2.2l0,0l0.1,2.2l2,3.7l2.9,3
	c0,0,2.3,2.9,2.3,3c0.1,0.2,1.6,2.7,1.6,2.7l0.4,2.5l-0.2,2.4L127.4,67.4z"/>
<path class="st14" d="M119.6,58l-2.7-4l-0.7-4.4l-0.7,1.3l-0.1,1.1l1.2,3l1,2.6l2.7,3.3l2,3l0.7,3l-0.3,1.6l1.5,0.5l0.3-1v-2.7
	l-1.5-3.8L119.6,58z"/>
<path class="st14" d="M117.9,60.8l-1.8-2.7l-1.4-4l0-2.4l-0.7,0.7l-0.1,1.4l0.2,1.7l0.8,2.6l1.4,2.7l1.8,2.1l1,2.6l-0.3,2.1l1.7,0.3
	l0-2.5l-0.8-2.3L117.9,60.8z"/>
<path class="st14" d="M117.8,66.3l-1.7-2.7l-2-3.1l-0.7-4l0.2-3.6l-0.2,0.2l-0.7,0.6l-0.5,1.8c0,0,0.2,4,0.2,4.2
	c0,0.2,1.2,3.7,1.2,3.7l2.3,2.9l0.2,1.3l1.6-0.2L117.8,66.3z"/>
<path class="st14" d="M113.6,65c-0.1-0.2-1.5-3.5-1.5-3.5l-1.1-3.7l0.9-3.2l-0.9,0.8l-0.7,3.4l0.3,2.1l1,3.9l1.7,2.2l0.3,1.1
	l1.4-0.2C114.5,66.9,113.6,65.1,113.6,65z"/>
<path class="st14" d="M111.3,68.6l1.1-0.4c-0.5-0.8-1.1-1.8-1.1-1.9c-0.1-0.2-1.4-2.7-1.4-2.7l-1.1-3.3l1-3.7l-1.5,1.9l-0.3,0.8
	l0.3,3.7l2,4.5L111.3,68.6z"/>
<path class="st14" d="M110.2,68.9l-1-0.9c0,0-1.1-1.7-1.2-1.9c-0.1-0.2-1.1-3.3-1.1-3.3l0.3-3.1l-0.4,0.5l-0.5,4l0.8,2.8l2,1.8
	L110.2,68.9z"/>
<path class="st16" d="M127.7,66.4l-0.3-0.4l-4.5-1.2l-5.3-1.1l-6.6,0.2l-4.5,1l0.6,2.1l2,1.8l1.5,0.1L113,68l4.8-0.6l3.6,0.7
	l3.1,1.1l1,0.2l2.1-2.3L127.7,66.4z"/>
<path class="st17" d="M107.1,67l2,1.8l1.1,0l-1-0.9c0,0-1.1-1.7-1.2-1.9c0-0.1-0.3-0.7-0.5-1.5l-1,0.2L107.1,67z"/>
<path class="st17" d="M108.9,64.3l1.4,3.1l1,1.2l1.1-0.4c-0.5-0.8-1.1-1.8-1.1-1.9c0-0.1-0.8-1.5-1.1-2.3L108.9,64.3z"/>
<path class="st17" d="M111.5,64.7l1.7,2.2l0.3,1.1l1.4-0.2c-0.4-0.9-1.3-2.7-1.3-2.8c0-0.1-0.2-0.6-0.5-1.1l-1.7,0.1L111.5,64.7z"/>
<path class="st17" d="M117.8,66.3l-1.6-2.6l-2.1,0.1l2,2.6l0.2,1.3l1.6-0.2L117.8,66.3z"/>
<path class="st17" d="M119.2,65.5l-0.3,2.1l1.2,0.2l0.6,0.1l0-2.5l-0.5-1.3l-1.6-0.3L119.2,65.5z"/>
<path class="st17" d="M122.5,64.7l0.5,2.3l-0.3,1.6l1.5,0.5l0.3-1v-2.7l-0.1-0.3l-1.6-0.4L122.5,64.7z"/>
<path class="st17" d="M126.1,68.7l1.3-1.4l0.1-1.2l-0.1-0.1l-1.1-0.3l0.1,0.7L126.1,68.7z"/>
<path class="st4" d="M116.6,47.8l-1,0.8l1,0.9l0.8-0.4l-0.4-1.1L116.6,47.8z"/>
<path class="st4" d="M116.2,41.6l0.1,6.6l0.5-0.1l-0.1-6.6H116.2z"/>
<path class="st4" d="M115.2,42.8l2.2-0.1l-0.1,0.6l-2.2-0.1V42.8z"/>
<path class="st4" d="M115.5,45l1.8,0.6l0.1,0.5l-1.9-0.7V45z"/>
<path class="st6" d="M115.6,70.5l0.1,6.4h0.7l0.2-6l-0.3-0.6L115.6,70.5z"/>
<path class="st6" d="M118.4,70.5v6.4h1.1l-0.1-5.8l-0.4-0.9L118.4,70.5z"/>
<path class="st6" d="M121,71.3l0.1,5.7l1.1,0.1v-3.5l-0.1-2.3l-0.6-0.7L121,71.3z"/>
<path class="st6" d="M113.7,70.7l0.1,5.9l-1.1,0.2l-0.2-5.7l0.2-0.8l0.5-0.2L113.7,70.7z"/>
<path class="st5" d="M103.1,93v5l-0.3,8.9l28.1,0.9l-0.3-5.4l-0.2-8.7l-0.5-1l-6-1.4L108,91.3L103.1,93z"/>
<path class="st7" d="M108.4,103l-0.1-6.9l0.2-4.9l-0.5,0l-4.9,1.7v5l-0.3,8.9l5.7,0.2L108.4,103z"/>
<path class="st7" d="M109,107.1l8.8,0.3V91.2l-8.8,0.1V107.1z"/>
<path class="st7" d="M125.6,107.6v-6.4l0.4-9.6l-2.1-0.5l-5.5,0l-0.3,2.3l0.2,5.5l-0.1,8.3L125.6,107.6z"/>
<path class="st10" d="M130.9,107.7l-0.3-5.4l-0.2-8.7l-0.5-1l-3.5-0.8l-0.2,4.8l-0.1,11.1L130.9,107.7z"/>
<path class="st5" d="M130.6,102.3l0-1.5l-0.3-0.8l-0.6-3.3l-0.5-1.5l-2.2,5.8l-0.8,3.2l0,2l1.4-4.2l1.4-4.9l0.8,2.3l0.3,2.8l0.8,2.5
	L130.6,102.3z"/>
<path class="st6" d="M125.6,105.5l-0.4-0.7l-1.3-4l-1.2-4.3l-0.9-2.5l0.1-0.7l-0.5,0.2l-1.7,6.1l-1,3.1l-0.4,1l0,2.5l0.7-2.1
	l1.7-6.4l0.6-2.2l0.4,0.1l1.5,5.2l1.1,3.7l0.8,2l0.4,0.6V105.5z"/>
<path class="st6" d="M117.8,104l-1.4-2.1l-1.2-3.8l-1.2-3.7l-0.8-1.2l-1.9,5.2l-1.3,4.3l-1,2v2.1l0.5-0.8l1.5-3.9l2.3-7l1,2.4l1,3.8
	l1.3,2.9l1.2,1.9V104z"/>
<path class="st6" d="M106.1,93.8l-0.4-0.3l-2.1,7.8l-0.7,2.6l-0.1,3l0.1,0l0.8-3.3l2-8.3l1,4.1l1.7,3.9l0-0.1l0-2.1l-0.8-1.9
	L106.1,93.8z"/>
<path class="st6" d="M105.3,99.9l-0.3,5.6l0.9,0.1l0.3-5.7H105.3z"/>
<path class="st6" d="M112.7,99.1l-0.1,5.9l1.3-0.2l-0.1-5.7H112.7z"/>
<path class="st6" d="M121,99.5l-0.4,6.1l1.4-0.1l-0.1-6L121,99.5z"/>
<path class="st7" d="M128.4,101l-0.3,5.2h0.8l0.3-5.3L128.4,101z"/>
<path class="st13" d="M105.4,83.1l1.4-3.5l1.5-1.4l4.3-0.2l10.1,0.6l2.4,0.5l1.4,2.7l0.5,3.3l1.9-0.2l1,1l1,2.3l0.2,4.9l-0.7,1.6
	l-3.8-1.9l-8.7-0.2h-7h-4.2l-4,1.4l-1.2-2.4l-0.4-5.6l0.2-1.8l1.7-1l1.2-0.2L105.4,83.1z"/>
<path class="st5" d="M106,82.9l1-2.3l1.2-1.4l1.3-0.3l1.5,0.4l1.1,2.1l-2,0.2l-1.4,1.1l-1.6,3.4l-0.7-2.3L106,82.9z"/>
<path class="st5" d="M102.3,83.9l-0.5,0.9l-0.1,3l0.1,2.1l4.9-2.3l-0.5-2.1l-1.1-1.8l-1.5-0.2L102.3,83.9z"/>
<path class="st5" d="M112.4,82l-2.6,0.7l-1.2,1.7l-0.8,2.4v0.4l2.7-0.2h3h2l-0.6-3l-1.3-1.5L112.4,82z"/>
<path class="st5" d="M116.5,87l0.8-2.7l1.5-1.5l1.9-0.2l1.7,0.6l1.5,1.8l0.2,2.8l-2.4-0.2l-3.9-0.3L116.5,87z"/>
<path class="st7" d="M115.9,85.3l-0.4-1.8l-1.1-1.5l0.5-1.7l1-1.4l1.4-0.1l1.3,0.6l1,2.4l-1.4,0.5l-1.1,1L115.9,85.3z"/>
<path class="st5" d="M121.8,81.9l0.7-1.7l1.6-0.8l1,0.6l0.8,2.2l0.4,2.5v0.6l-1.4,1.5l-0.2-2.1l-0.7-1.2l-1.3-1.1L121.8,81.9z"/>
<path class="st5" d="M128.5,85.6l-1.7,0.2l-1.2,1.2l-0.4,0.7h1.5l1.5,0.9l1.6,0.7l0.7,0.5l-0.2-2.2l-0.9-1.4L128.5,85.6z"/>
<path class="st5" d="M131,92.9l-0.1-2l-2.8-1.7l-1.7-0.7l-2-0.4l-2.8-0.1l-6-0.2l-5.5-0.1l-2.7,0.2l-3.5,1.4l-2.7,1.2l0,0.7l1.2,2.4
	l4-1.4h4.2h7l8.7,0.2l3.8,1.9L131,92.9z"/>
<path class="st10" d="M131,92.9l0-0.7l-3.5-2l-2.1-0.7l-9.2-0.6l-7.1-0.1l-4,1.4l-3.5,1.6l1,1.9l4-1.4h4.2h7l8.7,0.2l3.8,1.9
	L131,92.9z"/>
<path class="st7" d="M128.2,86.8l-1.3-0.1l-0.6,0.8h0.4l1.5,0.9l1.6,0.7l-0.2-1.1L128.2,86.8z"/>
<path class="st7" d="M126.2,84.7l-0.4-2.5L125,80l-1-0.6l-1.6,0.8l-0.7,1.7l0.6,0.4l1.2-1l0.8,0.1l0.8,1.4l0.1,1.2l0.3,2l0.7-0.8
	V84.7z"/>
<path class="st7" d="M123.1,85.7l-0.7-1.5l-1.6-0.9L119,84l-1.2,1.2l-0.6,1.8l0.6,0.1l0.4,0l0.1-0.4l0.5-1.5l1.4-0.4l1.5,0.7
	l0.3,1.9l1.1,0.1L123.1,85.7z"/>
<path class="st5" d="M118.5,79.3l-1.3-0.6l-1.4,0.1l-1,1.4l-0.5,1.7l0.3,0.4l1-1.9l1-0.7l1.6,0.7l0.5,1.5l0.7-0.3L118.5,79.3z"/>
<path class="st7" d="M114.6,85.6l-0.7-1.5l-1.2-1.1l-1.7,0.3l-1.8,2.1l-0.6,1.9l1.2-0.1l0.6-1.9l0.9-0.8l1-0.3l1.4,1.4l0,1.5h1.1
	L114.6,85.6z"/>
<path class="st7" d="M110.7,79.9h-1.2l-1,0.2l-1,1.7l-1,1.9l0.1,0.2l0.3,0.9l1.4-2.7l1-1.4l1.1,0.3l0.2,0.6l0.9-0.1L110.7,79.9z"/>
<path class="st7" d="M105.6,86.4l-1.2-1.9l-1.1,0.1l-0.8,0.4l-0.2,2.8l0.2,1.7l0.8-0.4l-0.1-1.4l0.3-1.7l0.8,0.2l0.8,2l0.9-0.4
	L105.6,86.4z"/>
<path class="st14" d="M101.4,107l2.5-0.8l5.9-0.6h4.8l6.5,0.3l4.7,0.3l3.2,0.6l2.7,0.6l0.3,2.1l-0.5,4.5l-25.5-0.9l-2.5-2.6l-2-1.6
	V107z"/>
<path class="st5" d="M129,106.9l-3.2-0.6l-4.7-0.3l-6.5-0.3h-4.8l-5.9,0.6l-2.5,0.8v2.1l2,1.6l0.2,0.2l6.5-1.2l6.2-0.3l7.9,0.5
	l3.9,0.6l3.8,0.9l0.2-1.8l-0.3-2.1L129,106.9z"/>
<path class="st6" d="M129,106.9l-3.2-0.6l-4.7-0.3l-6.5-0.3h-4.8l-5.9,0.6l-2.5,0.8v2.1l0.2,0.2l4.1-1.3l8.7-0.4l9.8,0.6l5.1,0.9
	l2.7,0.9l0-0.3l-0.3-2.1L129,106.9z"/>
<path class="st13" d="M58.2,117.8l0.1,3.8l6.1-1.7l5.4-0.7l11.7,0.6l7.6-7.4h8l9.5,1.1l-0.4-1.2l-4.3-3.7L85,108l-3.7,1.1l-3.6,2.5
	l-4.9,1.1l-5.5,1.2L58.2,117.8z"/>
<path class="st14" d="M81.4,109.1l-2.9,2l2.7,8.7l0.2,0l7.6-7.3l-3.8-4.4l-0.1,0L81.4,109.1z"/>
<path class="st14" d="M67.5,113.9L67.5,113.9l-9.3,3.9l0.1,3.8l6.1-1.7l2.8-0.4L67.5,113.9z"/>
<path class="st14" d="M92.9,111.3l-4.4,0.4l-7.5,7.2l-1,0.2l-9.9-0.6l-3.6,0.4l-3.6,0.7l-4.6,1.1l0,0.9l6.1-1.7l5.4-0.7l11.7,0.6
	l7.6-7.4h8l9.5,1.1l-0.3-0.9l-5.2-0.8L92.9,111.3z"/>
<path class="st17" d="M58.3,121.6l6.1-1.7l2.8-0.4l0-0.8l-0.8,0.1l-3.6,0.7l-4.6,1.1L58.3,121.6z"/>
<path class="st17" d="M88.4,111.8l-7.4,7.1l0.3,0.9l0.2,0l7.6-7.3L88.4,111.8z"/>
<path class="st18" d="M75.3,98.4h-0.7l-5,17.1l5.2,1.4l6.3-1.4l-3.1-10.6L75.3,98.4z"/>
<path class="st12" d="M72,116.1l2.8-17.7h-0.3l-0.6,1.9l-1.3,7.9l-1.2,7.8L72,116.1z"/>
<path class="st12" d="M75.3,98.4h-0.6l-0.2,8.2l-0.1,10.2l0.3,0.1l0.3-0.1l0.2-10.2l0.1-8L75.3,98.4z"/>
<path class="st12" d="M76.8,104.8l-1.4-6.1l-0.1-0.3h-0.3l2.5,11.1l1.6,6.4l0.5-0.1L76.8,104.8z"/>
<path class="st11" d="M59.9,133l0.1-3.7l0.5-2.7l3-3.3l2.2-1.9l3.3-0.1l2.2,0.6l-0.1,5.3l-3.8,1.9l-5.9,3.2L59.9,133z"/>
<path class="st7" d="M105.3,112.4l5.3,0.2l9.6,0.4l7.1,0.2l4.8,0.5l-0.2,7.1l-2.9-0.1l-6.7-0.6l-8.9-0.2l-5.6-0.2l-2.2-0.1
	L105.3,112.4z"/>
<path class="st11" d="M107.9,119.8l2.2,0.1l0.1-3.4l-1-1.9h-1.1l-0.5,1.5l-0.1,3.6L107.9,119.8z"/>
<path class="st11" d="M113.8,120l0.1-2.9l-0.6-1.8l-0.7-0.6l-0.7,0.7l-0.2,2.1l0.1,2.3l1.8,0.1L113.8,120z"/>
<path class="st11" d="M117.6,120.1l-0.1-2.9l-0.3-1.7l-0.8-0.7l-1,0.8l-0.3,2v2.4L117.6,120.1z"/>
<path class="st11" d="M119.7,115.1l-0.4,1.2l-0.2,1.9l0.2,1.9l1.9,0c0-1.1,0-3.3,0-3.5c0-0.2-0.6-1.5-0.6-1.5L119.7,115.1z"/>
<path class="st11" d="M125.1,116.2c0-0.2-0.4-1.2-0.4-1.2l-1,1l-0.9,1.7l0.3,2.6l2.2,0.2C125.2,119.2,125.1,116.4,125.1,116.2z"/>
<path class="st11" d="M127.6,116.1l-0.4,1.6l-0.2,2.8l2,0.2l0.1,0l0.4-3.5l-0.8-1.9L127.6,116.1z"/>
<path class="st10" d="M120.2,112.9l-9.6-0.4l-5.3-0.2l0,1l6.3,0.8h7.6l7.5,0.2l5.4,0.6l0-1.3l-4.8-0.5L120.2,112.9z"/>
<path class="st11" d="M102.2,144.3L102,124l-0.4-0.9l-2.3,0.8l-4.1,2.2l-0.6,9.3l0.1,9.3l6.5-0.5L102.2,144.3z"/>
<path class="st11" d="M108.6,145.5l3,0l-1-19.5l-1.7-0.3l-1.3,0.6l-1,4.4l0.2,7.1l-0.2,7.3L108.6,145.5z"/>
<path class="st5" d="M147.4,143.9l3.6-0.1l-0.4-15.8l-1.4-1.3l-2.3,0.1l-1.6,1.6l-0.6,8.4l-0.1,7.3L147.4,143.9z"/>
<path class="st18" d="M49.6,104.4l-1.2,0.1l-1.3,1.3l-4.8,14.1h17.5l-2.9-6l-5.5-7.4L49.6,104.4z"/>
<path class="st12" d="M47.2,105.7l-4.8,14.1h0.6l3.4-10.3l1.2-4.1L47.2,105.7z"/>
<path class="st12" d="M46,119.8h1l1.4-15.3l-0.6,0.6L46,119.8z"/>
<path class="st12" d="M50,106.7l-0.3-2.2l-0.1-0.1l-0.5,0l0.7,5.5l1.4,9.9h1.2L50,106.7z"/>
<path class="st12" d="M56.8,113.8l-5.5-7.4l-1.7-2l2.2,3.6l2.6,3.7l2.4,3.9l1.6,4.2h1.2L56.8,113.8z"/>
<path class="st7" d="M41.2,119.5l3.2-1.3l3.2-0.2l6.2,0.2l4.6,0.2l1.4,0.4l0.2,1.7l-0.6,1l-0.3,14.8v8.3h-9.6l-3.4,0.2l-2.5-1.2
	l-1.2-13.3l-0.4-8.8L41.2,119.5z"/>
<path class="st5" d="M41.2,119.5l0.7,2l0.4,8.8l1.2,13.3l2.5,1.2l-0.5-13.2l-0.7-11l-0.3-2.4l-0.1,0L41.2,119.5z"/>
<path class="st5" d="M58.4,118.4l-4.6-0.2l-6.2-0.2l-3.2,0.2l-3.2,1.3l0.7,2l0,0.1l2.9-1l4-0.2l10.8,0.7l0.4-0.6l-0.2-1.7
	L58.4,118.4z"/>
<path class="st10" d="M44.5,118.2L44.5,118.2l-3.3,1.3l0.7,2l0,0.1l2.9-1L44.5,118.2z"/>
<path class="st11" d="M57.4,144.6l0.2-14l-1.4-0.2v-1.1l1-0.7l-0.5-1.8l-1.2-0.6l-2.1,0.6l-0.2,2.3h-1.6v-1l-0.9-1.7l-1.4-0.2
	l-1.6,1v2.5h0.6l-0.1,1.7h-1l0.7,6.4l0.3,6.8l1.3-0.1H57.4z"/>
<path class="st5" d="M51.1,128.7l2.4,0.1l0.1,1.6h-2.5V128.7z"/>
<path class="st11" d="M75.3,122.4v3.2l0.2,1.9l4,0.5l2.6-0.2l-0.4-5.6l-1.9-1h-2.5L75.3,122.4z"/>
<path class="st11" d="M86.7,124.5l6.7-5.1l2.5-1.8l-0.5-2l-0.6-1l-3.1-0.3l-3.3,0.4l-1,2l-0.9,2.2L86.7,124.5z"/>
<path class="st10" d="M114.8,125.1l0.2,8.6l0.3,4l7.4-0.9l-0.2-12.7l-2.5-0.4L114.8,125.1z"/>
<path class="st5" d="M120.1,124.4l-4.5,1.2l0.3,11.3l6-0.9l-0.2-11.3L120.1,124.4z"/>
<path class="st7" d="M118.3,127.4l-0.1,5.2h1.1l0.1-5.5L118.3,127.4z"/>
<path class="st10" d="M131.3,125.4l-0.2,12l6.9,0.2l-0.6-12.1L131.3,125.4z"/>
<path class="st5" d="M132.5,126.7l-0.1,5.9l-0.2,3.6l4.6,0.2l-0.4-6.3l-0.1-3.3L132.5,126.7z"/>
<path class="st7" d="M94.5,135.4l0.1-2l-8,0.1l-13.7-0.2l-5.5,3.3l-3.3,3.4l-5.6,0.1l0,4l2.2,0.3l2.9-0.1l6.1,0.4l5.4,0.9l6.5-1
	l10.9,0.2l2-0.2L94.5,135.4z"/>
<path class="st11" d="M73.3,138.9l-0.4-4l-2.1,1.1l-4,3.3l-2.6,2.6l-0.5,2.5l0.1,0l6.1,0.4l3.8,0.6L73.3,138.9z"/>
<path class="st7" d="M100.1,144.2l1.1-0.1L100.1,144.2z"/>
<path class="st7" d="M106.6,145.2l0.2-7.3l-0.1-3.8l-4.6-0.6l0.1,10.8l-1-0.2l7.1,1.4v0L106.6,145.2z"/>
<path class="st7" d="M140.9,139.7l-3.2,0.2l-6.7-0.2l-7.2,0.3h-12.5l0.3,5.5l-1,0l16.7,0.2l15.2-0.6l0.6-0.7l0.1-4.6L140.9,139.7z"
	/>
<path class="st10" d="M111.6,67.9l-1.5,0.9l0,1.2l2.3-1.3l4.4-0.7l2.7,0.2l3.9,1.1l1.4,0.5l0-1l-7-2L111.6,67.9z"/>
<path class="st5" d="M112.4,68.7l0.4-0.1l0.1-0.9l-1.3,0.2l-1.5,0.9l0,1.2L112.4,68.7z"/>
<path class="st11" d="M124.9,68.7l-1.2-0.3l0,0.9l1.2,0.4L124.9,68.7z"/>
<path class="st5" d="M82.7,81.8l-1.4-0.3v2h1.2l3.2,0.1l2.9,0.2h2.1l2.9-0.4l0-1.4l-5.8,0.2L82.7,81.8z"/>
<path class="st10" d="M82.7,81.8l-1.4-0.3v0.9l0.8,0.2l2.9,0.3l4.3,0.1H92l1.6-0.4l0-0.6l-5.8,0.2L82.7,81.8z"/>
<path class="st4" d="M78.5,80.4l2.8,1.4l1.3,0.4l2.7,0.2l4.4,0.1l3.2-0.2l1.4-0.8l1.7-3.3l-0.1-4.8l-2.6-2.7l-3.1-3.3L87.5,64
	l-0.6-1.4L85.5,65l-2.3,2.7l-3.6,2.6l-1.9,3.8l0.1,3.3L78.5,80.4z"/>
<path class="st19" d="M93,75.3L92.1,75l-1.4-1.1l0.4-0.7l0.4-1l1.6,0.9l0.4,0.2L93,75.3z M94.3,76.6l0.9,0.1l-0.4,0.8L94.3,79
	l-0.3-0.1l-1.4-0.7l0.4-1.2l0.3-1L94.3,76.6z M93.7,80.8l-1.2-0.3l-0.6-0.2l0.3-1l0.1-0.5l1.7,0.6L93.7,80.8z M91.6,80.2l-1.8-0.7
	l-1.1-0.7l0-0.3l0.6-1.7l2.4,1.8l0.4,0.1l0,0L91.6,80.2z M91,82l-0.3-0.1L88.5,81l0.2-1.7l0.7,0.5l2.1,0.9l0,0L91,82z M87,77.8
	l-1.3-1.1l1.1-2.2l1.2,1.3l1.1,0.8l-0.5,0.9l-0.2,1.2L87,77.8z M88.1,80.9l-2.3-1.4l-0.9-0.8l0.5-1.6l0,0l2.9,1.9L88.1,80.9z
	 M88,82.4l-0.8-0.3l-2.6-0.9L84.2,81l0-0.2l0.6-1.7l2.7,2l0.5,0.2L88,82.4z M83.9,80.8l-1.9-1l-0.7-0.5l0.1-0.6l0.8-2.3l1.8,2.1
	l0.3,0.2L83.9,80.8z M80.9,79l-0.4-0.3l-1.1-1.1l-0.6-1.2l0.5-1.4l1.1-1.7l0.9,1.9l0.6,0.7L81.7,76L80.9,79z M81.2,72l0.5-0.4l0.9,2
	l0.1,0.2l-0.7,1.7l-0.8-1.2L80.5,73L81.2,72z M83.4,70.3L83.4,70.3l0.9,1.3l-1.1,1l-0.3,0.7l-0.6-1l-0.4-0.9L83.4,70.3z M85.1,68.9
	l0.1,0.2l0.7,0.8l-1.3,1.3L84,70.5L83.7,70L85.1,68.9z M85.5,68.6l1.1-0.8l0.8,1.1l-1.2,0.8l-0.5-0.5L85.5,68.6L85.5,68.6z
	 M87.5,67.1l0.4-0.4l1.1,0.9l-0.2,0.3l-1.1,0.7L87,67.8l-0.2-0.2L87.5,67.1z M90.3,68.3l-1.4,1.5l-0.8-0.6l-0.3-0.3l0.9-0.7l0.3-0.5
	L90.3,68.3z M89.6,76.1l0.9-1.8l1.5,1.1l0.9,0.4l0,0.1l-0.5,2.1l-1.2-0.6L89.6,76.1L89.6,76.1z M87.4,73l0.6-0.9l0.7,0.7l1.6,1.3
	L89.3,76l-0.9-0.7L87,73.8L87.4,73z M86.4,70l0.7-0.6l0.4-0.3l0.2,0.3l0.9,0.7L88,70.9l-0.3,0.5l-0.7-0.7L86.4,70z M85.7,72.5
	l-0.9-1.1l0.1-0.1l1.3-1.1l1.4,1.5l-1,1.7L85.7,72.5z M85.1,76.8l-0.6,1.4l-0.1,0.2l-0.7-0.6l-1.4-1.7l0.7-1.9L85.1,76.8z
	 M84.8,75.9L83.4,74l-0.2-0.3l0,0l1.3-1.8l0,0l1.8,2l-0.1,0.3l-0.9,2.1L84.8,75.9z M91.2,72L91.2,72l-0.4,1l-0.3,0.7l-1-0.7
	l-1.3-1.3l0.9-1.4L91.2,72z M94.1,73.1l0.4-1.2l-0.4-0.4l-0.4,1.4l-0.5-0.3l-1.5-0.9l0.8-1.9l-0.3-0.3l-0.9,2L90,70.6L89.2,70l0.9-1
	l0.6-0.5l0.6,0.3l0.1-0.1l-0.7-0.8l0,0l-1.4-0.5l0.4-0.7l-0.1-0.2l-0.4,0.8l0,0l-0.9-0.8l0.3-0.3l0.3-0.7l-0.2-0.3l-0.3,0.8L88,66.3
	l-0.5-0.4l-1.1-1.2l-0.2-0.7l-0.4,0.6l0,0.1l1.4,1.5l0.5,0.4l-1,0.8l-0.7-0.9l-0.7-1.2L85,65.6l0.8,1.3l0.5,0.7L86,67.8l-0.8,0.6
	l-0.7-1.1l-0.3-0.9L84,66.8l1,1.8l-1.5,1.1l-0.9-1.5l-0.4,0.3l1,1.5l-0.3,0.3l-1.1,0.9l-0.8-1.7l-0.2,0.2l0.8,1.7l-0.8,0.6l-0.4,0.6
	l-0.9-1.8l-0.2,0.5l0.9,1.7l-1.3,2.2L78.5,76L78,75l-0.2-0.7l0,0.9l0.6,1.2l-0.5,1.5l0.2,0.8l0.2-0.8l0.3-1l0.9,1.8l1.2,0.8
	l-0.3,1.9l0.3,0.2l0.4-1.8l1.6,1l1,0.5l-0.1,0.6v0.3l0.4,0l0.1-0.8l1.7,0.8l0.3,0.1l2.4,0.1l-0.1-1l1.7,0.7l0.7,0.3l1.1-0.1
	l-0.6-0.2v-0.4l0.3-0.9l1.9,0.4l-0.1,0.7l0.4-0.2l0.1-0.4l0.4,0.1l0.2-0.4L94,80.9l0.4-1.4l0.8,0.1l0.2-0.4L94.5,79l0.1-0.6l1-1.7
	l0.3,0l0-0.4l-0.1,0l0.1-0.1l0-1.1l-0.6,1.1L94.5,76l-1.1-0.5l0.4-1.3l0.2-0.6l0.7,0.4l1.3,0.3l0-0.5l-0.8-0.1L94.1,73.1z"/>
<path class="st12" d="M96,76.3L94,78.1l-4.2,0.6l-4.6-0.1l-4.8-1.1l-2.3-0.9l-0.3-0.4l0,1.4l0.7,3l2.8,1.4l1.3,0.4l2.7,0.2l4.4,0.1
	l3.2-0.2l1.4-0.8l1.7-3.3L96,76.3z"/>
<path class="st18" d="M84.2,80.9l0.6-1.7l2.7,2l0.5,0.2L88,82.4l-0.8-0.3l-2.6-0.9L84.2,81L84.2,80.9z M88.6,79.3l0.7,0.5l2.1,0.9
	l0,0L91,82l-0.3-0.1L88.5,81L88.6,79.3z M92.2,79.2l0.1-0.5l1.7,0.6l-0.4,1.4l-1.2-0.3l-0.6-0.2L92.2,79.2z M78.6,76.9l0.9,1.8
	l1.2,0.8l-0.3,1.9l0.2,0.1l0.2,0.1l0.4-1.8l1.6,1l1,0.5l-0.1,0.6v0.3l0.3,0l0.1,0l0.1-0.8l1.7,0.8l0.3,0.1l0.6,0l1.9,0l-0.1-1
	l1.7,0.7l0.7,0.3l0.3,0l0.8-0.1l-0.6-0.2v-0.4l0.3-0.9l1.9,0.4l-0.1,0.7l0.4-0.2l0.1-0.4l0.4,0.1l0.1-0.2l0.1-0.2L94,80.9l0.4-1.4
	l0.8,0.1l0-0.1l0.1-0.3L94.5,79l0.1-0.6l1-1.7l0.3,0l0-0.1l0-0.4l-0.1,0l0.1-0.1v0l-1.2,1.1l-0.1,0.1L94.3,79l-0.3-0.1l-1.3-0.6
	l-1.1,0.2l0.2,0.1l0.4,0.1l0,0l-0.5,1.5l-1.8-0.7l-1.1-0.7l0-0.2l-0.3,0l0,0l0,0l-0.8,0l0.8,0.5l-0.2,1.8l-2.3-1.4l-0.9-0.8l0.1-0.3
	l-0.5-0.1l0,0.1l-0.1-0.1l-0.6-0.1l0.3,0.3l0.3,0.2l-0.5,2.1l-1.9-1l-0.7-0.5l0.1-0.6l0.3-1l-0.6-0.1L80.9,79l-0.4-0.3l-1.1-1.1
	L79,76.9l-0.7-0.3l-0.4,1.3l0.2,0.8l0.2-0.8L78.6,76.9z"/>
<path class="st19" d="M85.9,64.3l1.5-0.1l0.2-1.6l-0.6-0.4l-1,0.2L85.9,64.3z"/>
<path class="st4" d="M87,60.7l-0.8,0.7l0.8,0.7l0.7-0.3L87.4,61L87,60.7z"/>
<path class="st4" d="M86.7,55.3l0.3,6.3l0.1-6.3H86.7z"/>
<path class="st4" d="M85.8,56.5l2.2-0.1l-0.1,0.6L85.8,57V56.5z"/>
<path class="st4" d="M86,58.7l1.7,0.6l0.1,0.5L86,59.1V58.7z"/>
<path class="st20" d="M8.5,48.9l-4.6-9l2-1.9l2.7,0l3.5,2.9L12,45.7L8.5,48.9z M30.8,62.8l-15.2-14l2.2-5.1l-4.3-8l-6.7-2.2L0,39.2
	l5.8,11.2l10,20.4l2.8-2.1l-7.5-16l17.3,12.7L30.8,62.8z"/>
<path class="st20" d="M14.9,30.6L21,43.3l8.2,12.1l5.5,0.2l2.5-4l1.2-3.6l4.3,6.3l2.5-1.6L31,23.8l-3.2,1.6l7.8,18.2l-1.9,5.4
	l-3.1,1.4l-3.9-5.3l-9.3-16.3L14.9,30.6z"/>
<path class="st20" d="M42.5,15.9l2,2.6l-2.3,4.9l1.7,5.6l4.6,4.8l6.2,5.1l2.4,7.5l-0.8,6l-3.1,2.4l-1.5-1.8l1.6-4.3l-3.2-6l-5.9-5.6
	l-4.5-7.9l-1.1-8.8L42.5,15.9z"/>
<path class="st20" d="M53.3,10.8l1.8,2.7l-2.9,4.4l0.3,5.1l3.4,3.3l6.3,4.2l3.6,6.1l1.7,5.5l-0.7,4l-3.9,4.1l-1.8-1.4l2.1-5.4
	l-1.6-6.9l-3.8-4.5L52.9,28l-3.8-5.7l-0.3-5.9l1.8-3.4L53.3,10.8z"/>
<path class="st20" d="M57.1,11l2.1,3.9l1.9-0.7l10,19.3L74,39l-2.2,2.5l1.8,2.1l5.9-4.9l-1.2-2.3l-2,0.8L64.8,12.3l2.1-3.8L64.8,6
	L57.1,11z"/>
<path class="st20" d="M81.5,22.9l-5-16.8l9.9,15.1L81.5,22.9z M76.7,0.9L73,2.8l3.2,15.4L82.1,36l3.2-1.5l-2.1-8.3l5.5-2.4l6.5,6.5
	l2-2.3L76.7,0.9z"/>
<path class="st21" d="M1.7,90.3l11.1,18.1l16.5-8.4l17.9-10.1l-4.4-9l-7.3-11.4L1.3,88.3L1.7,90.3z"/>
<path class="st22" d="M34.2,79.4l5.8-3l-4.4-7L1.3,88.3l0.4,2.1L5,95.7l9.1-5L34.2,79.4z"/>
<path class="st5" d="M12.9,108.4l16.5-8.4l17.9-10.1L44,83.4l-7.4,4.2l-14.8,7.8l-12.7,7L12.9,108.4z"/>
</svg>
