<?xml version="1.0" encoding="utf-8"?>
<!-- Generator: Adobe Illustrator 27.2.0, SVG Export Plug-In . SVG Version: 6.00 Build 0)  -->
<svg version="1.1" id="Layer_1" xmlns="http://www.w3.org/2000/svg" xmlns:xlink="http://www.w3.org/1999/xlink" x="0px" y="0px"
	 viewBox="0 0 118 157" style="enable-background:new 0 0 118 157;" xml:space="preserve">
<style type="text/css">
	.st0{fill:#1D92CC;}
	.st1{fill:#FFFFFF;}
	.st2{fill:#FF4127;}
	.st3{fill:#006DC1;}
	.st4{fill:#075A62;}
	.st5{fill:#147D7F;}
	.st6{fill:#62CCBA;}
	.st7{fill:#38AD97;}
	.st8{fill:#8FEADD;}
	.st9{fill:#FFE36C;}
	.st10{fill:#FFBF4D;}
</style>
<path class="st0" d="M60.2,25.8l-6.8,20.6l-2.7,12.3l4.2,4.2L60,63l6.1-4.8l-0.7,8.2l2.3,1.7l2.7-0.9L70,62.7l4.9-23.1l3-12.4
	l-3.4-0.6l-4.8,16.9l-3.8,9.2l-6.1,4.6l-3.5-2.7L58,43.7l5.7-18L60.2,25.8z"/>
<path class="st0" d="M98.6,33.4l-2.9,3.5l-6.7-2l-3.6,4.7l1.3,6.6l4.4,9.4l-2.2,10.9l-4.7,5l-6-0.9l-4.1-6.1l2.2-2.1l4.9,2.1
	l3.1-1.9l1.5-9.9L82,45.4l-0.7-8.5l4.2-7.2l4.7-1.4l4.4,1.2L98.6,33.4z"/>
<path class="st0" d="M101.3,60.1l1.8-3.9l6-13.8l-2.3,19L101.3,60.1z M112.6,34.7l-5.1-0.1L99.4,52L92,71l-1,2.6l4.8,1.3l4.8-10.5
	l6,1.4l2.4,12.5l5-1.3L112.6,34.7z"/>
<path class="st1" d="M63.7,79.7l-2.8,28.5l24.6,4.5l27.4,3.8l2.6-13.3l1.5-18.2L65,77.1L63.7,79.7z"/>
<path class="st2" d="M117.1,84.9L65,77.1l-1.1,2.2l13.4,1.8l20.4,3.3l14.2,2l5,0.4L117.1,84.9z"/>
<path class="st2" d="M116.8,88.6l-8.8-0.9l-15.1-2.1L77.2,83l-13.7-1.6l-0.3,2.8l5.1,0.6l11.8,1.4l16.1,2.6l11.9,1.5l8.3,1.1
	L116.8,88.6z"/>
<path class="st2" d="M116.4,93.3L101,91.2l-20-2.8l-14.2-2.1L63.1,86l-0.2,2.5L74,89.8l18.1,3l17,2.5l7.1,1.1L116.4,93.3z"/>
<path class="st2" d="M116,98.5l-13.9-1.8l-20.7-3.8l-12.6-1.5l-6.2-0.7l-0.2,2.4l11.3,1.5L96,98.6l15.9,2.4l3.8,0.4L116,98.5z"/>
<path class="st2" d="M115.5,103.4l-10.7-1.4l-14.5-2.1l-12.1-1.8l-11.3-2.1l-4.7-0.6l-0.2,2.4l8.1,1.6l19.6,2.8l15.8,2.8l9.5,1.3
	L115.5,103.4z"/>
<path class="st2" d="M114.4,108.9l-25.3-4.1l-23.1-3.7l-4.5-0.7l-0.3,3.2l18.1,2.6l18.6,3l11.7,2.1l4.1,0.6L114.4,108.9z"/>
<path class="st2" d="M109.5,113.3c-0.2,0-12.7-1.8-12.7-1.8l-21.5-3.1l-14.2-2.5l-0.2,2.3l24.6,4.5l27.4,3.8l0.5-2.7
	C111.7,113.5,109.6,113.3,109.5,113.3z"/>
<path class="st3" d="M87.1,80.4L65,77.1l-1.3,2.5l-1.3,13.5l11.3,1.5l11.1,1.9L87.1,80.4z"/>
<path class="st1" d="M68.2,79L67.4,79l-0.2-0.6l-0.3,0.5l-0.7-0.1l0.5,0.5L66.3,80l0.7-0.3l0.7,0.4l-0.2-0.7L68.2,79z"/>
<path class="st1" d="M71.6,79.5l-0.9-0.1l-0.2-0.6l-0.3,0.5l-0.7-0.1l0.5,0.5l-0.3,0.6l0.7-0.3l0.7,0.4l-0.2-0.7L71.6,79.5z"/>
<path class="st1" d="M74.9,80L74,79.9l-0.2-0.6l-0.3,0.5l-0.7-0.1l0.5,0.5L73,81l0.7-0.3l0.7,0.4l-0.2-0.7L74.9,80z"/>
<path class="st1" d="M78.2,80.5l-0.9-0.1l-0.2-0.6l-0.3,0.5l-0.7-0.1l0.5,0.5l-0.3,0.6l0.7-0.3l0.7,0.4l-0.2-0.7L78.2,80.5z"/>
<path class="st1" d="M81.5,81l-0.9-0.1l-0.2-0.6l-0.3,0.5l-0.7-0.1l0.5,0.5l-0.3,0.6l0.7-0.3l0.7,0.4l-0.2-0.7L81.5,81z"/>
<path class="st1" d="M84.9,81.4L84,81.4l-0.2-0.6l-0.3,0.5l-0.7-0.1l0.5,0.5L83,82.4l0.7-0.3l0.7,0.4l-0.2-0.7L84.9,81.4z"/>
<path class="st1" d="M69.6,81l-0.9-0.1l-0.1-0.6l-0.3,0.5l-0.7-0.1l0.5,0.5l-0.4,0.6l0.7-0.3l0.7,0.4l-0.2-0.7L69.6,81z"/>
<path class="st1" d="M72.9,81.5l-0.9-0.1l-0.1-0.6l-0.3,0.5l-0.7-0.1l0.5,0.5L71,82.5l0.7-0.3l0.7,0.4l-0.2-0.7L72.9,81.5z"/>
<path class="st1" d="M76.2,82l-0.9-0.1l-0.1-0.6l-0.3,0.5l-0.7-0.1l0.5,0.5L74.3,83l0.7-0.3l0.7,0.4l-0.2-0.7L76.2,82z"/>
<path class="st1" d="M79.6,82.5l-0.9-0.1l-0.1-0.6l-0.3,0.5l-0.7-0.1l0.5,0.5l-0.4,0.6l0.7-0.3l0.7,0.4l-0.2-0.7L79.6,82.5z"/>
<path class="st1" d="M82.9,83.1L82,83l-0.1-0.6l-0.3,0.5l-0.7-0.1l0.5,0.5L81,84l0.7-0.3l0.7,0.4l-0.2-0.7L82.9,83.1z"/>
<path class="st1" d="M67.8,82.3L67,82.3l-0.1-0.6l-0.3,0.5l-0.7-0.1l0.5,0.5l-0.4,0.6l0.7-0.3l0.7,0.4l-0.2-0.7L67.8,82.3z"/>
<path class="st1" d="M71.1,82.9l-0.9-0.1l-0.1-0.6l-0.3,0.5l-0.7-0.1l0.5,0.5l-0.4,0.6l0.7-0.3l0.7,0.4l-0.2-0.7L71.1,82.9z"/>
<path class="st1" d="M74.4,83.4l-0.9-0.1l-0.1-0.6l-0.3,0.5l-0.7-0.1l0.5,0.5l-0.4,0.6l0.7-0.3l0.7,0.4l-0.2-0.7L74.4,83.4z"/>
<path class="st1" d="M77.8,83.9l-0.9-0.1l-0.1-0.6l-0.3,0.5l-0.7-0.1l0.5,0.5l-0.4,0.6l0.7-0.3l0.7,0.4L77,84.3L77.8,83.9z"/>
<path class="st1" d="M81.1,84.4l-0.9-0.1l-0.1-0.6l-0.3,0.5L79,84.2l0.5,0.5l-0.4,0.6l0.7-0.3l0.7,0.4l-0.2-0.7L81.1,84.4z"/>
<path class="st1" d="M84.4,85l-0.9-0.1l-0.1-0.6l-0.3,0.5l-0.7-0.1l0.5,0.5l-0.4,0.6l0.7-0.2l0.7,0.4l-0.2-0.7L84.4,85z"/>
<path class="st1" d="M67.2,85.4l-0.9-0.1l-0.1-0.6l-0.3,0.5l-0.7-0.1l0.5,0.5l-0.4,0.6l0.7-0.2l0.7,0.4l-0.2-0.7L67.2,85.4z"/>
<path class="st1" d="M70.5,85.9l-0.9-0.1l-0.1-0.6l-0.3,0.5l-0.7-0.1l0.5,0.5l-0.4,0.6l0.7-0.2l0.7,0.4l-0.2-0.7L70.5,85.9z"/>
<path class="st1" d="M73.8,86.5l-0.9-0.1l-0.1-0.6l-0.3,0.5l-0.7-0.1l0.5,0.5l-0.4,0.6l0.7-0.2l0.7,0.4L73,86.9L73.8,86.5z"/>
<path class="st1" d="M77.1,87.1L76.2,87l-0.1-0.6l-0.3,0.5l-0.7-0.1l0.5,0.5L75.2,88l0.7-0.2l0.7,0.4l-0.2-0.7L77.1,87.1z"/>
<path class="st1" d="M80.4,87.6l-0.9-0.1L79.4,87l-0.3,0.5l-0.7-0.1l0.5,0.5l-0.4,0.6l0.7-0.2l0.7,0.4L79.7,88L80.4,87.6z"/>
<path class="st1" d="M83.7,88.2l-0.9-0.1l-0.1-0.6l-0.3,0.5L81.7,88l0.5,0.5l-0.4,0.6l0.7-0.2l0.7,0.4L83,88.6L83.7,88.2z"/>
<path class="st1" d="M69.2,84.2l-0.9-0.1l-0.1-0.6l-0.3,0.5L67.2,84l0.5,0.5l-0.4,0.6l0.7-0.3l0.7,0.4l-0.2-0.7L69.2,84.2z"/>
<path class="st1" d="M72.5,84.7l-0.9-0.1l-0.1-0.6l-0.3,0.5l-0.7-0.1L71,85l-0.4,0.6l0.7-0.3l0.7,0.4l-0.2-0.7L72.5,84.7z"/>
<path class="st1" d="M75.9,85.2L75,85.2l-0.1-0.6l-0.3,0.5l-0.7-0.1l0.5,0.5l-0.4,0.6l0.7-0.3l0.7,0.4l-0.2-0.7L75.9,85.2z"/>
<path class="st1" d="M79.2,85.8l-0.9-0.1l-0.1-0.6l-0.3,0.5l-0.7-0.1l0.5,0.5l-0.4,0.6l0.7-0.3l0.7,0.4l-0.2-0.7L79.2,85.8z"/>
<path class="st1" d="M82.5,86.3l-0.9-0.1l-0.1-0.6l-0.3,0.5l-0.7-0.1l0.5,0.5l-0.4,0.6l0.7-0.3l0.7,0.4l-0.2-0.7L82.5,86.3z"/>
<path class="st1" d="M66.8,88.5l-0.9-0.1l-0.1-0.6l-0.3,0.5l-0.7-0.1l0.5,0.5l-0.4,0.6l0.7-0.2l0.7,0.4L66,88.8L66.8,88.5z"/>
<path class="st1" d="M70.1,89l-0.9-0.1l-0.1-0.6l-0.3,0.5L68,88.8l0.5,0.5l-0.4,0.6l0.7-0.2l0.7,0.4l-0.2-0.7L70.1,89z"/>
<path class="st1" d="M73.4,89.6l-0.9-0.1l-0.1-0.6l-0.3,0.5l-0.7-0.1l0.5,0.5l-0.4,0.6l0.7-0.2l0.7,0.4L72.6,90L73.4,89.6z"/>
<path class="st1" d="M76.7,90.2l-0.9-0.1l-0.1-0.6L75.4,90l-0.7-0.1l0.5,0.5l-0.4,0.6l0.7-0.2l0.7,0.4l-0.2-0.7L76.7,90.2z"/>
<path class="st1" d="M80,90.7l-0.9-0.1L79,90.1l-0.3,0.5L78,90.5l0.5,0.5l-0.4,0.6l0.7-0.2l0.7,0.4l-0.2-0.7L80,90.7z"/>
<path class="st1" d="M83.3,91.3l-0.9-0.1l-0.1-0.6L82,91.2l-0.7-0.1l0.5,0.5l-0.4,0.6l0.7-0.2l0.7,0.4l-0.2-0.7L83.3,91.3z"/>
<path class="st1" d="M68.8,87.3L68,87.2l-0.1-0.6l-0.3,0.5l-0.7-0.1l0.5,0.5l-0.4,0.6l0.7-0.3l0.7,0.4l-0.2-0.7L68.8,87.3z"/>
<path class="st1" d="M72.1,87.8l-0.9-0.1l-0.1-0.6l-0.3,0.5l-0.7-0.1l0.5,0.5l-0.4,0.6l0.7-0.2l0.7,0.4l-0.2-0.7L72.1,87.8z"/>
<path class="st1" d="M75.5,88.3l-0.9-0.1l-0.1-0.6l-0.3,0.5l-0.7-0.1l0.5,0.5l-0.4,0.6l0.7-0.3l0.7,0.4l-0.2-0.7L75.5,88.3z"/>
<path class="st1" d="M78.8,88.9l-0.9-0.1l-0.1-0.6l-0.3,0.5l-0.7-0.1l0.5,0.5l-0.4,0.6l0.7-0.3l0.7,0.4L78,89.2L78.8,88.9z"/>
<path class="st1" d="M82.1,89.4l-0.9-0.1l-0.1-0.6l-0.3,0.5l-0.7-0.1l0.5,0.5l-0.4,0.6l0.7-0.3l0.7,0.4l-0.2-0.7L82.1,89.4z"/>
<path class="st1" d="M66.2,91.4l-0.9-0.1l-0.1-0.6l-0.3,0.5l-0.7-0.1l0.5,0.5l-0.4,0.6l0.7-0.2l0.7,0.4l-0.2-0.7L66.2,91.4z"/>
<path class="st1" d="M69.5,92l-0.9-0.1l-0.1-0.6l-0.3,0.5l-0.7-0.1l0.5,0.5l-0.4,0.6l0.7-0.2l0.7,0.4l-0.2-0.7L69.5,92z"/>
<path class="st1" d="M72.8,92.5L72,92.4l-0.1-0.6l-0.3,0.5l-0.7-0.1l0.5,0.5l-0.4,0.6l0.7-0.2l0.7,0.4l-0.2-0.7L72.8,92.5z"/>
<path class="st1" d="M76.1,93.1L75.3,93l-0.1-0.6L74.8,93l-0.7-0.1l0.5,0.5L74.2,94l0.7-0.2l0.7,0.4l-0.2-0.7L76.1,93.1z"/>
<path class="st1" d="M79.4,93.7l-0.9-0.1L78.4,93l-0.3,0.5l-0.7-0.1l0.5,0.5l-0.4,0.6l0.7-0.2l0.7,0.4L78.7,94L79.4,93.7z"/>
<path class="st1" d="M82.7,94.2l-0.9-0.1l-0.1-0.6l-0.3,0.5L80.7,94l0.5,0.5l-0.4,0.6l0.7-0.2l0.7,0.4L82,94.6L82.7,94.2z"/>
<path class="st1" d="M68.2,90.2l-0.9-0.1l-0.1-0.6l-0.3,0.5l-0.7-0.1l0.5,0.5l-0.4,0.6l0.7-0.3l0.7,0.4l-0.2-0.7L68.2,90.2z"/>
<path class="st1" d="M71.6,90.8l-0.9-0.1l-0.1-0.6l-0.3,0.5l-0.7-0.1l0.5,0.5l-0.4,0.6l0.7-0.2l0.7,0.4l-0.2-0.7L71.6,90.8z"/>
<path class="st1" d="M74.9,91.3L74,91.2l-0.1-0.6l-0.3,0.5l-0.7-0.1l0.5,0.5L73,92.2l0.7-0.3l0.7,0.4l-0.2-0.7L74.9,91.3z"/>
<path class="st1" d="M78.2,91.8l-0.9-0.1l-0.1-0.6l-0.3,0.5l-0.7-0.1l0.5,0.5l-0.4,0.6l0.7-0.3l0.7,0.4l-0.2-0.7L78.2,91.8z"/>
<path class="st1" d="M81.5,92.3l-0.9-0.1l-0.1-0.6l-0.3,0.5l-0.7-0.1l0.5,0.5l-0.4,0.6l0.7-0.3l0.7,0.4l-0.2-0.7L81.5,92.3z"/>
<path class="st4" d="M35.8,42.7l7.4-3.4l1.7-1.2l0-0.8l-3.2,1l-6,2.1L35.8,42.7z"/>
<path class="st4" d="M33.6,38l4.3-4.1l3.9-2.4l0.3,0.6L39,34.6l-4.3,4.2L33.6,38z"/>
<path class="st4" d="M29.7,37l2.7-6.9l1.8-3l1.1,0.2l-1.4,5.5L32,37.6L29.7,37z"/>
<path class="st4" d="M25.4,37.7c0-0.2-2-5.4-2-5.4l-0.9-5l0.8-0.3l1.2,3.1l1.6,4.8l0.6,2.5L25.4,37.7z"/>
<path class="st4" d="M22.8,39l-3-3.3l-3.6-3.9L15,31l-0.5,0.6l2.7,4.1l3.4,3.9l1.1,0.7L22.8,39z"/>
<path class="st4" d="M19.8,42.5l-5.9-2.2L9.5,39l-0.2,0.5l5.3,3l4.5,1.9L19.8,42.5z"/>
<path class="st5" d="M23.7,54l-0.3,2.8l2.5,3.4l2.7,0.8l2.2-0.5l0.7-4.5L23.7,54z"/>
<path class="st4" d="M23.6,55l2.6,1.7l3.4,2l1.4,0l0.4-2.7l-7.8-2L23.6,55z"/>
<path class="st6" d="M21.4,47.9l0.5,3.4l1.2,2.6l2.1,1.5l5.9,1.6l1.8-1.7l0.8-4.1l0.7-2.7l0.3-2.7l-0.3-1.9l-5.9-1.6l-3.3,1.6
	L21.4,47.9z"/>
<path class="st7" d="M26.6,55.8l-0.2-0.4l-1.3-3L24,49l-0.2-3.6l-2.4,2.5l0.5,3.4l1.2,2.6l2.1,1.5L26.6,55.8z"/>
<path class="st5" d="M32.1,55.5l-1.3,0.3l-2.6-0.5l-3-0.8l-2.5-1.4l0.4,0.8l2.1,1.5l5.9,1.6l1.8-1.7l0,0L32.1,55.5z"/>
<path class="st5" d="M26.1,47.5l1.1-0.9l1.4,0l0.9,1l-2,0l-1.2,0.2L26.1,47.5z"/>
<path class="st5" d="M31.4,47.3l1-0.7l1.7,0.4l-0.4,1l-1.5-0.4L31.4,47.3z"/>
<path class="st5" d="M29.5,50.4l1-0.2l0.9,0.4l-0.1,0.3l-1.9-0.1L29.5,50.4z"/>
<path class="st5" d="M28.7,53l1.5-0.4l0.7-0.1l1,0.4l-0.1,0.4l-1.6-0.2L28.7,53z"/>
<path class="st5" d="M28.9,53.3l1.2,0.5l1.2-0.2l0.4-0.1l-0.1,0.2L30.7,54l-0.9,0.1L28.9,53.3z"/>
<path class="st7" d="M31.1,57l1.8-1.7l0.8-4.1l0.7-2.7l0.3-2.7l-0.3-1.9L34,43.7l0.1,1.8l-0.3,2.7l-1,4.1l-0.5,2.3L30.9,57L31.1,57z
	"/>
<path class="st7" d="M29.7,43.1l-1.1,1.6l-2.2,1.2l-2.8,1.2l-1.5,0.8l-1.1,1.8l-1.4-1.5l-1.1-2.6l5.2-5.5l5.4-0.9l6.7,2l-0.2,2.8
	l-0.6,2l-2.9-1l-1.9-1.7L29.7,43.1z"/>
<path class="st5" d="M35.1,46.1l0.2-0.6l-0.7-0.5l-2-0.7l-1.2-1.2L30,42.5L29,42.8L27.4,44l-2,1.2L23,46.5l-1.5,0.9l-0.8,1.8
	l0.4,0.4l1.1-1.8l1.5-0.8l2.8-1.2l2.2-1.2l1.1-1.6l0.7,0.3l1.9,1.7L35.1,46.1z"/>
<path class="st4" d="M18.8,46.5l3.1-3.5l2.4-1.9l4.5-1.1l3.4,0.6l3.7,1.9l0.9-2L34.3,38l-4.6-1.3l-4.3,0.3l-3.1,1.7l-2.9,3.5
	l-1.4,2.4L18.8,46.5z"/>
<path class="st7" d="M29.7,36.7l-4.3,0.3l-3.1,1.7l-2.9,3.5l-1.4,2.4l0.1,0.2l2.3-3.1l2.4-2.6l3.1-1.4l3-0.2l2.5,0.5l2.8,1.2
	l1.6,1.1l0.7,0.7l0.2-0.5L34.3,38L29.7,36.7z"/>
<path class="st7" d="M33.1,38.8l-0.5,1.6l0.3,0.1l0.6-1.4L33.1,38.8z"/>
<path class="st7" d="M33.8,39.1l-0.5,1.6l0.5,0.4l0.6-1.5L33.8,39.1z"/>
<path class="st7" d="M34.8,39.8l-0.5,1.3l0.3,0.2l0.6-1.4L34.8,39.8z"/>
<path class="st7" d="M31.3,38.2L31,39.9l0.5,0.1l0.4-1.7L31.3,38.2z"/>
<path class="st7" d="M32.2,38.5l-0.4,1.6l0.3,0l0.5-1.5L32.2,38.5z"/>
<path class="st7" d="M30.8,38l-0.2,1.7L30,39.5l0.2-1.6L30.8,38z"/>
<path class="st7" d="M29.4,37.8l-0.2,1.9l-0.6,0l-0.1-2L29.4,37.8z"/>
<path class="st7" d="M27.9,37.8l0.1,1.9l-0.6,0.2l-0.3-2.1L27.9,37.8z"/>
<path class="st7" d="M26.4,37.9l0.4,2.2l-0.6,0.2l-0.5-2.2L26.4,37.9z"/>
<path class="st7" d="M24.9,38.4l0.5,1.9l-0.5,0.1l-0.5-1.8L24.9,38.4z"/>
<path class="st7" d="M24,38.7l0.5,1.8L24,40.7l-0.6-1.8L24,38.7z"/>
<path class="st7" d="M22.5,39.9l1,1.5l-0.5,0.3L22,40.3L22.5,39.9z"/>
<path class="st7" d="M21,41.3l1,1.3l-0.5,0.3l-0.8-1.1L21,41.3z"/>
<path class="st4" d="M26.4,55.4l-0.3-0.6l-0.9-0.2l-2.5-1.4l0.4,0.8l2.1,1.5l1.4,0.4L26.4,55.4z"/>
<path class="st4" d="M32.1,55.5l-0.3,0.1L30.9,57l0.2,0.1l1.8-1.7l0,0L32.1,55.5z"/>
<path class="st7" d="M41.9,71.5l2.6,3.4l3.3,3.1L43.6,85L42,79.9l-0.8-6.8L41.9,71.5z"/>
<path class="st8" d="M43.3,81.8l1.8-4.4l1.4-3.2l0.4-0.5l0.4-0.5l2.2,0.1l4.3,1.5l5,2.1L58,78.6l0.4,0.7l-3.2,8.3l-4.1,6.9l-0.7,0.3
	l-2.2-1.1l-4.9-2.5L43.3,81.8z"/>
<path class="st7" d="M58.5,79.3L58,78.6l0.8-1.7l-0.8-0.3l-0.6,1.6l0.3,0.6l-0.2,1L56,83.5l-2.7,6l-2.3,3.9l-1.3,0.4l-4.4-2.3
	l-2-1.1l0,0.9l4.9,2.5l2.2,1.1l0.7-0.3l4.1-6.9L58.5,79.3z"/>
<path class="st6" d="M53.7,86.8l1.9-0.7l1.1,0.7l0.9,1.4l-0.3,0.2l-1.5-0.6l-2-0.4L53.7,86.8z"/>
<path class="st6" d="M56.6,84.4l-1.7,0l-1.2,0.8l0,0.7l1.7,0.2l1.5,0.4l0.6,0.5l0.7-0.6l0.2-1L56.6,84.4z"/>
<path class="st6" d="M57,82.4l-2.1,0.2l-0.4,0.7l0.5,0.6l2.3,0l1.3,0.7l0.3-0.7l-1.5-1.3L57,82.4z"/>
<path class="st6" d="M57,80.3l-0.5,0.6l1.1,1.3l1.2,1.1l0.7-0.5l-1.1-2L57,80.3z"/>
<path class="st7" d="M6.4,153.8l0.4-4.7l5.1-0.3l5.8-0.7l10.8,1l14.9,0l6.4,1.2l0.3,3.3l0,2.5l-15.7-0.3l-14.9-0.2L6.4,153.8z"/>
<path class="st5" d="M34.4,155.8l15.7,0.3l0-2.5l-0.2-2.2l-4.7,0.7l-5.5,0L28.8,152l-12.6-0.9l-6.8-0.2l-2.7-1.4l-0.3,4.3l13.1,1.8
	L34.4,155.8z"/>
<path class="st4" d="M43.2,152.1l-0.1,3.8l5.4,0.1l0.1-4.5l-3.5,0.5L43.2,152.1z"/>
<path class="st6" d="M12.1,47.2l3.5,2.8l4.6,3.3l1.1,1.2l0.9,1.4l1.4,0.6l2.3,3l3.3,0.9l1.3-0.6l0.3-1.5l2.6-0.2l0.3-0.9l1.2-0.4
	l2.5,0.9l2.8,3.1l2.2,2.2l-0.1,2.5l0.7,5L42,73l0.8,1.6L45,86.5l1.8,13.3l0.4,3.9l1.8,12.1l1.2,3.1l-1.3,1.8l-0.6,0.8l0.3,11.1
	l0,7.1l0.2,7.9l-0.2,3.4l-1.8-0.3l-2.4-0.1l-2.2,0c0,0-3.5-0.6-3.8-0.6c-0.3,0-11.4,0.2-11.4,0.2l-2.8-0.6l-5.6-0.1l-3.6-0.5
	l-4.3,1.2l-1.4-0.4l1.2-1.7l2.3-2.1l1.9-4.9l1.1-9c0,0,0.2-3,0.2-3.4c0-0.4,0.4-5,0.4-5l-1.8-4.5l-0.2-4.9l0.3-1.7l0.9-2.2l-0.1-5.6
	L14,97.2l0-1.1l-1.5-1.7l-0.7-2.9l0.3-2l1.8-1.4L13.1,84L12.2,80l-1.4-1.2l-1.2-2.5l0.9-3l-0.7-1.6l-2.3-0.8l-2.5-2.6l-0.9-2.7
	l-0.8-2l-0.5-1.3l5.2-4.3l3.4-10.5L12.1,47.2z"/>
<path class="st5" d="M36.4,143.2l-0.1,3.4l-0.3,1.6l0.9,0.2l0.1-4.2L36.4,143.2z"/>
<path class="st5" d="M40.9,138.1l-0.2,3.7l-0.9,4.3l-0.3,2.5l0.6-0.1l0.5-3.1l0.7-2.9l0.1-3.3l0.1-1.9L40.9,138.1z"/>
<path class="st5" d="M39.1,141.5l-0.6,2l-0.1,2.6l-0.2,2.2l0.4,0l0.4-3.6l0.4-2l0.3-2.3L39.1,141.5z"/>
<path class="st5" d="M32.8,136.8l-0.7,3.5L32,144l-0.2,1.9l-0.1,0.5l0.6,0l0.2-4.2l1.4-6.7L32.8,136.8z"/>
<path class="st5" d="M23.5,149.7l0.4,0.1l0.9-3.5l1.2-3.8l-1.4,0.4l-0.5,2.4l-0.2,3.1L23.5,149.7L23.5,149.7z"/>
<path class="st5" d="M28.4,146.7l1-3.6l0.1-4.7l-1.2,0.9l-0.2,3.6l-0.6,3.4l-1,4c0.1,0,0.4,0,0.8,0L28.4,146.7z"/>
<path class="st5" d="M30.2,150.3l0.5-2l0.7-3.8l0.7-7.7l-0.7,0.5l-0.4,4.4l-0.3,3.7l-1,4.7l0,0.2C29.7,150.3,30,150.3,30.2,150.3z"
	/>
<path class="st5" d="M33.5,150.2c0.3,0,0.6,0,0.9,0l0.5-5.5l1.2-7.6l-0.4-2.3l-1.5,0.7l0,3.6l-0.5,5.6L33.5,150.2z"/>
<path class="st5" d="M48.4,120.6l-4.6,2l-4.3,3.9l-1.9,4.9l-0.8,3l0,3.8l-0.5,4.1l0.6,0.9l1.9-2.7l1.9-3l2.3-4.2l1.3-4.5l1.3-0.5
	l-0.6,4.3l0,6.8l-0.9,6.9l-0.1,4.5H44l0.8,0l0-3.8l1.1-5.8l0.1-4.5l-0.1-3.8l1.1-0.3l0.1,1l-0.3,6.4l-0.3,4.1l-0.7,6.7l0.5,0l0.5-5
	l0.6-3.8l0.2-5.9l0.1-2.7l0.8-0.3l0-0.4l-0.3-11.1l0.4-0.5L48.4,120.6z"/>
<path class="st9" d="M5,7.3l-1.1,3.6L4,14.2L5.5,17l2,0.6l1.4,0l2.1-2.1l0.8-4.8l-0.6-2l0.8-1L10.2,8l0.1,2.4l-0.8,1.1l-1-2.1
	l0.1-2.8l0.7-3.2L7.7,2l0,1.2L7.6,5.6L6.3,7.7L5.6,9l0.1-2.4L4.5,5.4L3.8,5.5l1,0.8L5,7.3z"/>
<path class="st9" d="M4,8.3L3.7,9.6l-0.1,1.2L3,9.8l0.4-1.7l0.5-0.9L4,8.3z"/>
<path class="st9" d="M7.9,1.7l1.3,0.9L8.8,1L7.4,0.5L7.9,1.7z"/>
<path class="st10" d="M7.8,12.1l-0.3-1.8l0-2.8L6.3,9.9l-1,1.1L4.9,9.7l-0.2,1.5l1.1,2.6l0.8,2l0.2,1.5l0.6,0.2l0.8,0
	c0.1-0.7,0.3-2.2,0.4-2.3c0.1-0.2,1.9-2.3,1.9-2.3l0.2-1.2L9,12.4L7.8,12.1z"/>
<path class="st7" d="M9.3,65.2l2.4-3.4l1.6-3.8l0.2-6.5L13.2,48l-1.1-0.9l-0.9,0.3L7.8,57.9l-5.2,4.3L3,63.6l0.8,2l0.9,2.7l1.1,1.1
	l2.3-1.5L9.3,65.2z"/>
<path class="st7" d="M16.5,53.1L16.3,51L16,50.8l0.1,0.7l0.4,4.7l-0.1,3.4l-1.1,4.5l-2.6,6.2L11,73.1l-0.7,0.4l-0.8,2.9l1.2,2.5
	l1.4,1.2l1.3-1.7l2-4.1l0.9-3.5l1.2-4.1l0.2-4.9l-0.2-4.1L16.5,53.1z"/>
<path class="st7" d="M13.1,59.9l-0.8,1.9l-1.2,2.1l-1.3,2l-0.9,2.3L8,69.4l1.1-0.6l1.5-2.3l1.4-2.8l1.2-2.3l0.5-2.8L13.1,59.9z"/>
<path class="st7" d="M14.1,51.1l0.3,2.8l0,2.3l0.1,0.6l0.4,0l0.1-3l-0.4-2.2l-0.4-1.3L14.1,51.1z"/>
<path class="st5" d="M16.3,61.8l-0.6,3l-1.3,3L13,71.9l-1.5,2.3l-0.8,0.6l0.2,0.8l2.1-3.1l1.7-4.1l0.9-2.4l0.9-1.9l0.4-4.1
	L16.3,61.8z"/>
<path class="st8" d="M7,70.6l1-3.5l0.9-3.2l0.9-2.1l-0.3-0.1l-0.8,1.2l-0.9,2.3l-0.8,2.4l-1,1.8L7,70.6z"/>
<path class="st8" d="M30.7,78.3l4.1-6.3l0.7-3.8l0.8-6.7l0.8-3.8l-2.2-0.8l-1.2,0.4l-0.3,0.9l0,0l0.1,1.4l-0.6,2.5L30.3,67
	l-7.3,11.9l-4.8,5.9l-3.8,3.1L14,88l0,0.1l-1.8,1.4l-0.3,2l0.7,2.9l1.5,1.7v0l0.7-0.2l3.3-2.2l5.4-3.5l2.2-3.1L30.7,78.3z"/>
<path class="st7" d="M18.3,63.1l0,3.5L17.9,70l-1.7,5.6L15,80.1l-0.6,4.7l0.7,0.5l0.4-3.8l0.8-4.1l1.3-4.1l1-4.3l0.2-4L18.5,62
	L18.3,63.1z"/>
<path class="st7" d="M20.1,57.1l1.3,2.6l1.5,3.8l1,3.6l1.9,3.4l0.7,0.5l0.7-0.8l-1.8-2l-1-1.8l-1.3-3.6l-1-2.5L21,57.7L20.1,57.1z"
	/>
<path class="st5" d="M24,59.7l0.5,0.6l0.5,0.6l2.1,0.9l2.1,0.5l1.4-1l1.1-1.4l1.3-1.4l-0.2,0.8l-1.2,1.4l-1,1.5l-1.2,0.7l-1.9-0.4
	l-1.9-0.9l-1.2-0.8L24,59.7z"/>
<path class="st5" d="M25.3,62.2l1.5,1.4l1.7,0.7l1.6,0.1l1.1-0.2l-0.6,0.6l-1.4,0.3l-1.8-0.5l-1-0.7l-1.1-1.1L25.3,62.2z"/>
<path class="st5" d="M22.6,57.5l0.6,1.2l-0.2,0.4l-1.2-2L22.6,57.5z"/>
<path class="st7" d="M21.8,72.5l-1.3,4.7l-0.1,3.3l0.5-0.5l0.3-3.3l1-3.1l0.1-2.4L21.8,72.5z"/>
<path class="st7" d="M36.4,57.4l-1,5l-1.2,7.5l-2.1,4.4l-5.7,9.1l-2.8,4.4l-2.9,3l-3.5,2.6l-3.6,2.4l0.3,0.4v0l0.7-0.2l3.3-2.2
	l5.4-3.5l2.2-3.1l5.1-8.8l4.1-6.3l0.7-3.8l0.8-6.7l0.8-3.8L36.4,57.4z"/>
<path class="st7" d="M20.8,89.4l0.9-2.3l0.5-3.1l0.4-2.4l1.3-3l1.2-2.8l0.6,0.3l-1.6,3.3l-0.9,2.8c0,0-0.1,2-0.1,2.2
	c0,0.2-0.7,2.9-0.7,2.9L20.8,89.4z"/>
<path class="st7" d="M23.3,86.2l1.2-4.6l1.8-3.7l2.4-3.9l1.7-3.8l1.3-4.6l0.4-1.7l0.3-0.5l-0.6,3.1l-1.1,3.8l-1.6,3.5l-1.6,3l-2,3.2
	l-0.9,2.5L23.3,86.2z"/>
<path class="st5" d="M14.6,88.8l2-0.6l1.7-1.2l0.9-1.4l-0.7,0.2L17,87.2L14.6,88.8z"/>
<path class="st7" d="M34.1,59.1L33.6,64l-0.7,3l-1,2.8l0.1,0.3l0.8-1.8l1.3-4.8l0.6-4.9L34.1,59.1z"/>
<path class="st7" d="M19.9,90.6l1.3-2.1l0.7-3.7l-0.3-0.6L20,85.7l-2.7,2.7l-3.2,1.5L12,90.6l-0.1,0.9l0.7,2.9l0.8,0.9l2.2-1.4
	L19.9,90.6z"/>
<path class="st5" d="M12.5,94.4l4.4-2.2l1.9-2.8l1.5-1.7l-0.7,0.2l-3,2.7l-2.6,1.9l-1.9,0.8L12.5,94.4z"/>
<path class="st7" d="M48.2,121.7l0.6-0.8l1.3-1.8l-1.2-3.1l-1.8-12.1l-0.4-3.9L45,86.5l-0.6-3.1L43,79.9l-1.6,0.7l1.1,2.9l1.4,3.4
	l-1.4,5.8l-1.6,2.8l-0.6,5.1l-1,4.8l-4.7,5.2l-5.6,6.1l-5.5,3.7l-3.8,2.1l-3.4,0.9l0.1,0.4c0,0-0.4,4.7-0.4,5c0,0.4-0.2,3.4-0.2,3.4
	l-1.1,9l-1.9,4.9l-2.3,2.1l-1.2,1.7l1.4,0.4l4.3-1.2l0.8,0.1l3.7-2.5l1.3-2.5l7.1-1.6l0.9-1.7l1.9-2.3l8.2-4.7l0.8-5.1l7.2-6.8
	L48.2,121.7z"/>
<path class="st8" d="M34.5,57.7l1.8,0.4l2.4,2.5l0,1.4l-3.6-2.4l-0.9-1.1L34.5,57.7z"/>
<path class="st7" d="M14.6,122.2l1.6-2l2.2-3.5l3.7-4l-0.1,0.7l-2.8,3l-1.7,2.1l-0.9,2.5l-1.8,1.5L14.6,122.2z"/>
<path class="st7" d="M16.6,122l2-2.1l1-1.8l1.2-0.1l-0.4,0.8l-1.1,1.1l-1.1,1.1l-1.5,1.4L16.6,122z"/>
<path class="st7" d="M14.2,119.3l1.6-4.2l5.9-5.4l6.2-7.4l4-7.3l2.4-15.2l0-6.1l-0.3,4.9l-1,7.1l-1.4,9.2l-3.6,5.5l-5.8,7.4
	l-2.8,2.7l-3.4,2.8l-2.2,4.3L14.2,119.3z"/>
<path class="st7" d="M13.9,111.4l2.5-1.3l3.8-4.1l4.6-5.2l3.6-5.1l1.2-4.9L28,94.1l-2.6,4.4l-3.3,4.2l-4.6,4.4l-4.5,3.1L13.9,111.4z
	"/>
<path class="st8" d="M30.6,79.4l-0.3,3.7l-1.6,5.8l-2.3,3l0-1.1l2.4-5.2l1.2-5.5L30.6,79.4z"/>
<path class="st7" d="M39.2,63.1l-0.7,10.2L38,86l-0.1,9.6l-2,6l-3.9,10l3.2-3.3l3-3.4l1.7-9.9l-0.2-12.8l0-10.2l0.1-10.2L39.2,63.1z
	"/>
<path class="st5" d="M34.4,110.5l-5.6,6.1l-5.5,3.7l-3.8,2.1l-1,0.3l-1.2,1.4l-0.5,1.9l1.4,1.1l0,1.5l-2,2.2l-0.2,1.6l4.2-2.1
	l1.1,0.6l0,3.2l-1.2,3.8l-1.7,3.9l-1.3,3l-1.3,1l-1.3,1.2l3.2-1l1.1-2.5l1.6-3.2l1.8-5.9l0.7-4.2l3-2.9l1.8-1.8l-2.4,10.7l-2.7,5
	l-2.3,2l0.1,0.5l3.7-2.3l1.4-3.8l2.2-6.4l1.7-6.7l0.9-6.5l2.5-2.9l2.2-3.4l0.5-2.4L34.4,110.5z"/>
<path class="st5" d="M25.7,140.9l3.8-3.3l2.4-3.7l3.5-3.5l1.8-2l0.2,0.8l-2.6,3.5l-2.6,2.1l-1.2,1.8l-1.5,1.7l-2.8,2.2L25.7,140.9z"
	/>
<path class="st5" d="M31.9,136.4l2.8-1l2.6-1.6l0.6-3l-1.6,2.1l-1.5,1.2L31.9,136.4z"/>
<path class="st5" d="M45.9,122.7l-1-4.8l-0.2-9.8l-0.5-7.2l-0.6-4.7l-0.4,2.4l0,13.2l-0.3,7.2l0.5,3.8l0,2.2L45.9,122.7z"/>
<path class="st5" d="M40.8,124.7l-0.2-6l0-7.8l-0.9-7.3l-0.1-1.5l-0.7,3.2l-0.2,0.2c0.1,1.8,0.4,7.3,0.4,7.6c0,0.3-0.4,5.9-0.5,6.2
	c-0.1,0.3-0.4,7-0.5,7.5l-0.2,1.6l2.6-2.3L40.8,124.7z"/>
<path class="st5" d="M17.8,132.9l-2.4,1.5l-0.5,4.3l4.3-2.1l1.1-2.9l-0.4-1.7L17.8,132.9z"/>
<path class="st5" d="M15.5,139.9l-0.8-0.1l-0.2,1.2l2.7-0.4l1.3-1.3l0-0.7l-1.2,0.6L15.5,139.9z"/>
<path class="st5" d="M13.7,143.1l-0.3,0.8l1,0.2l1.6-0.8l1.1-1.1l-2.2,0.7L13.7,143.1z"/>
<path class="st5" d="M13.4,146.6l1.4-0.9l1.1-1.3l-0.3-0.4l-0.8,0.7l-1.4,0.4l-0.4,0l-0.3,0.8l-0.5,0.4L13.4,146.6z"/>
<path class="st5" d="M15.5,147.4l-2.3,0.3l-2.2-0.2l-0.7,0.6l-0.4,0.5l0.6,0.2l2.3-0.1l2.6-0.7L15.5,147.4z"/>
<path class="st5" d="M38.8,60.8L38,60.7l-1.8-1l-1.2-1.1l-0.3-0.8l-0.2,0l-0.3,0.7l0.9,1.1l3.6,2.4L38.8,60.8z"/>
<path class="st5" d="M11.1,43.7l1,1.9l0.4,5.7l-0.8,6.3l-1.3,2.8L5.5,64l-2.2-0.8l-2.2-1.6l0-3.8l0.3-5.7l2.2-6.7l1.8-1.3l3-0.6
	l1.6-0.1L11.1,43.7z"/>
<path class="st4" d="M12.5,51.3l-0.2-2.2l-0.6,5.7l-1,3.7l-1.7,2.3l-2.4,1.3l-2.2,0.1l-1.4-1.4l-0.5-2.1l0.2-4.9l0.4-3.3L4,47.3
	l0.6-2.2l-0.5,0.3l-2,6.7l-0.3,5.7l0,3.8L4,63.2L6,64l4.6-3.6l1.2-2.8L12.5,51.3z"/>
<path class="st6" d="M11.1,43.7l-1.1-0.3l-1.5,0.1l-2.8,0.6l-0.4,0.3L5,46.3l-0.8,2.8l0,1.2l-0.3,6.3l0.5,2.4l0.5,0.4l2.4-1.2
	L9.9,56l1.3-3.7l0.4-2.7l-0.3-3.9l0.1-1.3L11.1,43.7z"/>
<path class="st7" d="M10,28.7l1.9,0.5l0,1.5l-0.4,1.6l-0.9,1.4l0,2.4l1,11.4l0,3.9l-2.1,5.2l-4.4,2.7l0.6-13.1l-0.2-1.8L6,36.7
	l-0.4-5.9l-0.2-2.2l1.8-0.1L10,28.7z"/>
<path class="st7" d="M3.7,17.2L4,19.7l6.7-0.3l0.2-2L6.4,17L3.7,17.2z"/>
<path class="st4" d="M4.6,19.7l1.1,0l-0.2-2.5l-0.8,0.1L4.6,19.7z"/>
<path class="st4" d="M8.4,19.5l1.1,0l0.2-2.2l-1-0.1L8.4,19.5z"/>
<path class="st5" d="M4.2,22.8l0.5,3.9l0.4,7.3l0.7,5.7l2.6,0l1.2-8.6l0.6-8.8L4.2,22.8z"/>
<path class="st4" d="M6.3,39.4l1.4,0l-0.2,2.1l-1.1-0.2L6.3,39.4z"/>
<path class="st4" d="M4.5,24.7l2.2-0.3l2.4-0.1l0.9,0.2l0.1-2.1l-5.9,0.5L4.5,24.7z"/>
<path class="st7" d="M2,24.3l4.6-0.6l2.3-0.1l3,0.2l0.9-3.8l-2.3-1l-3.7-0.4L2.6,19l-1.6,0.6L1,20.2l0.4,0.6L2,24.3z"/>
<path class="st5" d="M8.7,19.7l3.1-0.2L10.5,19l-3.7-0.4L2.6,19l-1.6,0.6L1,20.2l0.4,0.6l0,0.2L4,20.2L8.7,19.7z"/>
<path class="st7" d="M2.7,28.1l0.5,0.7l1.6-0.3l2.5,0.1l0.1-0.6l-1.4-1.1l-1.6,0.3L2.7,28.1z"/>
<path class="st7" d="M3.4,29.8l1.7-0.6l2,0.2l0.3,0.6l-0.1,0.4l-2.6-0.2l-1.2,0.1L3.4,29.8z"/>
<path class="st7" d="M3.4,31.5l2.3-0.4l1.4,0.3l0.3,0.7l-0.2,0.5l-2.9-0.1l-0.6-0.1L3.4,31.5z"/>
<path class="st7" d="M8.5,26.3l0.3,2.9l0.8,1.1l1,1l0.5-0.5L11,29.4l-0.8-1.3l-0.7-1.8L8.5,26.3z"/>
<path class="st5" d="M5.6,44.5l1,0.9l1.6,0l1.8-2.4l-0.1,1.8l-1.3,1.7L7,46.4l-1.1-1L5.6,44.5z"/>
<path class="st8" d="M12,50.6l-0.3-5.5l-0.1-0.4l-0.5-1l-0.1,0l-0.1,0l0.1,2.6l0.2,4.2l-1,3.4l-1,2.4l-2.4,1.4L5.1,59l-0.5-0.7
	l-0.3-4.1l0.4-3.8l0.6-4.7l0.3-1.4l-0.3,0.2l-1,4.4l-0.4,3.6l-0.3,4l0.1,2.7l1.2,1.1l2.4-1.1l2.5-1.8l1.7-4.3L12,50.6z"/>
<path class="st4" d="M7.4,153.9l11.9,1.7l0.6-4.2l-3.6-0.3l-6.8-0.2l-2.1-1L7.4,153.9z"/>
</svg>
